<?xml version="1.0" encoding="utf-8"?>
<svg xmlns="http://www.w3.org/2000/svg" xmlns:xlink="http://www.w3.org/1999/xlink" width="600" height="400" viewBox="0 0 2400 1600">
<defs>
  <clipPath id="clip0200">
    <rect x="0" y="0" width="2400" height="1600"/>
  </clipPath>
</defs>
<polygon clip-path="url(#clip0200)" points="
0,1600 2400,1600 2400,0 0,0 
  " fill="#ffffff" fill-rule="evenodd" fill-opacity="1"/>
<defs>
  <clipPath id="clip0201">
    <rect x="480" y="0" width="1681" height="1600"/>
  </clipPath>
</defs>
<polygon clip-path="url(#clip0200)" points="
167.279,1425.62 2352.76,1425.62 2352.76,47.2441 167.279,47.2441 
  " fill="#ffffff" fill-rule="evenodd" fill-opacity="1"/>
<defs>
  <clipPath id="clip0202">
    <rect x="167" y="47" width="2186" height="1379"/>
  </clipPath>
</defs>
<polyline clip-path="url(#clip0202)" style="stroke:#000000; stroke-width:2; stroke-opacity:0.1; fill:none" points="
  167.279,1425.62 167.279,47.2441 
  "/>
<polyline clip-path="url(#clip0202)" style="stroke:#000000; stroke-width:2; stroke-opacity:0.1; fill:none" points="
  766.04,1425.62 766.04,47.2441 
  "/>
<polyline clip-path="url(#clip0202)" style="stroke:#000000; stroke-width:2; stroke-opacity:0.1; fill:none" points="
  1364.8,1425.62 1364.8,47.2441 
  "/>
<polyline clip-path="url(#clip0202)" style="stroke:#000000; stroke-width:2; stroke-opacity:0.1; fill:none" points="
  1963.56,1425.62 1963.56,47.2441 
  "/>
<polyline clip-path="url(#clip0202)" style="stroke:#000000; stroke-width:2; stroke-opacity:0.1; fill:none" points="
  167.279,1386.61 2352.76,1386.61 
  "/>
<polyline clip-path="url(#clip0202)" style="stroke:#000000; stroke-width:2; stroke-opacity:0.1; fill:none" points="
  167.279,1064.44 2352.76,1064.44 
  "/>
<polyline clip-path="url(#clip0202)" style="stroke:#000000; stroke-width:2; stroke-opacity:0.1; fill:none" points="
  167.279,742.28 2352.76,742.28 
  "/>
<polyline clip-path="url(#clip0202)" style="stroke:#000000; stroke-width:2; stroke-opacity:0.1; fill:none" points="
  167.279,420.116 2352.76,420.116 
  "/>
<polyline clip-path="url(#clip0202)" style="stroke:#000000; stroke-width:2; stroke-opacity:0.1; fill:none" points="
  167.279,97.9516 2352.76,97.9516 
  "/>
<polyline clip-path="url(#clip0200)" style="stroke:#000000; stroke-width:4; stroke-opacity:1; fill:none" points="
  167.279,1425.62 2352.76,1425.62 
  "/>
<polyline clip-path="url(#clip0200)" style="stroke:#000000; stroke-width:4; stroke-opacity:1; fill:none" points="
  167.279,1425.62 167.279,47.2441 
  "/>
<polyline clip-path="url(#clip0200)" style="stroke:#000000; stroke-width:4; stroke-opacity:1; fill:none" points="
  167.279,1425.62 167.279,1404.94 
  "/>
<polyline clip-path="url(#clip0200)" style="stroke:#000000; stroke-width:4; stroke-opacity:1; fill:none" points="
  766.04,1425.62 766.04,1404.94 
  "/>
<polyline clip-path="url(#clip0200)" style="stroke:#000000; stroke-width:4; stroke-opacity:1; fill:none" points="
  1364.8,1425.62 1364.8,1404.94 
  "/>
<polyline clip-path="url(#clip0200)" style="stroke:#000000; stroke-width:4; stroke-opacity:1; fill:none" points="
  1963.56,1425.62 1963.56,1404.94 
  "/>
<polyline clip-path="url(#clip0200)" style="stroke:#000000; stroke-width:4; stroke-opacity:1; fill:none" points="
  167.279,1386.61 200.061,1386.61 
  "/>
<polyline clip-path="url(#clip0200)" style="stroke:#000000; stroke-width:4; stroke-opacity:1; fill:none" points="
  167.279,1064.44 200.061,1064.44 
  "/>
<polyline clip-path="url(#clip0200)" style="stroke:#000000; stroke-width:4; stroke-opacity:1; fill:none" points="
  167.279,742.28 200.061,742.28 
  "/>
<polyline clip-path="url(#clip0200)" style="stroke:#000000; stroke-width:4; stroke-opacity:1; fill:none" points="
  167.279,420.116 200.061,420.116 
  "/>
<polyline clip-path="url(#clip0200)" style="stroke:#000000; stroke-width:4; stroke-opacity:1; fill:none" points="
  167.279,97.9516 200.061,97.9516 
  "/>
<g clip-path="url(#clip0200)">
<text style="fill:#000000; fill-opacity:1; font-family:Arial,Helvetica Neue,Helvetica,sans-serif; font-size:48px; text-anchor:middle;" transform="rotate(0, 167.279, 1479.62)" x="167.279" y="1479.62">0</text>
</g>
<g clip-path="url(#clip0200)">
<text style="fill:#000000; fill-opacity:1; font-family:Arial,Helvetica Neue,Helvetica,sans-serif; font-size:48px; text-anchor:middle;" transform="rotate(0, 766.04, 1479.62)" x="766.04" y="1479.62">100</text>
</g>
<g clip-path="url(#clip0200)">
<text style="fill:#000000; fill-opacity:1; font-family:Arial,Helvetica Neue,Helvetica,sans-serif; font-size:48px; text-anchor:middle;" transform="rotate(0, 1364.8, 1479.62)" x="1364.8" y="1479.62">200</text>
</g>
<g clip-path="url(#clip0200)">
<text style="fill:#000000; fill-opacity:1; font-family:Arial,Helvetica Neue,Helvetica,sans-serif; font-size:48px; text-anchor:middle;" transform="rotate(0, 1963.56, 1479.62)" x="1963.56" y="1479.62">300</text>
</g>
<g clip-path="url(#clip0200)">
<text style="fill:#000000; fill-opacity:1; font-family:Arial,Helvetica Neue,Helvetica,sans-serif; font-size:48px; text-anchor:end;" transform="rotate(0, 143.279, 1404.11)" x="143.279" y="1404.11">0</text>
</g>
<g clip-path="url(#clip0200)">
<text style="fill:#000000; fill-opacity:1; font-family:Arial,Helvetica Neue,Helvetica,sans-serif; font-size:48px; text-anchor:end;" transform="rotate(0, 143.279, 1081.94)" x="143.279" y="1081.94">25</text>
</g>
<g clip-path="url(#clip0200)">
<text style="fill:#000000; fill-opacity:1; font-family:Arial,Helvetica Neue,Helvetica,sans-serif; font-size:48px; text-anchor:end;" transform="rotate(0, 143.279, 759.78)" x="143.279" y="759.78">50</text>
</g>
<g clip-path="url(#clip0200)">
<text style="fill:#000000; fill-opacity:1; font-family:Arial,Helvetica Neue,Helvetica,sans-serif; font-size:48px; text-anchor:end;" transform="rotate(0, 143.279, 437.616)" x="143.279" y="437.616">75</text>
</g>
<g clip-path="url(#clip0200)">
<text style="fill:#000000; fill-opacity:1; font-family:Arial,Helvetica Neue,Helvetica,sans-serif; font-size:48px; text-anchor:end;" transform="rotate(0, 143.279, 115.452)" x="143.279" y="115.452">100</text>
</g>
<g clip-path="url(#clip0200)">
<text style="fill:#000000; fill-opacity:1; font-family:Arial,Helvetica Neue,Helvetica,sans-serif; font-size:66px; text-anchor:middle;" transform="rotate(0, 1260.02, 1559.48)" x="1260.02" y="1559.48">t</text>
</g>
<polyline clip-path="url(#clip0202)" style="stroke:#009af9; stroke-width:12; stroke-opacity:1; fill:none" points="
  167.279,97.9516 169.467,97.9663 171.654,98.0098 173.842,98.0811 176.03,98.1794 178.217,98.3038 180.405,98.4538 182.593,98.6285 184.78,98.8275 186.968,99.0504 
  189.156,99.2965 191.343,99.5657 193.531,99.8575 195.719,100.172 197.906,100.508 200.094,100.866 202.282,101.247 204.469,101.649 206.657,102.073 208.845,102.518 
  211.032,102.986 213.22,103.475 215.408,103.987 217.595,104.521 219.783,105.077 221.971,105.656 224.158,106.258 226.346,106.883 228.534,107.532 230.721,108.204 
  232.909,108.901 235.097,109.623 237.284,110.37 239.472,111.142 241.66,111.941 243.847,112.766 246.035,113.619 248.223,114.499 250.41,115.408 252.598,116.345 
  254.786,117.313 256.973,118.311 259.161,119.34 261.349,120.4 263.536,121.494 265.724,122.621 267.912,123.782 270.099,124.978 272.287,126.21 274.475,127.479 
  276.662,128.785 278.85,130.131 281.038,131.516 283.225,132.942 285.413,134.409 287.601,135.919 289.788,137.473 291.976,139.072 294.164,140.717 296.351,142.409 
  298.539,144.15 300.727,145.94 302.914,147.781 305.102,149.675 307.29,151.621 309.477,153.623 311.665,155.68 313.853,157.795 316.04,159.969 318.228,162.203 
  320.416,164.499 322.603,166.857 324.791,169.281 326.979,171.771 329.166,174.328 331.354,176.955 333.542,179.652 335.729,182.422 337.917,185.266 340.105,188.186 
  342.292,191.183 344.48,194.26 346.668,197.417 348.855,200.657 351.043,203.98 353.231,207.39 355.418,210.887 357.606,214.474 359.794,218.152 361.981,221.923 
  364.169,225.789 366.357,229.751 368.544,233.812 370.732,237.972 372.92,242.235 375.107,246.601 377.295,251.073 379.483,255.652 381.67,260.339 383.858,265.138 
  386.046,270.048 388.233,275.072 390.421,280.212 392.609,285.468 394.796,290.843 396.984,296.337 399.172,301.952 401.359,307.69 403.547,313.552 405.735,319.539 
  407.922,325.653 410.11,331.894 412.298,338.264 414.485,344.764 416.673,351.395 418.861,358.157 421.048,365.051 423.236,372.078 425.424,379.238 427.611,386.531 
  429.799,393.959 431.987,401.519 434.174,409.213 436.362,417.041 438.55,425.001 440.737,433.093 442.925,441.317 445.113,449.672 447.3,458.156 449.488,466.769 
  451.676,475.509 453.863,484.375 456.051,493.366 458.239,502.479 460.426,511.714 462.614,521.067 464.802,530.537 466.989,540.122 469.177,549.819 471.365,559.623 
  473.552,569.533 475.74,579.544 477.927,589.652 480.115,599.853 482.303,610.144 484.49,620.519 486.678,630.974 488.866,641.506 491.053,652.109 493.241,662.778 
  495.429,673.509 497.616,684.296 499.804,695.134 501.992,706.019 504.179,716.943 506.367,727.902 508.555,738.891 510.742,749.902 512.93,760.93 515.118,771.969 
  517.305,783.012 519.493,794.054 521.681,805.087 523.868,816.107 526.056,827.108 528.244,838.08 530.431,849.019 532.619,859.917 534.807,870.768 536.994,881.565 
  539.182,892.303 541.37,902.974 543.557,913.574 545.745,924.096 547.933,934.536 550.12,944.887 552.308,955.145 554.496,965.304 556.683,975.36 558.871,985.308 
  561.059,995.143 563.246,1004.86 565.434,1014.46 567.622,1023.93 569.809,1033.27 571.997,1042.48 574.185,1051.56 576.372,1060.49 578.56,1069.28 580.748,1077.92 
  582.935,1086.42 585.123,1094.76 587.311,1102.95 589.498,1110.99 591.686,1118.87 593.874,1126.6 596.061,1134.16 598.249,1141.58 600.437,1148.83 602.624,1155.92 
  604.812,1162.86 607,1169.64 609.187,1176.26 611.375,1182.72 613.563,1189.03 615.75,1195.18 617.938,1201.17 620.126,1207.02 622.313,1212.71 624.501,1218.25 
  626.689,1223.63 628.876,1228.88 631.064,1233.97 633.252,1238.92 635.439,1243.73 637.627,1248.4 639.815,1252.94 642.002,1257.34 644.19,1261.61 646.378,1265.75 
  648.565,1269.76 650.753,1273.66 652.941,1277.43 655.128,1281.09 657.316,1284.63 659.504,1288.06 661.691,1291.37 663.879,1294.58 666.067,1297.69 668.254,1300.69 
  670.442,1303.6 672.63,1306.4 674.817,1309.12 677.005,1311.74 679.193,1314.27 681.38,1316.72 683.568,1319.08 685.756,1321.36 687.943,1323.56 690.131,1325.69 
  692.319,1327.74 694.506,1329.72 696.694,1331.62 698.882,1333.46 701.069,1335.24 703.257,1336.95 705.445,1338.6 707.632,1340.2 709.82,1341.73 712.008,1343.21 
  714.195,1344.64 716.383,1346.02 718.571,1347.35 720.758,1348.63 722.946,1349.87 725.134,1351.06 727.321,1352.21 729.509,1353.31 731.697,1354.38 733.884,1355.41 
  736.072,1356.4 738.26,1357.35 740.447,1358.27 742.635,1359.16 744.823,1360.01 747.01,1360.84 749.198,1361.63 751.386,1362.4 753.573,1363.14 755.761,1363.85 
  757.949,1364.54 760.136,1365.2 762.324,1365.84 764.512,1366.45 766.699,1367.05 768.887,1367.62 771.075,1368.17 773.262,1368.71 775.45,1369.22 777.638,1369.72 
  779.825,1370.2 782.013,1370.66 784.201,1371.11 786.388,1371.54 788.576,1371.95 790.764,1372.36 792.951,1372.74 795.139,1373.12 797.326,1373.48 799.514,1373.83 
  801.702,1374.16 803.889,1374.49 806.077,1374.81 808.265,1375.11 810.452,1375.4 812.64,1375.69 814.828,1375.96 817.015,1376.23 819.203,1376.49 821.391,1376.73 
  823.578,1376.98 825.766,1377.21 827.954,1377.43 830.141,1377.65 832.329,1377.86 834.517,1378.07 836.704,1378.26 838.892,1378.45 841.08,1378.64 843.267,1378.82 
  845.455,1378.99 847.643,1379.16 849.83,1379.32 852.018,1379.48 854.206,1379.63 856.393,1379.78 858.581,1379.93 860.769,1380.07 862.956,1380.2 865.144,1380.33 
  867.332,1380.46 869.519,1380.58 871.707,1380.7 873.895,1380.82 876.082,1380.93 878.27,1381.04 880.458,1381.15 882.645,1381.25 884.833,1381.35 887.021,1381.45 
  889.208,1381.54 891.396,1381.63 893.584,1381.72 895.771,1381.81 897.959,1381.89 900.147,1381.98 902.334,1382.06 904.522,1382.13 906.71,1382.21 908.897,1382.28 
  911.085,1382.35 913.273,1382.42 915.46,1382.49 917.648,1382.56 919.836,1382.62 922.023,1382.68 924.211,1382.74 926.399,1382.8 928.586,1382.86 930.774,1382.91 
  932.962,1382.97 935.149,1383.02 937.337,1383.07 939.525,1383.12 941.712,1383.17 943.9,1383.22 946.088,1383.27 948.275,1383.31 950.463,1383.36 952.651,1383.4 
  954.838,1383.44 957.026,1383.48 959.214,1383.52 961.401,1383.56 963.589,1383.6 965.777,1383.64 967.964,1383.67 970.152,1383.71 972.34,1383.74 974.527,1383.78 
  976.715,1383.81 978.903,1383.84 981.09,1383.88 983.278,1383.91 985.466,1383.94 987.653,1383.97 989.841,1383.99 992.029,1384.02 994.216,1384.05 996.404,1384.08 
  998.592,1384.1 1000.78,1384.13 1002.97,1384.15 1005.15,1384.18 1007.34,1384.2 1009.53,1384.22 1011.72,1384.25 1013.91,1384.27 1016.09,1384.29 1018.28,1384.31 
  1020.47,1384.33 1022.66,1384.35 1024.84,1384.37 1027.03,1384.39 1029.22,1384.41 1031.41,1384.43 1033.59,1384.45 1035.78,1384.47 1037.97,1384.49 1040.16,1384.5 
  1042.34,1384.52 1044.53,1384.54 1046.72,1384.55 1048.91,1384.57 1051.1,1384.58 1053.28,1384.6 1055.47,1384.61 1057.66,1384.63 1059.85,1384.64 1062.03,1384.66 
  1064.22,1384.67 1066.41,1384.68 1068.6,1384.7 1070.78,1384.71 1072.97,1384.72 1075.16,1384.74 1077.35,1384.75 1079.54,1384.76 1081.72,1384.77 1083.91,1384.78 
  1086.1,1384.79 1088.29,1384.8 1090.47,1384.82 1092.66,1384.83 1094.85,1384.84 1097.04,1384.85 1099.22,1384.86 1101.41,1384.87 1103.6,1384.88 1105.79,1384.89 
  1107.97,1384.9 1110.16,1384.9 1112.35,1384.91 1114.54,1384.92 1116.73,1384.93 1118.91,1384.94 1121.1,1384.95 1123.29,1384.96 1125.48,1384.96 1127.66,1384.97 
  1129.85,1384.98 1132.04,1384.99 1134.23,1384.99 1136.41,1385 1138.6,1385.01 1140.79,1385.02 1142.98,1385.02 1145.17,1385.03 1147.35,1385.04 1149.54,1385.04 
  1151.73,1385.05 1153.92,1385.05 1156.1,1385.06 1158.29,1385.07 1160.48,1385.07 1162.67,1385.08 1164.85,1385.08 1167.04,1385.09 1169.23,1385.1 1171.42,1385.1 
  1173.6,1385.11 1175.79,1385.11 1177.98,1385.12 1180.17,1385.12 1182.36,1385.13 1184.54,1385.13 1186.73,1385.14 1188.92,1385.14 1191.11,1385.15 1193.29,1385.15 
  1195.48,1385.16 1197.67,1385.16 1199.86,1385.16 1202.04,1385.17 1204.23,1385.17 1206.42,1385.18 1208.61,1385.18 1210.8,1385.18 1212.98,1385.19 1215.17,1385.19 
  1217.36,1385.2 1219.55,1385.2 1221.73,1385.2 1223.92,1385.21 1226.11,1385.21 1228.3,1385.21 1230.48,1385.22 1232.67,1385.22 1234.86,1385.22 1237.05,1385.23 
  1239.23,1385.23 1241.42,1385.23 1243.61,1385.24 1245.8,1385.24 1247.99,1385.24 1250.17,1385.25 1252.36,1385.25 1254.55,1385.25 1256.74,1385.25 1258.92,1385.26 
  1261.11,1385.26 1263.3,1385.26 1265.49,1385.27 1267.67,1385.27 1269.86,1385.27 1272.05,1385.27 1274.24,1385.28 1276.43,1385.28 1278.61,1385.28 1280.8,1385.28 
  1282.99,1385.28 1285.18,1385.29 1287.36,1385.29 1289.55,1385.29 1291.74,1385.29 1293.93,1385.3 1296.11,1385.3 1298.3,1385.3 1300.49,1385.3 1302.68,1385.3 
  1304.86,1385.31 1307.05,1385.31 1309.24,1385.31 1311.43,1385.31 1313.62,1385.31 1315.8,1385.32 1317.99,1385.32 1320.18,1385.32 1322.37,1385.32 1324.55,1385.32 
  1326.74,1385.32 1328.93,1385.33 1331.12,1385.33 1333.3,1385.33 1335.49,1385.33 1337.68,1385.33 1339.87,1385.33 1342.05,1385.33 1344.24,1385.34 1346.43,1385.34 
  1348.62,1385.34 1350.81,1385.34 1352.99,1385.34 1355.18,1385.34 1357.37,1385.34 1359.56,1385.35 1361.74,1385.35 1363.93,1385.35 1366.12,1385.35 1368.31,1385.35 
  1370.49,1385.35 1372.68,1385.35 1374.87,1385.35 1377.06,1385.36 1379.25,1385.36 1381.43,1385.36 1383.62,1385.36 1385.81,1385.36 1388,1385.36 1390.18,1385.36 
  1392.37,1385.36 1394.56,1385.36 1396.75,1385.36 1398.93,1385.37 1401.12,1385.37 1403.31,1385.37 1405.5,1385.37 1407.68,1385.37 1409.87,1385.37 1412.06,1385.37 
  1414.25,1385.37 1416.44,1385.37 1418.62,1385.37 1420.81,1385.37 1423,1385.38 1425.19,1385.38 1427.37,1385.38 1429.56,1385.38 1431.75,1385.38 1433.94,1385.38 
  1436.12,1385.38 1438.31,1385.38 1440.5,1385.38 1442.69,1385.38 1444.88,1385.38 1447.06,1385.38 1449.25,1385.38 1451.44,1385.38 1453.63,1385.39 1455.81,1385.39 
  1458,1385.39 1460.19,1385.39 1462.38,1385.39 1464.56,1385.39 1466.75,1385.39 1468.94,1385.39 1471.13,1385.39 1473.31,1385.39 1475.5,1385.39 1477.69,1385.39 
  1479.88,1385.39 1482.07,1385.39 1484.25,1385.39 1486.44,1385.39 1488.63,1385.39 1490.82,1385.4 1493,1385.4 1495.19,1385.4 1497.38,1385.4 1499.57,1385.4 
  1501.75,1385.4 1503.94,1385.4 1506.13,1385.4 1508.32,1385.4 1510.51,1385.4 1512.69,1385.4 1514.88,1385.4 1517.07,1385.4 1519.26,1385.4 1521.44,1385.4 
  1523.63,1385.4 1525.82,1385.4 1528.01,1385.4 1530.19,1385.4 1532.38,1385.4 1534.57,1385.4 1536.76,1385.4 1538.94,1385.4 1541.13,1385.4 1543.32,1385.41 
  1545.51,1385.41 1547.7,1385.41 1549.88,1385.41 1552.07,1385.41 1554.26,1385.41 1556.45,1385.41 1558.63,1385.41 1560.82,1385.41 1563.01,1385.41 1565.2,1385.41 
  1567.38,1385.41 1569.57,1385.41 1571.76,1385.41 1573.95,1385.41 1576.14,1385.41 1578.32,1385.41 1580.51,1385.41 1582.7,1385.41 1584.89,1385.41 1587.07,1385.41 
  1589.26,1385.41 1591.45,1385.41 1593.64,1385.41 1595.82,1385.41 1598.01,1385.41 1600.2,1385.41 1602.39,1385.41 1604.57,1385.41 1606.76,1385.41 1608.95,1385.41 
  1611.14,1385.41 1613.33,1385.41 1615.51,1385.41 1617.7,1385.41 1619.89,1385.41 1622.08,1385.41 1624.26,1385.41 1626.45,1385.41 1628.64,1385.42 1630.83,1385.42 
  1633.01,1385.42 1635.2,1385.42 1637.39,1385.42 1639.58,1385.42 1641.76,1385.42 1643.95,1385.42 1646.14,1385.42 1648.33,1385.42 1650.52,1385.42 1652.7,1385.42 
  1654.89,1385.42 1657.08,1385.42 1659.27,1385.42 1661.45,1385.42 1663.64,1385.42 1665.83,1385.42 1668.02,1385.42 1670.2,1385.42 1672.39,1385.42 1674.58,1385.42 
  1676.77,1385.42 1678.96,1385.42 1681.14,1385.42 1683.33,1385.42 1685.52,1385.42 1687.71,1385.42 1689.89,1385.42 1692.08,1385.42 1694.27,1385.42 1696.46,1385.42 
  1698.64,1385.42 1700.83,1385.42 1703.02,1385.42 1705.21,1385.42 1707.39,1385.42 1709.58,1385.42 1711.77,1385.42 1713.96,1385.42 1716.15,1385.42 1718.33,1385.42 
  1720.52,1385.42 1722.71,1385.42 1724.9,1385.42 1727.08,1385.42 1729.27,1385.42 1731.46,1385.42 1733.65,1385.42 1735.83,1385.42 1738.02,1385.42 1740.21,1385.42 
  1742.4,1385.42 1744.59,1385.42 1746.77,1385.42 1748.96,1385.42 1751.15,1385.42 1753.34,1385.42 1755.52,1385.42 1757.71,1385.42 1759.9,1385.42 1762.09,1385.42 
  1764.27,1385.42 1766.46,1385.42 1768.65,1385.42 1770.84,1385.42 1773.02,1385.42 1775.21,1385.42 1777.4,1385.42 1779.59,1385.42 1781.78,1385.42 1783.96,1385.42 
  1786.15,1385.42 1788.34,1385.42 1790.53,1385.42 1792.71,1385.42 1794.9,1385.42 1797.09,1385.42 1799.28,1385.42 1801.46,1385.42 1803.65,1385.42 1805.84,1385.42 
  1808.03,1385.42 1810.22,1385.42 1812.4,1385.42 1814.59,1385.42 1816.78,1385.42 1818.97,1385.42 1821.15,1385.42 1823.34,1385.42 1825.53,1385.42 1827.72,1385.42 
  1829.9,1385.42 1832.09,1385.42 1834.28,1385.42 1836.47,1385.42 1838.65,1385.42 1840.84,1385.42 1843.03,1385.42 1845.22,1385.42 1847.41,1385.42 1849.59,1385.42 
  1851.78,1385.42 1853.97,1385.42 1856.16,1385.42 1858.34,1385.42 1860.53,1385.42 1862.72,1385.42 1864.91,1385.42 1867.09,1385.42 1869.28,1385.42 1871.47,1385.42 
  1873.66,1385.42 1875.85,1385.42 1878.03,1385.42 1880.22,1385.42 1882.41,1385.42 1884.6,1385.42 1886.78,1385.42 1888.97,1385.42 1891.16,1385.42 1893.35,1385.42 
  1895.53,1385.42 1897.72,1385.42 1899.91,1385.42 1902.1,1385.42 1904.28,1385.42 1906.47,1385.42 1908.66,1385.42 1910.85,1385.42 1913.04,1385.42 1915.22,1385.43 
  1917.41,1385.43 1919.6,1385.43 1921.79,1385.43 1923.97,1385.43 1926.16,1385.43 1928.35,1385.43 1930.54,1385.43 1932.72,1385.43 1934.91,1385.43 1937.1,1385.43 
  1939.29,1385.43 1941.47,1385.43 1943.66,1385.43 1945.85,1385.43 1948.04,1385.43 1950.23,1385.43 1952.41,1385.43 1954.6,1385.43 1956.79,1385.43 1958.98,1385.43 
  1961.16,1385.43 1963.35,1385.43 1965.54,1385.43 1967.73,1385.43 1969.91,1385.43 1972.1,1385.43 1974.29,1385.43 1976.48,1385.43 1978.67,1385.43 1980.85,1385.43 
  1983.04,1385.43 1985.23,1385.43 1987.42,1385.43 1989.6,1385.43 1991.79,1385.43 1993.98,1385.43 1996.17,1385.43 1998.35,1385.43 2000.54,1385.43 2002.73,1385.43 
  2004.92,1385.43 2007.1,1385.43 2009.29,1385.43 2011.48,1385.43 2013.67,1385.43 2015.86,1385.43 2018.04,1385.43 2020.23,1385.43 2022.42,1385.43 2024.61,1385.43 
  2026.79,1385.43 2028.98,1385.43 2031.17,1385.43 2033.36,1385.43 2035.54,1385.43 2037.73,1385.43 2039.92,1385.43 2042.11,1385.43 2044.3,1385.43 2046.48,1385.43 
  2048.67,1385.43 2050.86,1385.43 2053.05,1385.43 2055.23,1385.43 2057.42,1385.43 2059.61,1385.43 2061.8,1385.43 2063.98,1385.43 2066.17,1385.43 2068.36,1385.43 
  2070.55,1385.43 2072.73,1385.43 2074.92,1385.43 2077.11,1385.43 2079.3,1385.43 2081.49,1385.43 2083.67,1385.43 2085.86,1385.43 2088.05,1385.43 2090.24,1385.43 
  2092.42,1385.43 2094.61,1385.43 2096.8,1385.43 2098.99,1385.43 2101.17,1385.43 2103.36,1385.43 2105.55,1385.43 2107.74,1385.43 2109.93,1385.43 2112.11,1385.43 
  2114.3,1385.43 2116.49,1385.43 2118.68,1385.43 2120.86,1385.43 2123.05,1385.43 2125.24,1385.43 2127.43,1385.43 2129.61,1385.43 2131.8,1385.43 2133.99,1385.43 
  2136.18,1385.43 2138.36,1385.43 2140.55,1385.43 2142.74,1385.43 2144.93,1385.43 2147.12,1385.43 2149.3,1385.43 2151.49,1385.43 2153.68,1385.43 2155.87,1385.43 
  2158.05,1385.43 2160.24,1385.43 2162.43,1385.43 2164.62,1385.43 2166.8,1385.43 2168.99,1385.43 2171.18,1385.43 2173.37,1385.43 2175.56,1385.43 2177.74,1385.43 
  2179.93,1385.43 2182.12,1385.43 2184.31,1385.43 2186.49,1385.43 2188.68,1385.43 2190.87,1385.43 2193.06,1385.43 2195.24,1385.43 2197.43,1385.43 2199.62,1385.43 
  2201.81,1385.43 2203.99,1385.43 2206.18,1385.43 2208.37,1385.43 2210.56,1385.43 2212.75,1385.43 2214.93,1385.43 2217.12,1385.43 2219.31,1385.43 2221.5,1385.43 
  2223.68,1385.43 2225.87,1385.43 2228.06,1385.43 2230.25,1385.43 2232.43,1385.43 2234.62,1385.43 2236.81,1385.43 2239,1385.43 2241.19,1385.43 2243.37,1385.43 
  2245.56,1385.43 2247.75,1385.43 2249.94,1385.43 2252.12,1385.43 2254.31,1385.43 2256.5,1385.43 2258.69,1385.43 2260.87,1385.43 2263.06,1385.43 2265.25,1385.43 
  2267.44,1385.43 2269.62,1385.43 2271.81,1385.43 2274,1385.43 2276.19,1385.43 2278.38,1385.43 2280.56,1385.43 2282.75,1385.43 2284.94,1385.43 2287.13,1385.43 
  2289.31,1385.43 2291.5,1385.43 2293.69,1385.43 2295.88,1385.43 2298.06,1385.43 2300.25,1385.43 2302.44,1385.43 2304.63,1385.43 2306.81,1385.43 2309,1385.43 
  2311.19,1385.43 2313.38,1385.43 2315.57,1385.43 2317.75,1385.43 2319.94,1385.43 2322.13,1385.43 2324.32,1385.43 2326.5,1385.43 2328.69,1385.43 2330.88,1385.43 
  2333.07,1385.43 2335.25,1385.43 2337.44,1385.43 2339.63,1385.43 2341.82,1385.43 2344.01,1385.43 2346.19,1385.43 2348.38,1385.43 2350.57,1385.43 2352.76,1385.43 
  
  "/>
<polyline clip-path="url(#clip0202)" style="stroke:#e26f46; stroke-width:12; stroke-opacity:1; fill:none" points="
  167.279,1373.72 169.467,1373.94 171.654,1374.13 173.842,1374.28 176.03,1374.41 178.217,1374.5 180.405,1374.58 182.593,1374.62 184.78,1374.64 186.968,1374.64 
  189.156,1374.61 191.343,1374.56 193.531,1374.49 195.719,1374.4 197.906,1374.28 200.094,1374.15 202.282,1374 204.469,1373.83 206.657,1373.64 208.845,1373.43 
  211.032,1373.21 213.22,1372.97 215.408,1372.71 217.595,1372.43 219.783,1372.13 221.971,1371.82 224.158,1371.49 226.346,1371.15 228.534,1370.79 230.721,1370.41 
  232.909,1370.01 235.097,1369.59 237.284,1369.16 239.472,1368.71 241.66,1368.24 243.847,1367.76 246.035,1367.26 248.223,1366.73 250.41,1366.19 252.598,1365.63 
  254.786,1365.05 256.973,1364.45 259.161,1363.84 261.349,1363.2 263.536,1362.54 265.724,1361.86 267.912,1361.15 270.099,1360.43 272.287,1359.68 274.475,1358.91 
  276.662,1358.12 278.85,1357.3 281.038,1356.46 283.225,1355.59 285.413,1354.7 287.601,1353.78 289.788,1352.84 291.976,1351.86 294.164,1350.86 296.351,1349.83 
  298.539,1348.77 300.727,1347.68 302.914,1346.56 305.102,1345.41 307.29,1344.23 309.477,1343.01 311.665,1341.76 313.853,1340.48 316.04,1339.16 318.228,1337.8 
  320.416,1336.41 322.603,1334.98 324.791,1333.52 326.979,1332.01 329.166,1330.46 331.354,1328.88 333.542,1327.25 335.729,1325.58 337.917,1323.87 340.105,1322.11 
  342.292,1320.31 344.48,1318.46 346.668,1316.56 348.855,1314.62 351.043,1312.63 353.231,1310.59 355.418,1308.5 357.606,1306.36 359.794,1304.17 361.981,1301.92 
  364.169,1299.63 366.357,1297.27 368.544,1294.87 370.732,1292.4 372.92,1289.89 375.107,1287.31 377.295,1284.68 379.483,1281.98 381.67,1279.23 383.858,1276.42 
  386.046,1273.55 388.233,1270.62 390.421,1267.62 392.609,1264.57 394.796,1261.45 396.984,1258.27 399.172,1255.03 401.359,1251.73 403.547,1248.36 405.735,1244.93 
  407.922,1241.44 410.11,1237.88 412.298,1234.26 414.485,1230.58 416.673,1226.83 418.861,1223.02 421.048,1219.15 423.236,1215.22 425.424,1211.22 427.611,1207.17 
  429.799,1203.06 431.987,1198.89 434.174,1194.66 436.362,1190.38 438.55,1186.04 440.737,1181.66 442.925,1177.22 445.113,1172.73 447.3,1168.19 449.488,1163.61 
  451.676,1158.99 453.863,1154.33 456.051,1149.62 458.239,1144.88 460.426,1140.11 462.614,1135.3 464.802,1130.47 466.989,1125.6 469.177,1120.72 471.365,1115.82 
  473.552,1110.9 475.74,1105.97 477.927,1101.03 480.115,1096.09 482.303,1091.15 484.49,1086.22 486.678,1081.3 488.866,1076.39 491.053,1071.5 493.241,1066.63 
  495.429,1061.79 497.616,1056.98 499.804,1052.21 501.992,1047.47 504.179,1042.79 506.367,1038.15 508.555,1033.57 510.742,1029.05 512.93,1024.6 515.118,1020.21 
  517.305,1015.9 519.493,1011.67 521.681,1007.53 523.868,1003.47 526.056,999.508 528.244,995.644 530.431,991.884 532.619,988.232 534.807,984.693 536.994,981.271 
  539.182,977.969 541.37,974.793 543.557,971.744 545.745,968.827 547.933,966.044 550.12,963.399 552.308,960.894 554.496,958.533 556.683,956.316 558.871,954.246 
  561.059,952.326 563.246,950.556 565.434,948.939 567.622,947.475 569.809,946.166 571.997,945.013 574.185,944.016 576.372,943.176 578.56,942.493 580.748,941.967 
  582.935,941.599 585.123,941.386 587.311,941.329 589.498,941.425 591.686,941.673 593.874,942.071 596.061,942.616 598.249,943.307 600.437,944.142 602.624,945.119 
  604.812,946.234 607,947.486 609.187,948.872 611.375,950.389 613.563,952.034 615.75,953.804 617.938,955.697 620.126,957.708 622.313,959.835 624.501,962.074 
  626.689,964.421 628.876,966.872 631.064,969.425 633.252,972.074 635.439,974.816 637.627,977.647 639.815,980.561 642.002,983.556 644.19,986.626 646.378,989.766 
  648.565,992.971 650.753,996.238 652.941,999.563 655.128,1002.94 657.316,1006.38 659.504,1009.86 661.691,1013.39 663.879,1016.96 666.067,1020.57 668.254,1024.22 
  670.442,1027.9 672.63,1031.61 674.817,1035.34 677.005,1039.1 679.193,1042.88 681.38,1046.68 683.568,1050.49 685.756,1054.32 687.943,1058.16 690.131,1062 
  692.319,1065.85 694.506,1069.7 696.694,1073.55 698.882,1077.4 701.069,1081.24 703.257,1085.07 705.445,1088.9 707.632,1092.71 709.82,1096.51 712.008,1100.29 
  714.195,1104.06 716.383,1107.81 718.571,1111.54 720.758,1115.25 722.946,1118.93 725.134,1122.6 727.321,1126.24 729.509,1129.85 731.697,1133.44 733.884,1137.01 
  736.072,1140.54 738.26,1144.05 740.447,1147.53 742.635,1150.98 744.823,1154.4 747.01,1157.79 749.198,1161.14 751.386,1164.46 753.573,1167.76 755.761,1171.01 
  757.949,1174.24 760.136,1177.43 762.324,1180.58 764.512,1183.7 766.699,1186.79 768.887,1189.84 771.075,1192.85 773.262,1195.83 775.45,1198.77 777.638,1201.68 
  779.825,1204.55 782.013,1207.39 784.201,1210.19 786.388,1212.96 788.576,1215.69 790.764,1218.39 792.951,1221.05 795.139,1223.67 797.326,1226.26 799.514,1228.82 
  801.702,1231.34 803.889,1233.83 806.077,1236.28 808.265,1238.7 810.452,1241.09 812.64,1243.44 814.828,1245.76 817.015,1248.05 819.203,1250.3 821.391,1252.52 
  823.578,1254.71 825.766,1256.87 827.954,1259 830.141,1261.09 832.329,1263.15 834.517,1265.19 836.704,1267.19 838.892,1269.16 841.08,1271.1 843.267,1273.02 
  845.455,1274.9 847.643,1276.76 849.83,1278.58 852.018,1280.38 854.206,1282.16 856.393,1283.9 858.581,1285.62 860.769,1287.31 862.956,1288.97 865.144,1290.61 
  867.332,1292.22 869.519,1293.81 871.707,1295.37 873.895,1296.9 876.082,1298.42 878.27,1299.9 880.458,1301.37 882.645,1302.81 884.833,1304.23 887.021,1305.62 
  889.208,1306.99 891.396,1308.34 893.584,1309.67 895.771,1310.98 897.959,1312.26 900.147,1313.53 902.334,1314.77 904.522,1316 906.71,1317.2 908.897,1318.38 
  911.085,1319.55 913.273,1320.69 915.46,1321.82 917.648,1322.93 919.836,1324.02 922.023,1325.09 924.211,1326.14 926.399,1327.18 928.586,1328.2 930.774,1329.2 
  932.962,1330.19 935.149,1331.16 937.337,1332.11 939.525,1333.05 941.712,1333.97 943.9,1334.87 946.088,1335.76 948.275,1336.64 950.463,1337.5 952.651,1338.35 
  954.838,1339.18 957.026,1340 959.214,1340.8 961.401,1341.59 963.589,1342.37 965.777,1343.13 967.964,1343.88 970.152,1344.62 972.34,1345.34 974.527,1346.06 
  976.715,1346.76 978.903,1347.45 981.09,1348.12 983.278,1348.79 985.466,1349.45 987.653,1350.09 989.841,1350.72 992.029,1351.34 994.216,1351.95 996.404,1352.56 
  998.592,1353.15 1000.78,1353.73 1002.97,1354.3 1005.15,1354.86 1007.34,1355.41 1009.53,1355.95 1011.72,1356.48 1013.91,1357.01 1016.09,1357.52 1018.28,1358.03 
  1020.47,1358.52 1022.66,1359.01 1024.84,1359.49 1027.03,1359.96 1029.22,1360.43 1031.41,1360.88 1033.59,1361.33 1035.78,1361.77 1037.97,1362.2 1040.16,1362.63 
  1042.34,1363.04 1044.53,1363.45 1046.72,1363.86 1048.91,1364.25 1051.1,1364.64 1053.28,1365.02 1055.47,1365.4 1057.66,1365.77 1059.85,1366.13 1062.03,1366.49 
  1064.22,1366.84 1066.41,1367.18 1068.6,1367.52 1070.78,1367.85 1072.97,1368.18 1075.16,1368.5 1077.35,1368.82 1079.54,1369.13 1081.72,1369.43 1083.91,1369.73 
  1086.1,1370.03 1088.29,1370.32 1090.47,1370.6 1092.66,1370.88 1094.85,1371.16 1097.04,1371.42 1099.22,1371.69 1101.41,1371.95 1103.6,1372.21 1105.79,1372.46 
  1107.97,1372.7 1110.16,1372.95 1112.35,1373.19 1114.54,1373.42 1116.73,1373.65 1118.91,1373.88 1121.1,1374.1 1123.29,1374.32 1125.48,1374.53 1127.66,1374.74 
  1129.85,1374.95 1132.04,1375.15 1134.23,1375.35 1136.41,1375.55 1138.6,1375.74 1140.79,1375.93 1142.98,1376.12 1145.17,1376.3 1147.35,1376.48 1149.54,1376.66 
  1151.73,1376.83 1153.92,1377 1156.1,1377.17 1158.29,1377.33 1160.48,1377.5 1162.67,1377.66 1164.85,1377.81 1167.04,1377.97 1169.23,1378.12 1171.42,1378.26 
  1173.6,1378.41 1175.79,1378.55 1177.98,1378.69 1180.17,1378.83 1182.36,1378.97 1184.54,1379.1 1186.73,1379.23 1188.92,1379.36 1191.11,1379.49 1193.29,1379.61 
  1195.48,1379.74 1197.67,1379.86 1199.86,1379.97 1202.04,1380.09 1204.23,1380.2 1206.42,1380.32 1208.61,1380.43 1210.8,1380.53 1212.98,1380.64 1215.17,1380.74 
  1217.36,1380.85 1219.55,1380.95 1221.73,1381.05 1223.92,1381.14 1226.11,1381.24 1228.3,1381.33 1230.48,1381.42 1232.67,1381.51 1234.86,1381.6 1237.05,1381.69 
  1239.23,1381.78 1241.42,1381.86 1243.61,1381.94 1245.8,1382.02 1247.99,1382.1 1250.17,1382.18 1252.36,1382.26 1254.55,1382.34 1256.74,1382.41 1258.92,1382.48 
  1261.11,1382.56 1263.3,1382.63 1265.49,1382.7 1267.67,1382.76 1269.86,1382.83 1272.05,1382.9 1274.24,1382.96 1276.43,1383.03 1278.61,1383.09 1280.8,1383.15 
  1282.99,1383.21 1285.18,1383.27 1287.36,1383.33 1289.55,1383.38 1291.74,1383.44 1293.93,1383.5 1296.11,1383.55 1298.3,1383.6 1300.49,1383.66 1302.68,1383.71 
  1304.86,1383.76 1307.05,1383.81 1309.24,1383.86 1311.43,1383.91 1313.62,1383.95 1315.8,1384 1317.99,1384.04 1320.18,1384.09 1322.37,1384.13 1324.55,1384.18 
  1326.74,1384.22 1328.93,1384.26 1331.12,1384.3 1333.3,1384.34 1335.49,1384.38 1337.68,1384.42 1339.87,1384.46 1342.05,1384.49 1344.24,1384.53 1346.43,1384.57 
  1348.62,1384.6 1350.81,1384.64 1352.99,1384.67 1355.18,1384.71 1357.37,1384.74 1359.56,1384.77 1361.74,1384.8 1363.93,1384.83 1366.12,1384.87 1368.31,1384.9 
  1370.49,1384.93 1372.68,1384.96 1374.87,1384.98 1377.06,1385.01 1379.25,1385.04 1381.43,1385.07 1383.62,1385.09 1385.81,1385.12 1388,1385.15 1390.18,1385.17 
  1392.37,1385.2 1394.56,1385.22 1396.75,1385.25 1398.93,1385.27 1401.12,1385.29 1403.31,1385.32 1405.5,1385.34 1407.68,1385.36 1409.87,1385.38 1412.06,1385.4 
  1414.25,1385.42 1416.44,1385.44 1418.62,1385.46 1420.81,1385.48 1423,1385.5 1425.19,1385.52 1427.37,1385.54 1429.56,1385.56 1431.75,1385.58 1433.94,1385.6 
  1436.12,1385.61 1438.31,1385.63 1440.5,1385.65 1442.69,1385.67 1444.88,1385.68 1447.06,1385.7 1449.25,1385.71 1451.44,1385.73 1453.63,1385.74 1455.81,1385.76 
  1458,1385.77 1460.19,1385.79 1462.38,1385.8 1464.56,1385.82 1466.75,1385.83 1468.94,1385.84 1471.13,1385.86 1473.31,1385.87 1475.5,1385.88 1477.69,1385.9 
  1479.88,1385.91 1482.07,1385.92 1484.25,1385.93 1486.44,1385.94 1488.63,1385.96 1490.82,1385.97 1493,1385.98 1495.19,1385.99 1497.38,1386 1499.57,1386.01 
  1501.75,1386.02 1503.94,1386.03 1506.13,1386.04 1508.32,1386.05 1510.51,1386.06 1512.69,1386.07 1514.88,1386.08 1517.07,1386.09 1519.26,1386.1 1521.44,1386.11 
  1523.63,1386.11 1525.82,1386.12 1528.01,1386.13 1530.19,1386.14 1532.38,1386.15 1534.57,1386.16 1536.76,1386.16 1538.94,1386.17 1541.13,1386.18 1543.32,1386.19 
  1545.51,1386.19 1547.7,1386.2 1549.88,1386.21 1552.07,1386.21 1554.26,1386.22 1556.45,1386.23 1558.63,1386.23 1560.82,1386.24 1563.01,1386.25 1565.2,1386.25 
  1567.38,1386.26 1569.57,1386.27 1571.76,1386.27 1573.95,1386.28 1576.14,1386.28 1578.32,1386.29 1580.51,1386.29 1582.7,1386.3 1584.89,1386.31 1587.07,1386.31 
  1589.26,1386.32 1591.45,1386.32 1593.64,1386.33 1595.82,1386.33 1598.01,1386.34 1600.2,1386.34 1602.39,1386.34 1604.57,1386.35 1606.76,1386.35 1608.95,1386.36 
  1611.14,1386.36 1613.33,1386.37 1615.51,1386.37 1617.7,1386.37 1619.89,1386.38 1622.08,1386.38 1624.26,1386.39 1626.45,1386.39 1628.64,1386.39 1630.83,1386.4 
  1633.01,1386.4 1635.2,1386.41 1637.39,1386.41 1639.58,1386.41 1641.76,1386.42 1643.95,1386.42 1646.14,1386.42 1648.33,1386.43 1650.52,1386.43 1652.7,1386.43 
  1654.89,1386.43 1657.08,1386.44 1659.27,1386.44 1661.45,1386.44 1663.64,1386.45 1665.83,1386.45 1668.02,1386.45 1670.2,1386.45 1672.39,1386.46 1674.58,1386.46 
  1676.77,1386.46 1678.96,1386.46 1681.14,1386.47 1683.33,1386.47 1685.52,1386.47 1687.71,1386.47 1689.89,1386.48 1692.08,1386.48 1694.27,1386.48 1696.46,1386.48 
  1698.64,1386.49 1700.83,1386.49 1703.02,1386.49 1705.21,1386.49 1707.39,1386.49 1709.58,1386.5 1711.77,1386.5 1713.96,1386.5 1716.15,1386.5 1718.33,1386.5 
  1720.52,1386.51 1722.71,1386.51 1724.9,1386.51 1727.08,1386.51 1729.27,1386.51 1731.46,1386.51 1733.65,1386.52 1735.83,1386.52 1738.02,1386.52 1740.21,1386.52 
  1742.4,1386.52 1744.59,1386.52 1746.77,1386.52 1748.96,1386.53 1751.15,1386.53 1753.34,1386.53 1755.52,1386.53 1757.71,1386.53 1759.9,1386.53 1762.09,1386.53 
  1764.27,1386.54 1766.46,1386.54 1768.65,1386.54 1770.84,1386.54 1773.02,1386.54 1775.21,1386.54 1777.4,1386.54 1779.59,1386.54 1781.78,1386.54 1783.96,1386.55 
  1786.15,1386.55 1788.34,1386.55 1790.53,1386.55 1792.71,1386.55 1794.9,1386.55 1797.09,1386.55 1799.28,1386.55 1801.46,1386.55 1803.65,1386.55 1805.84,1386.56 
  1808.03,1386.56 1810.22,1386.56 1812.4,1386.56 1814.59,1386.56 1816.78,1386.56 1818.97,1386.56 1821.15,1386.56 1823.34,1386.56 1825.53,1386.56 1827.72,1386.56 
  1829.9,1386.56 1832.09,1386.57 1834.28,1386.57 1836.47,1386.57 1838.65,1386.57 1840.84,1386.57 1843.03,1386.57 1845.22,1386.57 1847.41,1386.57 1849.59,1386.57 
  1851.78,1386.57 1853.97,1386.57 1856.16,1386.57 1858.34,1386.57 1860.53,1386.57 1862.72,1386.57 1864.91,1386.58 1867.09,1386.58 1869.28,1386.58 1871.47,1386.58 
  1873.66,1386.58 1875.85,1386.58 1878.03,1386.58 1880.22,1386.58 1882.41,1386.58 1884.6,1386.58 1886.78,1386.58 1888.97,1386.58 1891.16,1386.58 1893.35,1386.58 
  1895.53,1386.58 1897.72,1386.58 1899.91,1386.58 1902.1,1386.58 1904.28,1386.58 1906.47,1386.58 1908.66,1386.58 1910.85,1386.59 1913.04,1386.59 1915.22,1386.59 
  1917.41,1386.59 1919.6,1386.59 1921.79,1386.59 1923.97,1386.59 1926.16,1386.59 1928.35,1386.59 1930.54,1386.59 1932.72,1386.59 1934.91,1386.59 1937.1,1386.59 
  1939.29,1386.59 1941.47,1386.59 1943.66,1386.59 1945.85,1386.59 1948.04,1386.59 1950.23,1386.59 1952.41,1386.59 1954.6,1386.59 1956.79,1386.59 1958.98,1386.59 
  1961.16,1386.59 1963.35,1386.59 1965.54,1386.59 1967.73,1386.59 1969.91,1386.59 1972.1,1386.59 1974.29,1386.59 1976.48,1386.59 1978.67,1386.59 1980.85,1386.59 
  1983.04,1386.6 1985.23,1386.6 1987.42,1386.6 1989.6,1386.6 1991.79,1386.6 1993.98,1386.6 1996.17,1386.6 1998.35,1386.6 2000.54,1386.6 2002.73,1386.6 
  2004.92,1386.6 2007.1,1386.6 2009.29,1386.6 2011.48,1386.6 2013.67,1386.6 2015.86,1386.6 2018.04,1386.6 2020.23,1386.6 2022.42,1386.6 2024.61,1386.6 
  2026.79,1386.6 2028.98,1386.6 2031.17,1386.6 2033.36,1386.6 2035.54,1386.6 2037.73,1386.6 2039.92,1386.6 2042.11,1386.6 2044.3,1386.6 2046.48,1386.6 
  2048.67,1386.6 2050.86,1386.6 2053.05,1386.6 2055.23,1386.6 2057.42,1386.6 2059.61,1386.6 2061.8,1386.6 2063.98,1386.6 2066.17,1386.6 2068.36,1386.6 
  2070.55,1386.6 2072.73,1386.6 2074.92,1386.6 2077.11,1386.6 2079.3,1386.6 2081.49,1386.6 2083.67,1386.6 2085.86,1386.6 2088.05,1386.6 2090.24,1386.6 
  2092.42,1386.6 2094.61,1386.6 2096.8,1386.6 2098.99,1386.6 2101.17,1386.6 2103.36,1386.6 2105.55,1386.6 2107.74,1386.6 2109.93,1386.6 2112.11,1386.6 
  2114.3,1386.6 2116.49,1386.6 2118.68,1386.6 2120.86,1386.6 2123.05,1386.6 2125.24,1386.6 2127.43,1386.6 2129.61,1386.6 2131.8,1386.6 2133.99,1386.6 
  2136.18,1386.6 2138.36,1386.6 2140.55,1386.6 2142.74,1386.6 2144.93,1386.6 2147.12,1386.6 2149.3,1386.6 2151.49,1386.6 2153.68,1386.6 2155.87,1386.6 
  2158.05,1386.6 2160.24,1386.6 2162.43,1386.6 2164.62,1386.6 2166.8,1386.6 2168.99,1386.61 2171.18,1386.61 2173.37,1386.61 2175.56,1386.61 2177.74,1386.61 
  2179.93,1386.61 2182.12,1386.61 2184.31,1386.61 2186.49,1386.61 2188.68,1386.61 2190.87,1386.61 2193.06,1386.61 2195.24,1386.61 2197.43,1386.61 2199.62,1386.61 
  2201.81,1386.61 2203.99,1386.61 2206.18,1386.61 2208.37,1386.61 2210.56,1386.61 2212.75,1386.61 2214.93,1386.61 2217.12,1386.61 2219.31,1386.61 2221.5,1386.61 
  2223.68,1386.61 2225.87,1386.61 2228.06,1386.61 2230.25,1386.61 2232.43,1386.61 2234.62,1386.61 2236.81,1386.61 2239,1386.61 2241.19,1386.61 2243.37,1386.61 
  2245.56,1386.61 2247.75,1386.61 2249.94,1386.61 2252.12,1386.61 2254.31,1386.61 2256.5,1386.61 2258.69,1386.61 2260.87,1386.61 2263.06,1386.61 2265.25,1386.61 
  2267.44,1386.61 2269.62,1386.61 2271.81,1386.61 2274,1386.61 2276.19,1386.61 2278.38,1386.61 2280.56,1386.61 2282.75,1386.61 2284.94,1386.61 2287.13,1386.61 
  2289.31,1386.61 2291.5,1386.61 2293.69,1386.61 2295.88,1386.61 2298.06,1386.61 2300.25,1386.61 2302.44,1386.61 2304.63,1386.61 2306.81,1386.61 2309,1386.61 
  2311.19,1386.61 2313.38,1386.61 2315.57,1386.61 2317.75,1386.61 2319.94,1386.61 2322.13,1386.61 2324.32,1386.61 2326.5,1386.61 2328.69,1386.61 2330.88,1386.61 
  2333.07,1386.61 2335.25,1386.61 2337.44,1386.61 2339.63,1386.61 2341.82,1386.61 2344.01,1386.61 2346.19,1386.61 2348.38,1386.61 2350.57,1386.61 2352.76,1386.61 
  
  "/>
<polyline clip-path="url(#clip0202)" style="stroke:#3da44d; stroke-width:12; stroke-opacity:1; fill:none" points="
  167.279,1386.61 169.467,1386.38 171.654,1386.15 173.842,1385.94 176.03,1385.73 178.217,1385.52 180.405,1385.32 182.593,1385.13 184.78,1384.94 186.968,1384.75 
  189.156,1384.57 191.343,1384.39 193.531,1384.21 195.719,1384.03 197.906,1383.86 200.094,1383.68 202.282,1383.51 204.469,1383.34 206.657,1383.16 208.845,1382.99 
  211.032,1382.81 213.22,1382.64 215.408,1382.46 217.595,1382.28 219.783,1382.1 221.971,1381.92 224.158,1381.73 226.346,1381.54 228.534,1381.35 230.721,1381.16 
  232.909,1380.96 235.097,1380.76 237.284,1380.55 239.472,1380.34 241.66,1380.13 243.847,1379.91 246.035,1379.68 248.223,1379.45 250.41,1379.22 252.598,1378.98 
  254.786,1378.73 256.973,1378.48 259.161,1378.22 261.349,1377.95 263.536,1377.68 265.724,1377.4 267.912,1377.11 270.099,1376.81 272.287,1376.51 274.475,1376.2 
  276.662,1375.88 278.85,1375.55 281.038,1375.21 283.225,1374.87 285.413,1374.51 287.601,1374.14 289.788,1373.76 291.976,1373.38 294.164,1372.98 296.351,1372.57 
  298.539,1372.15 300.727,1371.71 302.914,1371.27 305.102,1370.81 307.29,1370.34 309.477,1369.86 311.665,1369.36 313.853,1368.85 316.04,1368.32 318.228,1367.78 
  320.416,1367.23 322.603,1366.66 324.791,1366.07 326.979,1365.47 329.166,1364.85 331.354,1364.21 333.542,1363.56 335.729,1362.89 337.917,1362.19 340.105,1361.48 
  342.292,1360.76 344.48,1360.01 346.668,1359.24 348.855,1358.45 351.043,1357.64 353.231,1356.8 355.418,1355.95 357.606,1355.07 359.794,1354.17 361.981,1353.24 
  364.169,1352.29 366.357,1351.32 368.544,1350.32 370.732,1349.29 372.92,1348.24 375.107,1347.16 377.295,1346.05 379.483,1344.92 381.67,1343.75 383.858,1342.56 
  386.046,1341.34 388.233,1340.08 390.421,1338.8 392.609,1337.48 394.796,1336.13 396.984,1334.75 399.172,1333.34 401.359,1331.89 403.547,1330.41 405.735,1328.89 
  407.922,1327.34 410.11,1325.75 412.298,1324.13 414.485,1322.47 416.673,1320.77 418.861,1319.04 421.048,1317.27 423.236,1315.46 425.424,1313.61 427.611,1311.72 
  429.799,1309.79 431.987,1307.82 434.174,1305.81 436.362,1303.76 438.55,1301.67 440.737,1299.53 442.925,1297.36 445.113,1295.14 447.3,1292.89 449.488,1290.59 
  451.676,1288.24 453.863,1285.86 456.051,1283.44 458.239,1280.97 460.426,1278.46 462.614,1275.91 464.802,1273.33 466.989,1270.7 469.177,1268.02 471.365,1265.31 
  473.552,1262.56 475.74,1259.78 477.927,1256.95 480.115,1254.08 482.303,1251.18 484.49,1248.24 486.678,1245.26 488.866,1242.25 491.053,1239.2 493.241,1236.12 
  495.429,1233.01 497.616,1229.86 499.804,1226.69 501.992,1223.49 504.179,1220.26 506.367,1217 508.555,1213.72 510.742,1210.42 512.93,1207.09 515.118,1203.75 
  517.305,1200.39 519.493,1197.01 521.681,1193.62 523.868,1190.21 526.056,1186.79 528.244,1183.37 530.431,1179.93 532.619,1176.49 534.807,1173.05 536.994,1169.61 
  539.182,1166.17 541.37,1162.73 543.557,1159.31 545.745,1155.88 547.933,1152.47 550.12,1149.08 552.308,1145.69 554.496,1142.33 556.683,1138.98 558.871,1135.66 
  561.059,1132.36 563.246,1129.08 565.434,1125.84 567.622,1122.62 569.809,1119.44 571.997,1116.29 574.185,1113.18 576.372,1110.11 578.56,1107.08 580.748,1104.09 
  582.935,1101.15 585.123,1098.26 587.311,1095.43 589.498,1092.64 591.686,1089.91 593.874,1087.24 596.061,1084.62 598.249,1082.06 600.437,1079.57 602.624,1077.13 
  604.812,1074.76 607,1072.45 609.187,1070.21 611.375,1068.03 613.563,1065.92 615.75,1063.87 617.938,1061.9 620.126,1059.99 622.313,1058.16 624.501,1056.4 
  626.689,1054.71 628.876,1053.09 631.064,1051.54 633.252,1050.07 635.439,1048.68 637.627,1047.36 639.815,1046.11 642.002,1044.95 644.19,1043.86 646.378,1042.84 
  648.565,1041.91 650.753,1041.05 652.941,1040.27 655.128,1039.57 657.316,1038.94 659.504,1038.39 661.691,1037.92 663.879,1037.51 666.067,1037.18 668.254,1036.92 
  670.442,1036.73 672.63,1036.61 674.817,1036.55 677.005,1036.57 679.193,1036.65 681.38,1036.8 683.568,1037.01 685.756,1037.29 687.943,1037.63 690.131,1038.03 
  692.319,1038.49 694.506,1039.01 696.694,1039.6 698.882,1040.24 701.069,1040.94 703.257,1041.7 705.445,1042.51 707.632,1043.38 709.82,1044.31 712.008,1045.28 
  714.195,1046.32 716.383,1047.4 718.571,1048.53 720.758,1049.7 722.946,1050.92 725.134,1052.19 727.321,1053.5 729.509,1054.85 731.697,1056.24 733.884,1057.68 
  736.072,1059.15 738.26,1060.65 740.447,1062.19 742.635,1063.77 744.823,1065.38 747.01,1067.02 749.198,1068.69 751.386,1070.39 753.573,1072.13 755.761,1073.88 
  757.949,1075.67 760.136,1077.48 762.324,1079.32 764.512,1081.18 766.699,1083.06 768.887,1084.96 771.075,1086.89 773.262,1088.83 775.45,1090.8 777.638,1092.78 
  779.825,1094.78 782.013,1096.79 784.201,1098.82 786.388,1100.86 788.576,1102.91 790.764,1104.98 792.951,1107.06 795.139,1109.14 797.326,1111.24 799.514,1113.35 
  801.702,1115.46 803.889,1117.58 806.077,1119.71 808.265,1121.84 810.452,1123.98 812.64,1126.12 814.828,1128.26 817.015,1130.41 819.203,1132.56 821.391,1134.71 
  823.578,1136.86 825.766,1139.02 827.954,1141.17 830.141,1143.32 832.329,1145.47 834.517,1147.62 836.704,1149.77 838.892,1151.91 841.08,1154.05 843.267,1156.19 
  845.455,1158.32 847.643,1160.44 849.83,1162.57 852.018,1164.68 854.206,1166.79 856.393,1168.9 858.581,1170.99 860.769,1173.08 862.956,1175.17 865.144,1177.24 
  867.332,1179.31 869.519,1181.37 871.707,1183.42 873.895,1185.46 876.082,1187.49 878.27,1189.51 880.458,1191.52 882.645,1193.52 884.833,1195.52 887.021,1197.5 
  889.208,1199.47 891.396,1201.43 893.584,1203.37 895.771,1205.31 897.959,1207.24 900.147,1209.15 902.334,1211.05 904.522,1212.94 906.71,1214.82 908.897,1216.68 
  911.085,1218.53 913.273,1220.37 915.46,1222.19 917.648,1224.01 919.836,1225.81 922.023,1227.59 924.211,1229.36 926.399,1231.12 928.586,1232.87 930.774,1234.61 
  932.962,1236.33 935.149,1238.03 937.337,1239.73 939.525,1241.41 941.712,1243.07 943.9,1244.73 946.088,1246.37 948.275,1247.99 950.463,1249.61 952.651,1251.2 
  954.838,1252.79 957.026,1254.36 959.214,1255.92 961.401,1257.46 963.589,1259 965.777,1260.51 967.964,1262.02 970.152,1263.51 972.34,1264.98 974.527,1266.45 
  976.715,1267.89 978.903,1269.33 981.09,1270.75 983.278,1272.16 985.466,1273.55 987.653,1274.93 989.841,1276.3 992.029,1277.65 994.216,1278.99 996.404,1280.32 
  998.592,1281.63 1000.78,1282.93 1002.97,1284.22 1005.15,1285.49 1007.34,1286.75 1009.53,1288 1011.72,1289.23 1013.91,1290.45 1016.09,1291.66 1018.28,1292.86 
  1020.47,1294.04 1022.66,1295.21 1024.84,1296.37 1027.03,1297.52 1029.22,1298.65 1031.41,1299.78 1033.59,1300.89 1035.78,1301.98 1037.97,1303.07 1040.16,1304.15 
  1042.34,1305.21 1044.53,1306.26 1046.72,1307.3 1048.91,1308.33 1051.1,1309.34 1053.28,1310.35 1055.47,1311.34 1057.66,1312.32 1059.85,1313.29 1062.03,1314.26 
  1064.22,1315.2 1066.41,1316.14 1068.6,1317.07 1070.78,1317.99 1072.97,1318.89 1075.16,1319.79 1077.35,1320.67 1079.54,1321.55 1081.72,1322.41 1083.91,1323.26 
  1086.1,1324.11 1088.29,1324.94 1090.47,1325.77 1092.66,1326.58 1094.85,1327.38 1097.04,1328.18 1099.22,1328.96 1101.41,1329.74 1103.6,1330.5 1105.79,1331.26 
  1107.97,1332.01 1110.16,1332.75 1112.35,1333.48 1114.54,1334.2 1116.73,1334.91 1118.91,1335.61 1121.1,1336.31 1123.29,1336.99 1125.48,1337.67 1127.66,1338.34 
  1129.85,1339 1132.04,1339.66 1134.23,1340.3 1136.41,1340.94 1138.6,1341.56 1140.79,1342.19 1142.98,1342.8 1145.17,1343.4 1147.35,1344 1149.54,1344.59 
  1151.73,1345.17 1153.92,1345.75 1156.1,1346.32 1158.29,1346.88 1160.48,1347.43 1162.67,1347.98 1164.85,1348.51 1167.04,1349.05 1169.23,1349.57 1171.42,1350.09 
  1173.6,1350.6 1175.79,1351.11 1177.98,1351.6 1180.17,1352.09 1182.36,1352.58 1184.54,1353.06 1186.73,1353.53 1188.92,1354 1191.11,1354.46 1193.29,1354.91 
  1195.48,1355.36 1197.67,1355.8 1199.86,1356.24 1202.04,1356.67 1204.23,1357.09 1206.42,1357.51 1208.61,1357.93 1210.8,1358.34 1212.98,1358.74 1215.17,1359.14 
  1217.36,1359.53 1219.55,1359.91 1221.73,1360.3 1223.92,1360.67 1226.11,1361.04 1228.3,1361.41 1230.48,1361.77 1232.67,1362.13 1234.86,1362.48 1237.05,1362.83 
  1239.23,1363.17 1241.42,1363.51 1243.61,1363.84 1245.8,1364.17 1247.99,1364.49 1250.17,1364.81 1252.36,1365.13 1254.55,1365.44 1256.74,1365.75 1258.92,1366.05 
  1261.11,1366.35 1263.3,1366.64 1265.49,1366.93 1267.67,1367.22 1269.86,1367.5 1272.05,1367.78 1274.24,1368.05 1276.43,1368.32 1278.61,1368.59 1280.8,1368.85 
  1282.99,1369.11 1285.18,1369.37 1287.36,1369.62 1289.55,1369.87 1291.74,1370.11 1293.93,1370.35 1296.11,1370.59 1298.3,1370.83 1300.49,1371.06 1302.68,1371.29 
  1304.86,1371.51 1307.05,1371.74 1309.24,1371.95 1311.43,1372.17 1313.62,1372.38 1315.8,1372.59 1317.99,1372.8 1320.18,1373 1322.37,1373.2 1324.55,1373.4 
  1326.74,1373.6 1328.93,1373.79 1331.12,1373.98 1333.3,1374.17 1335.49,1374.35 1337.68,1374.53 1339.87,1374.71 1342.05,1374.89 1344.24,1375.06 1346.43,1375.24 
  1348.62,1375.41 1350.81,1375.57 1352.99,1375.74 1355.18,1375.9 1357.37,1376.06 1359.56,1376.22 1361.74,1376.37 1363.93,1376.52 1366.12,1376.68 1368.31,1376.82 
  1370.49,1376.97 1372.68,1377.11 1374.87,1377.26 1377.06,1377.4 1379.25,1377.53 1381.43,1377.67 1383.62,1377.81 1385.81,1377.94 1388,1378.07 1390.18,1378.2 
  1392.37,1378.32 1394.56,1378.45 1396.75,1378.57 1398.93,1378.69 1401.12,1378.81 1403.31,1378.93 1405.5,1379.04 1407.68,1379.16 1409.87,1379.27 1412.06,1379.38 
  1414.25,1379.49 1416.44,1379.6 1418.62,1379.7 1420.81,1379.81 1423,1379.91 1425.19,1380.01 1427.37,1380.11 1429.56,1380.21 1431.75,1380.31 1433.94,1380.4 
  1436.12,1380.5 1438.31,1380.59 1440.5,1380.68 1442.69,1380.77 1444.88,1380.86 1447.06,1380.95 1449.25,1381.03 1451.44,1381.12 1453.63,1381.2 1455.81,1381.29 
  1458,1381.37 1460.19,1381.45 1462.38,1381.52 1464.56,1381.6 1466.75,1381.68 1468.94,1381.75 1471.13,1381.83 1473.31,1381.9 1475.5,1381.97 1477.69,1382.04 
  1479.88,1382.11 1482.07,1382.18 1484.25,1382.25 1486.44,1382.32 1488.63,1382.38 1490.82,1382.45 1493,1382.51 1495.19,1382.57 1497.38,1382.64 1499.57,1382.7 
  1501.75,1382.76 1503.94,1382.82 1506.13,1382.88 1508.32,1382.93 1510.51,1382.99 1512.69,1383.04 1514.88,1383.1 1517.07,1383.15 1519.26,1383.21 1521.44,1383.26 
  1523.63,1383.31 1525.82,1383.36 1528.01,1383.41 1530.19,1383.46 1532.38,1383.51 1534.57,1383.56 1536.76,1383.6 1538.94,1383.65 1541.13,1383.7 1543.32,1383.74 
  1545.51,1383.79 1547.7,1383.83 1549.88,1383.87 1552.07,1383.91 1554.26,1383.96 1556.45,1384 1558.63,1384.04 1560.82,1384.08 1563.01,1384.12 1565.2,1384.16 
  1567.38,1384.19 1569.57,1384.23 1571.76,1384.27 1573.95,1384.3 1576.14,1384.34 1578.32,1384.38 1580.51,1384.41 1582.7,1384.44 1584.89,1384.48 1587.07,1384.51 
  1589.26,1384.54 1591.45,1384.58 1593.64,1384.61 1595.82,1384.64 1598.01,1384.67 1600.2,1384.7 1602.39,1384.73 1604.57,1384.76 1606.76,1384.79 1608.95,1384.82 
  1611.14,1384.84 1613.33,1384.87 1615.51,1384.9 1617.7,1384.93 1619.89,1384.95 1622.08,1384.98 1624.26,1385 1626.45,1385.03 1628.64,1385.05 1630.83,1385.08 
  1633.01,1385.1 1635.2,1385.12 1637.39,1385.15 1639.58,1385.17 1641.76,1385.19 1643.95,1385.22 1646.14,1385.24 1648.33,1385.26 1650.52,1385.28 1652.7,1385.3 
  1654.89,1385.32 1657.08,1385.34 1659.27,1385.36 1661.45,1385.38 1663.64,1385.4 1665.83,1385.42 1668.02,1385.44 1670.2,1385.46 1672.39,1385.47 1674.58,1385.49 
  1676.77,1385.51 1678.96,1385.53 1681.14,1385.54 1683.33,1385.56 1685.52,1385.58 1687.71,1385.59 1689.89,1385.61 1692.08,1385.62 1694.27,1385.64 1696.46,1385.66 
  1698.64,1385.67 1700.83,1385.69 1703.02,1385.7 1705.21,1385.71 1707.39,1385.73 1709.58,1385.74 1711.77,1385.76 1713.96,1385.77 1716.15,1385.78 1718.33,1385.8 
  1720.52,1385.81 1722.71,1385.82 1724.9,1385.83 1727.08,1385.85 1729.27,1385.86 1731.46,1385.87 1733.65,1385.88 1735.83,1385.89 1738.02,1385.9 1740.21,1385.92 
  1742.4,1385.93 1744.59,1385.94 1746.77,1385.95 1748.96,1385.96 1751.15,1385.97 1753.34,1385.98 1755.52,1385.99 1757.71,1386 1759.9,1386.01 1762.09,1386.02 
  1764.27,1386.03 1766.46,1386.04 1768.65,1386.04 1770.84,1386.05 1773.02,1386.06 1775.21,1386.07 1777.4,1386.08 1779.59,1386.09 1781.78,1386.1 1783.96,1386.1 
  1786.15,1386.11 1788.34,1386.12 1790.53,1386.13 1792.71,1386.14 1794.9,1386.14 1797.09,1386.15 1799.28,1386.16 1801.46,1386.17 1803.65,1386.17 1805.84,1386.18 
  1808.03,1386.19 1810.22,1386.19 1812.4,1386.2 1814.59,1386.21 1816.78,1386.21 1818.97,1386.22 1821.15,1386.22 1823.34,1386.23 1825.53,1386.24 1827.72,1386.24 
  1829.9,1386.25 1832.09,1386.25 1834.28,1386.26 1836.47,1386.27 1838.65,1386.27 1840.84,1386.28 1843.03,1386.28 1845.22,1386.29 1847.41,1386.29 1849.59,1386.3 
  1851.78,1386.3 1853.97,1386.31 1856.16,1386.31 1858.34,1386.32 1860.53,1386.32 1862.72,1386.33 1864.91,1386.33 1867.09,1386.33 1869.28,1386.34 1871.47,1386.34 
  1873.66,1386.35 1875.85,1386.35 1878.03,1386.36 1880.22,1386.36 1882.41,1386.36 1884.6,1386.37 1886.78,1386.37 1888.97,1386.38 1891.16,1386.38 1893.35,1386.38 
  1895.53,1386.39 1897.72,1386.39 1899.91,1386.39 1902.1,1386.4 1904.28,1386.4 1906.47,1386.4 1908.66,1386.41 1910.85,1386.41 1913.04,1386.41 1915.22,1386.42 
  1917.41,1386.42 1919.6,1386.42 1921.79,1386.43 1923.97,1386.43 1926.16,1386.43 1928.35,1386.43 1930.54,1386.44 1932.72,1386.44 1934.91,1386.44 1937.1,1386.44 
  1939.29,1386.45 1941.47,1386.45 1943.66,1386.45 1945.85,1386.46 1948.04,1386.46 1950.23,1386.46 1952.41,1386.46 1954.6,1386.46 1956.79,1386.47 1958.98,1386.47 
  1961.16,1386.47 1963.35,1386.47 1965.54,1386.48 1967.73,1386.48 1969.91,1386.48 1972.1,1386.48 1974.29,1386.48 1976.48,1386.49 1978.67,1386.49 1980.85,1386.49 
  1983.04,1386.49 1985.23,1386.49 1987.42,1386.5 1989.6,1386.5 1991.79,1386.5 1993.98,1386.5 1996.17,1386.5 1998.35,1386.5 2000.54,1386.51 2002.73,1386.51 
  2004.92,1386.51 2007.1,1386.51 2009.29,1386.51 2011.48,1386.51 2013.67,1386.52 2015.86,1386.52 2018.04,1386.52 2020.23,1386.52 2022.42,1386.52 2024.61,1386.52 
  2026.79,1386.52 2028.98,1386.53 2031.17,1386.53 2033.36,1386.53 2035.54,1386.53 2037.73,1386.53 2039.92,1386.53 2042.11,1386.53 2044.3,1386.53 2046.48,1386.54 
  2048.67,1386.54 2050.86,1386.54 2053.05,1386.54 2055.23,1386.54 2057.42,1386.54 2059.61,1386.54 2061.8,1386.54 2063.98,1386.54 2066.17,1386.55 2068.36,1386.55 
  2070.55,1386.55 2072.73,1386.55 2074.92,1386.55 2077.11,1386.55 2079.3,1386.55 2081.49,1386.55 2083.67,1386.55 2085.86,1386.55 2088.05,1386.55 2090.24,1386.56 
  2092.42,1386.56 2094.61,1386.56 2096.8,1386.56 2098.99,1386.56 2101.17,1386.56 2103.36,1386.56 2105.55,1386.56 2107.74,1386.56 2109.93,1386.56 2112.11,1386.56 
  2114.3,1386.56 2116.49,1386.57 2118.68,1386.57 2120.86,1386.57 2123.05,1386.57 2125.24,1386.57 2127.43,1386.57 2129.61,1386.57 2131.8,1386.57 2133.99,1386.57 
  2136.18,1386.57 2138.36,1386.57 2140.55,1386.57 2142.74,1386.57 2144.93,1386.57 2147.12,1386.57 2149.3,1386.57 2151.49,1386.57 2153.68,1386.58 2155.87,1386.58 
  2158.05,1386.58 2160.24,1386.58 2162.43,1386.58 2164.62,1386.58 2166.8,1386.58 2168.99,1386.58 2171.18,1386.58 2173.37,1386.58 2175.56,1386.58 2177.74,1386.58 
  2179.93,1386.58 2182.12,1386.58 2184.31,1386.58 2186.49,1386.58 2188.68,1386.58 2190.87,1386.58 2193.06,1386.58 2195.24,1386.58 2197.43,1386.58 2199.62,1386.58 
  2201.81,1386.59 2203.99,1386.59 2206.18,1386.59 2208.37,1386.59 2210.56,1386.59 2212.75,1386.59 2214.93,1386.59 2217.12,1386.59 2219.31,1386.59 2221.5,1386.59 
  2223.68,1386.59 2225.87,1386.59 2228.06,1386.59 2230.25,1386.59 2232.43,1386.59 2234.62,1386.59 2236.81,1386.59 2239,1386.59 2241.19,1386.59 2243.37,1386.59 
  2245.56,1386.59 2247.75,1386.59 2249.94,1386.59 2252.12,1386.59 2254.31,1386.59 2256.5,1386.59 2258.69,1386.59 2260.87,1386.59 2263.06,1386.59 2265.25,1386.59 
  2267.44,1386.59 2269.62,1386.59 2271.81,1386.59 2274,1386.59 2276.19,1386.6 2278.38,1386.6 2280.56,1386.6 2282.75,1386.6 2284.94,1386.6 2287.13,1386.6 
  2289.31,1386.6 2291.5,1386.6 2293.69,1386.6 2295.88,1386.6 2298.06,1386.6 2300.25,1386.6 2302.44,1386.6 2304.63,1386.6 2306.81,1386.6 2309,1386.6 
  2311.19,1386.6 2313.38,1386.6 2315.57,1386.6 2317.75,1386.6 2319.94,1386.6 2322.13,1386.6 2324.32,1386.6 2326.5,1386.6 2328.69,1386.6 2330.88,1386.6 
  2333.07,1386.6 2335.25,1386.6 2337.44,1386.6 2339.63,1386.6 2341.82,1386.6 2344.01,1386.6 2346.19,1386.6 2348.38,1386.6 2350.57,1386.6 2352.76,1386.6 
  
  "/>
<polyline clip-path="url(#clip0202)" style="stroke:#c271d2; stroke-width:12; stroke-opacity:1; fill:none" points="
  167.279,1386.61 169.467,1386.61 171.654,1386.6 173.842,1386.59 176.03,1386.58 178.217,1386.56 180.405,1386.54 182.593,1386.51 184.78,1386.48 186.968,1386.45 
  189.156,1386.41 191.343,1386.37 193.531,1386.33 195.719,1386.29 197.906,1386.24 200.094,1386.19 202.282,1386.13 204.469,1386.07 206.657,1386.01 208.845,1385.95 
  211.032,1385.88 213.22,1385.81 215.408,1385.74 217.595,1385.66 219.783,1385.58 221.971,1385.49 224.158,1385.41 226.346,1385.31 228.534,1385.22 230.721,1385.12 
  232.909,1385.02 235.097,1384.92 237.284,1384.81 239.472,1384.69 241.66,1384.58 243.847,1384.46 246.035,1384.33 248.223,1384.21 250.41,1384.07 252.598,1383.93 
  254.786,1383.79 256.973,1383.65 259.161,1383.5 261.349,1383.34 263.536,1383.18 265.724,1383.01 267.912,1382.84 270.099,1382.67 272.287,1382.49 274.475,1382.3 
  276.662,1382.11 278.85,1381.91 281.038,1381.7 283.225,1381.49 285.413,1381.27 287.601,1381.05 289.788,1380.82 291.976,1380.58 294.164,1380.33 296.351,1380.08 
  298.539,1379.82 300.727,1379.55 302.914,1379.28 305.102,1378.99 307.29,1378.7 309.477,1378.4 311.665,1378.09 313.853,1377.77 316.04,1377.44 318.228,1377.1 
  320.416,1376.75 322.603,1376.39 324.791,1376.02 326.979,1375.64 329.166,1375.25 331.354,1374.84 333.542,1374.43 335.729,1374 337.917,1373.56 340.105,1373.11 
  342.292,1372.64 344.48,1372.17 346.668,1371.67 348.855,1371.17 351.043,1370.64 353.231,1370.11 355.418,1369.55 357.606,1368.99 359.794,1368.4 361.981,1367.8 
  364.169,1367.18 366.357,1366.55 368.544,1365.89 370.732,1365.22 372.92,1364.53 375.107,1363.82 377.295,1363.09 379.483,1362.34 381.67,1361.56 383.858,1360.77 
  386.046,1359.95 388.233,1359.12 390.421,1358.25 392.609,1357.37 394.796,1356.46 396.984,1355.53 399.172,1354.56 401.359,1353.58 403.547,1352.57 405.735,1351.53 
  407.922,1350.46 410.11,1349.36 412.298,1348.23 414.485,1347.08 416.673,1345.89 418.861,1344.67 421.048,1343.42 423.236,1342.14 425.424,1340.82 427.611,1339.47 
  429.799,1338.08 431.987,1336.66 434.174,1335.2 436.362,1333.71 438.55,1332.18 440.737,1330.61 442.925,1328.99 445.113,1327.34 447.3,1325.65 449.488,1323.92 
  451.676,1322.14 453.863,1320.33 456.051,1318.46 458.239,1316.56 460.426,1314.6 462.614,1312.61 464.802,1310.56 466.989,1308.47 469.177,1306.33 471.365,1304.13 
  473.552,1301.89 475.74,1299.6 477.927,1297.26 480.115,1294.86 482.303,1292.42 484.49,1289.91 486.678,1287.36 488.866,1284.75 491.053,1282.08 493.241,1279.36 
  495.429,1276.58 497.616,1273.75 499.804,1270.86 501.992,1267.91 504.179,1264.9 506.367,1261.83 508.555,1258.7 510.742,1255.51 512.93,1252.27 515.118,1248.96 
  517.305,1245.59 519.493,1242.15 521.681,1238.66 523.868,1235.1 526.056,1231.48 528.244,1227.8 530.431,1224.05 532.619,1220.25 534.807,1216.38 536.994,1212.44 
  539.182,1208.45 541.37,1204.39 543.557,1200.27 545.745,1196.08 547.933,1191.84 550.12,1187.53 552.308,1183.16 554.496,1178.72 556.683,1174.23 558.871,1169.68 
  561.059,1165.06 563.246,1160.39 565.434,1155.66 567.622,1150.86 569.809,1146.01 571.997,1141.1 574.185,1136.14 576.372,1131.11 578.56,1126.04 580.748,1120.9 
  582.935,1115.72 585.123,1110.47 587.311,1105.18 589.498,1099.83 591.686,1094.43 593.874,1088.98 596.061,1083.49 598.249,1077.94 600.437,1072.35 602.624,1066.72 
  604.812,1061.04 607,1055.31 609.187,1049.55 611.375,1043.75 613.563,1037.91 615.75,1032.03 617.938,1026.12 620.126,1020.17 622.313,1014.19 624.501,1008.17 
  626.689,1002.13 628.876,996.053 631.064,989.95 633.252,983.82 635.439,977.663 637.627,971.482 639.815,965.277 642.002,959.05 644.19,952.802 646.378,946.534 
  648.565,940.246 650.753,933.942 652.941,927.621 655.128,921.286 657.316,914.938 659.504,908.578 661.691,902.21 663.879,895.833 666.067,889.449 668.254,883.06 
  670.442,876.667 672.63,870.272 674.817,863.875 677.005,857.479 679.193,851.085 681.38,844.692 683.568,838.304 685.756,831.921 687.943,825.544 690.131,819.174 
  692.319,812.813 694.506,806.461 696.694,800.12 698.882,793.789 701.069,787.471 703.257,781.167 705.445,774.876 707.632,768.6 709.82,762.339 712.008,756.095 
  714.195,749.869 716.383,743.662 718.571,737.475 720.758,731.309 722.946,725.164 725.134,719.043 727.321,712.945 729.509,706.871 731.697,700.822 733.884,694.799 
  736.072,688.803 738.26,682.834 740.447,676.893 742.635,670.981 744.823,665.098 747.01,659.245 749.198,653.422 751.386,647.63 753.573,641.87 755.761,636.142 
  757.949,630.446 760.136,624.783 762.324,619.154 764.512,613.558 766.699,607.996 768.887,602.468 771.075,596.976 773.262,591.518 775.45,586.096 777.638,580.711 
  779.825,575.361 782.013,570.048 784.201,564.773 786.388,559.534 788.576,554.333 790.764,549.169 792.951,544.043 795.139,538.955 797.326,533.905 799.514,528.894 
  801.702,523.921 803.889,518.987 806.077,514.092 808.265,509.235 810.452,504.418 812.64,499.639 814.828,494.9 817.015,490.2 819.203,485.54 821.391,480.918 
  823.578,476.336 825.766,471.793 827.954,467.29 830.141,462.826 832.329,458.401 834.517,454.016 836.704,449.67 838.892,445.363 841.08,441.095 843.267,436.867 
  845.455,432.677 847.643,428.527 849.83,424.415 852.018,420.342 854.206,416.307 856.393,412.311 858.581,408.354 860.769,404.434 862.956,400.553 865.144,396.709 
  867.332,392.903 869.519,389.135 871.707,385.404 873.895,381.711 876.082,378.054 878.27,374.435 880.458,370.852 882.645,367.306 884.833,363.797 887.021,360.323 
  889.208,356.886 891.396,353.485 893.584,350.119 895.771,346.789 897.959,343.495 900.147,340.235 902.334,337.011 904.522,333.821 906.71,330.665 908.897,327.544 
  911.085,324.457 913.273,321.404 915.46,318.385 917.648,315.399 919.836,312.446 922.023,309.525 924.211,306.638 926.399,303.782 928.586,300.959 930.774,298.167 
  932.962,295.406 935.149,292.677 937.337,289.979 939.525,287.312 941.712,284.675 943.9,282.068 946.088,279.491 948.275,276.944 950.463,274.427 952.651,271.938 
  954.838,269.479 957.026,267.048 959.214,264.646 961.401,262.272 963.589,259.926 965.777,257.608 967.964,255.317 970.152,253.054 972.34,250.818 974.527,248.608 
  976.715,246.426 978.903,244.269 981.09,242.139 983.278,240.034 985.466,237.956 987.653,235.903 989.841,233.875 992.029,231.872 994.216,229.894 996.404,227.94 
  998.592,226.01 1000.78,224.105 1002.97,222.223 1005.15,220.364 1007.34,218.529 1009.53,216.716 1011.72,214.926 1013.91,213.159 1016.09,211.414 1018.28,209.69 
  1020.47,207.989 1022.66,206.309 1024.84,204.65 1027.03,203.012 1029.22,201.395 1031.41,199.799 1033.59,198.223 1035.78,196.667 1037.97,195.131 1040.16,193.615 
  1042.34,192.118 1044.53,190.64 1046.72,189.182 1048.91,187.742 1051.1,186.321 1053.28,184.918 1055.47,183.534 1057.66,182.168 1059.85,180.819 1062.03,179.488 
  1064.22,178.175 1066.41,176.879 1068.6,175.6 1070.78,174.337 1072.97,173.092 1075.16,171.863 1077.35,170.65 1079.54,169.454 1081.72,168.273 1083.91,167.108 
  1086.1,165.959 1088.29,164.825 1090.47,163.706 1092.66,162.602 1094.85,161.513 1097.04,160.439 1099.22,159.379 1101.41,158.333 1103.6,157.301 1105.79,156.283 
  1107.97,155.279 1110.16,154.289 1112.35,153.312 1114.54,152.348 1116.73,151.397 1118.91,150.459 1121.1,149.534 1123.29,148.621 1125.48,147.721 1127.66,146.833 
  1129.85,145.958 1132.04,145.094 1134.23,144.242 1136.41,143.402 1138.6,142.573 1140.79,141.756 1142.98,140.95 1145.17,140.155 1147.35,139.371 1149.54,138.598 
  1151.73,137.835 1153.92,137.083 1156.1,136.342 1158.29,135.611 1160.48,134.89 1162.67,134.179 1164.85,133.478 1167.04,132.787 1169.23,132.105 1171.42,131.434 
  1173.6,130.771 1175.79,130.118 1177.98,129.474 1180.17,128.839 1182.36,128.213 1184.54,127.596 1186.73,126.987 1188.92,126.387 1191.11,125.796 1193.29,125.213 
  1195.48,124.638 1197.67,124.071 1199.86,123.512 1202.04,122.961 1204.23,122.418 1206.42,121.883 1208.61,121.355 1210.8,120.835 1212.98,120.322 1215.17,119.817 
  1217.36,119.319 1219.55,118.828 1221.73,118.343 1223.92,117.866 1226.11,117.396 1228.3,116.932 1230.48,116.475 1232.67,116.025 1234.86,115.581 1237.05,115.143 
  1239.23,114.712 1241.42,114.287 1243.61,113.868 1245.8,113.455 1247.99,113.048 1250.17,112.647 1252.36,112.251 1254.55,111.862 1256.74,111.478 1258.92,111.099 
  1261.11,110.727 1263.3,110.359 1265.49,109.997 1267.67,109.64 1269.86,109.288 1272.05,108.942 1274.24,108.6 1276.43,108.264 1278.61,107.932 1280.8,107.605 
  1282.99,107.283 1285.18,106.966 1287.36,106.653 1289.55,106.345 1291.74,106.042 1293.93,105.742 1296.11,105.448 1298.3,105.157 1300.49,104.871 1302.68,104.589 
  1304.86,104.311 1307.05,104.038 1309.24,103.768 1311.43,103.502 1313.62,103.24 1315.8,102.983 1317.99,102.728 1320.18,102.478 1322.37,102.231 1324.55,101.988 
  1326.74,101.749 1328.93,101.513 1331.12,101.281 1333.3,101.052 1335.49,100.826 1337.68,100.604 1339.87,100.385 1342.05,100.169 1344.24,99.957 1346.43,99.7477 
  1348.62,99.5415 1350.81,99.3384 1352.99,99.1383 1355.18,98.9412 1357.37,98.747 1359.56,98.5557 1361.74,98.3673 1363.93,98.1817 1366.12,97.9989 1368.31,97.8188 
  1370.49,97.6413 1372.68,97.4666 1374.87,97.2944 1377.06,97.1248 1379.25,96.9578 1381.43,96.7932 1383.62,96.6312 1385.81,96.4715 1388,96.3143 1390.18,96.1594 
  1392.37,96.0069 1394.56,95.8567 1396.75,95.7087 1398.93,95.5629 1401.12,95.4194 1403.31,95.278 1405.5,95.1388 1407.68,95.0016 1409.87,94.8666 1412.06,94.7336 
  1414.25,94.6025 1416.44,94.4735 1418.62,94.3464 1420.81,94.2213 1423,94.098 1425.19,93.9767 1427.37,93.8571 1429.56,93.7394 1431.75,93.6234 1433.94,93.5092 
  1436.12,93.3968 1438.31,93.286 1440.5,93.177 1442.69,93.0696 1444.88,92.9638 1447.06,92.8596 1449.25,92.757 1451.44,92.656 1453.63,92.5565 1455.81,92.4585 
  1458,92.362 1460.19,92.267 1462.38,92.1734 1464.56,92.0813 1466.75,91.9906 1468.94,91.9012 1471.13,91.8132 1473.31,91.7265 1475.5,91.6412 1477.69,91.5571 
  1479.88,91.4744 1482.07,91.3929 1484.25,91.3126 1486.44,91.2336 1488.63,91.1558 1490.82,91.0792 1493,91.0038 1495.19,90.9295 1497.38,90.8564 1499.57,90.7844 
  1501.75,90.7135 1503.94,90.6437 1506.13,90.5749 1508.32,90.5073 1510.51,90.4406 1512.69,90.375 1514.88,90.3104 1517.07,90.2468 1519.26,90.1842 1521.44,90.1226 
  1523.63,90.0619 1525.82,90.0021 1528.01,89.9433 1530.19,89.8854 1532.38,89.8283 1534.57,89.7722 1536.76,89.7169 1538.94,89.6625 1541.13,89.6089 1543.32,89.5562 
  1545.51,89.5042 1547.7,89.4531 1549.88,89.4027 1552.07,89.3531 1554.26,89.3043 1556.45,89.2563 1558.63,89.209 1560.82,89.1624 1563.01,89.1165 1565.2,89.0714 
  1567.38,89.0269 1569.57,88.9832 1571.76,88.9401 1573.95,88.8977 1576.14,88.8559 1578.32,88.8148 1580.51,88.7743 1582.7,88.7344 1584.89,88.6952 1587.07,88.6566 
  1589.26,88.6185 1591.45,88.5811 1593.64,88.5443 1595.82,88.508 1598.01,88.4723 1600.2,88.4371 1602.39,88.4025 1604.57,88.3684 1606.76,88.3349 1608.95,88.3019 
  1611.14,88.2694 1613.33,88.2374 1615.51,88.206 1617.7,88.175 1619.89,88.1445 1622.08,88.1144 1624.26,88.0849 1626.45,88.0558 1628.64,88.0272 1630.83,87.999 
  1633.01,87.9712 1635.2,87.9439 1637.39,87.9171 1639.58,87.8906 1641.76,87.8646 1643.95,87.8389 1646.14,87.8137 1648.33,87.7888 1650.52,87.7644 1652.7,87.7403 
  1654.89,87.7166 1657.08,87.6933 1659.27,87.6704 1661.45,87.6478 1663.64,87.6255 1665.83,87.6036 1668.02,87.5821 1670.2,87.5609 1672.39,87.54 1674.58,87.5194 
  1676.77,87.4992 1678.96,87.4793 1681.14,87.4596 1683.33,87.4403 1685.52,87.4213 1687.71,87.4026 1689.89,87.3842 1692.08,87.3661 1694.27,87.3483 1696.46,87.3307 
  1698.64,87.3135 1700.83,87.2965 1703.02,87.2797 1705.21,87.2633 1707.39,87.2471 1709.58,87.2311 1711.77,87.2154 1713.96,87.2 1716.15,87.1847 1718.33,87.1698 
  1720.52,87.1551 1722.71,87.1406 1724.9,87.1263 1727.08,87.1123 1729.27,87.0985 1731.46,87.0849 1733.65,87.0715 1735.83,87.0583 1738.02,87.0453 1740.21,87.0326 
  1742.4,87.02 1744.59,87.0077 1746.77,86.9955 1748.96,86.9836 1751.15,86.9718 1753.34,86.9602 1755.52,86.9488 1757.71,86.9376 1759.9,86.9265 1762.09,86.9157 
  1764.27,86.905 1766.46,86.8944 1768.65,86.8841 1770.84,86.8739 1773.02,86.8638 1775.21,86.854 1777.4,86.8442 1779.59,86.8347 1781.78,86.8252 1783.96,86.816 
  1786.15,86.8068 1788.34,86.7978 1790.53,86.789 1792.71,86.7803 1794.9,86.7717 1797.09,86.7633 1799.28,86.755 1801.46,86.7469 1803.65,86.7388 1805.84,86.7309 
  1808.03,86.7232 1810.22,86.7155 1812.4,86.708 1814.59,86.7006 1816.78,86.6933 1818.97,86.6861 1821.15,86.679 1823.34,86.6721 1825.53,86.6653 1827.72,86.6585 
  1829.9,86.6519 1832.09,86.6454 1834.28,86.639 1836.47,86.6327 1838.65,86.6265 1840.84,86.6204 1843.03,86.6144 1845.22,86.6084 1847.41,86.6026 1849.59,86.5969 
  1851.78,86.5913 1853.97,86.5857 1856.16,86.5803 1858.34,86.5749 1860.53,86.5696 1862.72,86.5644 1864.91,86.5593 1867.09,86.5543 1869.28,86.5493 1871.47,86.5445 
  1873.66,86.5397 1875.85,86.535 1878.03,86.5303 1880.22,86.5257 1882.41,86.5212 1884.6,86.5168 1886.78,86.5125 1888.97,86.5082 1891.16,86.504 1893.35,86.4998 
  1895.53,86.4957 1897.72,86.4917 1899.91,86.4877 1902.1,86.4838 1904.28,86.48 1906.47,86.4762 1908.66,86.4725 1910.85,86.4689 1913.04,86.4653 1915.22,86.4618 
  1917.41,86.4583 1919.6,86.4549 1921.79,86.4515 1923.97,86.4482 1926.16,86.4449 1928.35,86.4417 1930.54,86.4386 1932.72,86.4355 1934.91,86.4324 1937.1,86.4294 
  1939.29,86.4265 1941.47,86.4236 1943.66,86.4207 1945.85,86.4179 1948.04,86.4151 1950.23,86.4124 1952.41,86.4097 1954.6,86.4071 1956.79,86.4045 1958.98,86.4019 
  1961.16,86.3994 1963.35,86.3969 1965.54,86.3945 1967.73,86.3921 1969.91,86.3898 1972.1,86.3875 1974.29,86.3852 1976.48,86.3829 1978.67,86.3807 1980.85,86.3786 
  1983.04,86.3764 1985.23,86.3743 1987.42,86.3723 1989.6,86.3702 1991.79,86.3682 1993.98,86.3663 1996.17,86.3643 1998.35,86.3624 2000.54,86.3605 2002.73,86.3587 
  2004.92,86.3569 2007.1,86.3551 2009.29,86.3533 2011.48,86.3516 2013.67,86.3499 2015.86,86.3482 2018.04,86.3466 2020.23,86.3449 2022.42,86.3433 2024.61,86.3418 
  2026.79,86.3402 2028.98,86.3387 2031.17,86.3372 2033.36,86.3357 2035.54,86.3343 2037.73,86.3329 2039.92,86.3315 2042.11,86.3301 2044.3,86.3287 2046.48,86.3274 
  2048.67,86.3261 2050.86,86.3248 2053.05,86.3235 2055.23,86.3223 2057.42,86.321 2059.61,86.3198 2061.8,86.3186 2063.98,86.3175 2066.17,86.3163 2068.36,86.3152 
  2070.55,86.3141 2072.73,86.313 2074.92,86.3119 2077.11,86.3108 2079.3,86.3098 2081.49,86.3088 2083.67,86.3078 2085.86,86.3068 2088.05,86.3058 2090.24,86.3048 
  2092.42,86.3039 2094.61,86.303 2096.8,86.302 2098.99,86.3011 2101.17,86.3003 2103.36,86.2994 2105.55,86.2985 2107.74,86.2977 2109.93,86.2968 2112.11,86.296 
  2114.3,86.2952 2116.49,86.2944 2118.68,86.2937 2120.86,86.2929 2123.05,86.2921 2125.24,86.2914 2127.43,86.2907 2129.61,86.2899 2131.8,86.2892 2133.99,86.2885 
  2136.18,86.2879 2138.36,86.2872 2140.55,86.2865 2142.74,86.2859 2144.93,86.2852 2147.12,86.2846 2149.3,86.284 2151.49,86.2834 2153.68,86.2828 2155.87,86.2822 
  2158.05,86.2816 2160.24,86.281 2162.43,86.2805 2164.62,86.2799 2166.8,86.2794 2168.99,86.2788 2171.18,86.2783 2173.37,86.2778 2175.56,86.2773 2177.74,86.2768 
  2179.93,86.2763 2182.12,86.2758 2184.31,86.2753 2186.49,86.2749 2188.68,86.2744 2190.87,86.274 2193.06,86.2735 2195.24,86.2731 2197.43,86.2726 2199.62,86.2722 
  2201.81,86.2718 2203.99,86.2714 2206.18,86.271 2208.37,86.2706 2210.56,86.2702 2212.75,86.2698 2214.93,86.2694 2217.12,86.2691 2219.31,86.2687 2221.5,86.2683 
  2223.68,86.268 2225.87,86.2676 2228.06,86.2673 2230.25,86.267 2232.43,86.2666 2234.62,86.2663 2236.81,86.266 2239,86.2657 2241.19,86.2653 2243.37,86.265 
  2245.56,86.2647 2247.75,86.2644 2249.94,86.2641 2252.12,86.2639 2254.31,86.2636 2256.5,86.2633 2258.69,86.263 2260.87,86.2628 2263.06,86.2625 2265.25,86.2622 
  2267.44,86.262 2269.62,86.2617 2271.81,86.2615 2274,86.2612 2276.19,86.261 2278.38,86.2608 2280.56,86.2605 2282.75,86.2603 2284.94,86.2601 2287.13,86.2599 
  2289.31,86.2596 2291.5,86.2594 2293.69,86.2592 2295.88,86.259 2298.06,86.2588 2300.25,86.2586 2302.44,86.2584 2304.63,86.2582 2306.81,86.258 2309,86.2578 
  2311.19,86.2577 2313.38,86.2575 2315.57,86.2573 2317.75,86.2571 2319.94,86.257 2322.13,86.2568 2324.32,86.2566 2326.5,86.2565 2328.69,86.2563 2330.88,86.2561 
  2333.07,86.256 2335.25,86.2558 2337.44,86.2557 2339.63,86.2555 2341.82,86.2554 2344.01,86.2552 2346.19,86.2551 2348.38,86.255 2350.57,86.2548 2352.76,86.2547 
  
  "/>
<polygon clip-path="url(#clip0200)" points="
2006,433.164 2280.76,433.164 2280.76,130.764 2006,130.764 
  " fill="#ffffff" fill-rule="evenodd" fill-opacity="1"/>
<polyline clip-path="url(#clip0200)" style="stroke:#000000; stroke-width:4; stroke-opacity:1; fill:none" points="
  2006,433.164 2280.76,433.164 2280.76,130.764 2006,130.764 2006,433.164 
  "/>
<polyline clip-path="url(#clip0200)" style="stroke:#009af9; stroke-width:12; stroke-opacity:1; fill:none" points="
  2030,191.244 2174,191.244 
  "/>
<g clip-path="url(#clip0200)">
<text style="fill:#000000; fill-opacity:1; font-family:Arial,Helvetica Neue,Helvetica,sans-serif; font-size:48px; text-anchor:start;" transform="rotate(0, 2198, 208.744)" x="2198" y="208.744">S</text>
</g>
<polyline clip-path="url(#clip0200)" style="stroke:#e26f46; stroke-width:12; stroke-opacity:1; fill:none" points="
  2030,251.724 2174,251.724 
  "/>
<g clip-path="url(#clip0200)">
<text style="fill:#000000; fill-opacity:1; font-family:Arial,Helvetica Neue,Helvetica,sans-serif; font-size:48px; text-anchor:start;" transform="rotate(0, 2198, 269.224)" x="2198" y="269.224">E</text>
</g>
<polyline clip-path="url(#clip0200)" style="stroke:#3da44d; stroke-width:12; stroke-opacity:1; fill:none" points="
  2030,312.204 2174,312.204 
  "/>
<g clip-path="url(#clip0200)">
<text style="fill:#000000; fill-opacity:1; font-family:Arial,Helvetica Neue,Helvetica,sans-serif; font-size:48px; text-anchor:start;" transform="rotate(0, 2198, 329.704)" x="2198" y="329.704">I</text>
</g>
<polyline clip-path="url(#clip0200)" style="stroke:#c271d2; stroke-width:12; stroke-opacity:1; fill:none" points="
  2030,372.684 2174,372.684 
  "/>
<g clip-path="url(#clip0200)">
<text style="fill:#000000; fill-opacity:1; font-family:Arial,Helvetica Neue,Helvetica,sans-serif; font-size:48px; text-anchor:start;" transform="rotate(0, 2198, 390.184)" x="2198" y="390.184">R</text>
</g>
</svg>
