<?xml version="1.0" encoding="utf-8"?>
<svg xmlns="http://www.w3.org/2000/svg" xmlns:xlink="http://www.w3.org/1999/xlink" width="600" height="400" viewBox="0 0 2400 1600">
<defs>
  <clipPath id="clip0500">
    <rect x="0" y="0" width="2400" height="1600"/>
  </clipPath>
</defs>
<polygon clip-path="url(#clip0500)" points="
0,1600 2400,1600 2400,0 0,0 
  " fill="#ffffff" fill-rule="evenodd" fill-opacity="1"/>
<defs>
  <clipPath id="clip0501">
    <rect x="480" y="0" width="1681" height="1600"/>
  </clipPath>
</defs>
<polygon clip-path="url(#clip0500)" points="
167.279,1425.62 2352.76,1425.62 2352.76,47.2441 167.279,47.2441 
  " fill="#ffffff" fill-rule="evenodd" fill-opacity="1"/>
<defs>
  <clipPath id="clip0502">
    <rect x="167" y="47" width="2186" height="1379"/>
  </clipPath>
</defs>
<polyline clip-path="url(#clip0502)" style="stroke:#000000; stroke-width:2; stroke-opacity:0.1; fill:none" points="
  167.279,1425.62 167.279,47.2441 
  "/>
<polyline clip-path="url(#clip0502)" style="stroke:#000000; stroke-width:2; stroke-opacity:0.1; fill:none" points="
  766.04,1425.62 766.04,47.2441 
  "/>
<polyline clip-path="url(#clip0502)" style="stroke:#000000; stroke-width:2; stroke-opacity:0.1; fill:none" points="
  1364.8,1425.62 1364.8,47.2441 
  "/>
<polyline clip-path="url(#clip0502)" style="stroke:#000000; stroke-width:2; stroke-opacity:0.1; fill:none" points="
  1963.56,1425.62 1963.56,47.2441 
  "/>
<polyline clip-path="url(#clip0502)" style="stroke:#000000; stroke-width:2; stroke-opacity:0.1; fill:none" points="
  167.279,1386.61 2352.76,1386.61 
  "/>
<polyline clip-path="url(#clip0502)" style="stroke:#000000; stroke-width:2; stroke-opacity:0.1; fill:none" points="
  167.279,1061.52 2352.76,1061.52 
  "/>
<polyline clip-path="url(#clip0502)" style="stroke:#000000; stroke-width:2; stroke-opacity:0.1; fill:none" points="
  167.279,736.431 2352.76,736.431 
  "/>
<polyline clip-path="url(#clip0502)" style="stroke:#000000; stroke-width:2; stroke-opacity:0.1; fill:none" points="
  167.279,411.343 2352.76,411.343 
  "/>
<polyline clip-path="url(#clip0502)" style="stroke:#000000; stroke-width:2; stroke-opacity:0.1; fill:none" points="
  167.279,86.2547 2352.76,86.2547 
  "/>
<polyline clip-path="url(#clip0500)" style="stroke:#000000; stroke-width:4; stroke-opacity:1; fill:none" points="
  167.279,1425.62 2352.76,1425.62 
  "/>
<polyline clip-path="url(#clip0500)" style="stroke:#000000; stroke-width:4; stroke-opacity:1; fill:none" points="
  167.279,1425.62 167.279,47.2441 
  "/>
<polyline clip-path="url(#clip0500)" style="stroke:#000000; stroke-width:4; stroke-opacity:1; fill:none" points="
  167.279,1425.62 167.279,1404.94 
  "/>
<polyline clip-path="url(#clip0500)" style="stroke:#000000; stroke-width:4; stroke-opacity:1; fill:none" points="
  766.04,1425.62 766.04,1404.94 
  "/>
<polyline clip-path="url(#clip0500)" style="stroke:#000000; stroke-width:4; stroke-opacity:1; fill:none" points="
  1364.8,1425.62 1364.8,1404.94 
  "/>
<polyline clip-path="url(#clip0500)" style="stroke:#000000; stroke-width:4; stroke-opacity:1; fill:none" points="
  1963.56,1425.62 1963.56,1404.94 
  "/>
<polyline clip-path="url(#clip0500)" style="stroke:#000000; stroke-width:4; stroke-opacity:1; fill:none" points="
  167.279,1386.61 200.061,1386.61 
  "/>
<polyline clip-path="url(#clip0500)" style="stroke:#000000; stroke-width:4; stroke-opacity:1; fill:none" points="
  167.279,1061.52 200.061,1061.52 
  "/>
<polyline clip-path="url(#clip0500)" style="stroke:#000000; stroke-width:4; stroke-opacity:1; fill:none" points="
  167.279,736.431 200.061,736.431 
  "/>
<polyline clip-path="url(#clip0500)" style="stroke:#000000; stroke-width:4; stroke-opacity:1; fill:none" points="
  167.279,411.343 200.061,411.343 
  "/>
<polyline clip-path="url(#clip0500)" style="stroke:#000000; stroke-width:4; stroke-opacity:1; fill:none" points="
  167.279,86.2547 200.061,86.2547 
  "/>
<g clip-path="url(#clip0500)">
<text style="fill:#000000; fill-opacity:1; font-family:Arial,Helvetica Neue,Helvetica,sans-serif; font-size:48px; text-anchor:middle;" transform="rotate(0, 167.279, 1479.62)" x="167.279" y="1479.62">0</text>
</g>
<g clip-path="url(#clip0500)">
<text style="fill:#000000; fill-opacity:1; font-family:Arial,Helvetica Neue,Helvetica,sans-serif; font-size:48px; text-anchor:middle;" transform="rotate(0, 766.04, 1479.62)" x="766.04" y="1479.62">100</text>
</g>
<g clip-path="url(#clip0500)">
<text style="fill:#000000; fill-opacity:1; font-family:Arial,Helvetica Neue,Helvetica,sans-serif; font-size:48px; text-anchor:middle;" transform="rotate(0, 1364.8, 1479.62)" x="1364.8" y="1479.62">200</text>
</g>
<g clip-path="url(#clip0500)">
<text style="fill:#000000; fill-opacity:1; font-family:Arial,Helvetica Neue,Helvetica,sans-serif; font-size:48px; text-anchor:middle;" transform="rotate(0, 1963.56, 1479.62)" x="1963.56" y="1479.62">300</text>
</g>
<g clip-path="url(#clip0500)">
<text style="fill:#000000; fill-opacity:1; font-family:Arial,Helvetica Neue,Helvetica,sans-serif; font-size:48px; text-anchor:end;" transform="rotate(0, 143.279, 1404.11)" x="143.279" y="1404.11">0</text>
</g>
<g clip-path="url(#clip0500)">
<text style="fill:#000000; fill-opacity:1; font-family:Arial,Helvetica Neue,Helvetica,sans-serif; font-size:48px; text-anchor:end;" transform="rotate(0, 143.279, 1079.02)" x="143.279" y="1079.02">25</text>
</g>
<g clip-path="url(#clip0500)">
<text style="fill:#000000; fill-opacity:1; font-family:Arial,Helvetica Neue,Helvetica,sans-serif; font-size:48px; text-anchor:end;" transform="rotate(0, 143.279, 753.931)" x="143.279" y="753.931">50</text>
</g>
<g clip-path="url(#clip0500)">
<text style="fill:#000000; fill-opacity:1; font-family:Arial,Helvetica Neue,Helvetica,sans-serif; font-size:48px; text-anchor:end;" transform="rotate(0, 143.279, 428.843)" x="143.279" y="428.843">75</text>
</g>
<g clip-path="url(#clip0500)">
<text style="fill:#000000; fill-opacity:1; font-family:Arial,Helvetica Neue,Helvetica,sans-serif; font-size:48px; text-anchor:end;" transform="rotate(0, 143.279, 103.755)" x="143.279" y="103.755">100</text>
</g>
<g clip-path="url(#clip0500)">
<text style="fill:#000000; fill-opacity:1; font-family:Arial,Helvetica Neue,Helvetica,sans-serif; font-size:66px; text-anchor:middle;" transform="rotate(0, 1260.02, 1559.48)" x="1260.02" y="1559.48">t</text>
</g>
<polyline clip-path="url(#clip0502)" style="stroke:#009af9; stroke-width:12; stroke-opacity:1; fill:none" points="
  167.279,86.2547 169.467,86.2694 171.654,86.3123 173.842,86.3818 176.03,86.4763 178.217,86.5944 180.405,86.7349 182.593,86.8969 184.78,87.0793 186.968,87.2812 
  189.156,87.502 191.343,87.7409 193.531,87.9975 195.719,88.2712 197.906,88.5616 200.094,88.8683 202.282,89.1911 204.469,89.5297 206.657,89.8839 208.845,90.2535 
  211.032,90.6385 213.22,91.0388 215.408,91.4544 217.595,91.8852 219.783,92.3313 221.971,92.7928 224.158,93.2698 226.346,93.7623 228.534,94.2706 230.721,94.7948 
  232.909,95.3351 235.097,95.8918 237.284,96.4649 239.472,97.0549 241.66,97.662 243.847,98.2865 246.035,98.9286 248.223,99.5887 250.41,100.267 252.598,100.964 
  254.786,101.681 256.973,102.416 259.161,103.172 261.349,103.948 263.536,104.744 265.724,105.562 267.912,106.402 270.099,107.263 272.287,108.147 274.475,109.054 
  276.662,109.985 278.85,110.94 281.038,111.919 283.225,112.924 285.413,113.955 287.601,115.012 289.788,116.096 291.976,117.207 294.164,118.347 296.351,119.516 
  298.539,120.714 300.727,121.942 302.914,123.201 305.102,124.491 307.29,125.814 309.477,127.17 311.665,128.559 313.853,129.983 316.04,131.442 318.228,132.937 
  320.416,134.469 322.603,136.038 324.791,137.645 326.979,139.292 329.166,140.979 331.354,142.706 333.542,144.475 335.729,146.287 337.917,148.142 340.105,150.041 
  342.292,151.986 344.48,153.977 346.668,156.015 348.855,158.101 351.043,160.236 353.231,162.42 355.418,164.656 357.606,166.944 359.794,169.284 361.981,171.678 
  364.169,174.127 366.357,176.632 368.544,179.193 370.732,181.813 372.92,184.491 375.107,187.229 377.295,190.029 379.483,192.89 381.67,195.814 383.858,198.802 
  386.046,201.855 388.233,204.975 390.421,208.161 392.609,211.416 394.796,214.739 396.984,218.133 399.172,221.598 401.359,225.134 403.547,228.744 405.735,232.427 
  407.922,236.185 410.11,240.019 412.298,243.929 414.485,247.917 416.673,251.984 418.861,256.129 421.048,260.355 423.236,264.662 425.424,269.05 427.611,273.521 
  429.799,278.075 431.987,282.713 434.174,287.435 436.362,292.242 438.55,297.134 440.737,302.112 442.925,307.176 445.113,312.326 447.3,317.563 449.488,322.886 
  451.676,328.297 453.863,333.794 456.051,339.379 458.239,345.05 460.426,350.809 462.614,356.654 464.802,362.587 466.989,368.605 469.177,374.711 471.365,380.902 
  473.552,387.179 475.74,393.541 477.927,399.988 480.115,406.518 482.303,413.13 484.49,419.823 486.678,426.595 488.866,433.447 491.053,440.375 493.241,447.378 
  495.429,454.456 497.616,461.605 499.804,468.825 501.992,476.114 504.179,483.47 506.367,490.89 508.555,498.373 510.742,505.917 512.93,513.52 515.118,521.179 
  517.305,528.892 519.493,536.657 521.681,544.47 523.868,552.331 526.056,560.235 528.244,568.181 530.431,576.164 532.619,584.18 534.807,592.227 536.994,600.3 
  539.182,608.396 541.37,616.511 543.557,624.641 545.745,632.784 547.933,640.935 550.12,649.09 552.308,657.247 554.496,665.402 556.683,673.551 558.871,681.691 
  561.059,689.818 563.246,697.929 565.434,706.019 567.622,714.087 569.809,722.127 571.997,730.138 574.185,738.115 576.372,746.055 578.56,753.954 580.748,761.808 
  582.935,769.612 585.123,777.362 587.311,785.056 589.498,792.688 591.686,800.255 593.874,807.755 596.061,815.183 598.249,822.538 600.437,829.815 602.624,837.013 
  604.812,844.129 607,851.16 609.187,858.104 611.375,864.96 613.563,871.725 615.75,878.399 617.938,884.978 620.126,891.463 622.313,897.852 624.501,904.143 
  626.689,910.336 628.876,916.426 631.064,922.414 633.252,928.296 635.439,934.072 637.627,939.741 639.815,945.301 642.002,950.751 644.19,956.091 646.378,961.32 
  648.565,966.438 650.753,971.445 652.941,976.342 655.128,981.128 657.316,985.803 659.504,990.37 661.691,994.828 663.879,999.179 666.067,1003.42 668.254,1007.57 
  670.442,1011.6 672.63,1015.54 674.817,1019.38 677.005,1023.12 679.193,1026.76 681.38,1030.3 683.568,1033.74 685.756,1037.08 687.943,1040.33 690.131,1043.48 
  692.319,1046.54 694.506,1049.51 696.694,1052.38 698.882,1055.17 701.069,1057.86 703.257,1060.47 705.445,1063 707.632,1065.44 709.82,1067.8 712.008,1070.09 
  714.195,1072.3 716.383,1074.43 718.571,1076.49 720.758,1078.49 722.946,1080.41 725.134,1082.28 727.321,1084.08 729.509,1085.81 731.697,1087.49 733.884,1089.1 
  736.072,1090.66 738.26,1092.16 740.447,1093.6 742.635,1094.98 744.823,1096.32 747.01,1097.6 749.198,1098.82 751.386,1100 753.573,1101.14 755.761,1102.22 
  757.949,1103.26 760.136,1104.26 762.324,1105.22 764.512,1106.13 766.699,1107.01 768.887,1107.85 771.075,1108.66 773.262,1109.43 775.45,1110.17 777.638,1110.89 
  779.825,1111.57 782.013,1112.23 784.201,1112.85 786.388,1113.45 788.576,1114.03 790.764,1114.58 792.951,1115.1 795.139,1115.6 797.326,1116.08 799.514,1116.53 
  801.702,1116.96 803.889,1117.37 806.077,1117.76 808.265,1118.13 810.452,1118.48 812.64,1118.82 814.828,1119.13 817.015,1119.43 819.203,1119.72 821.391,1119.99 
  823.578,1120.24 825.766,1120.48 827.954,1120.71 830.141,1120.93 832.329,1121.14 834.517,1121.34 836.704,1121.53 838.892,1121.71 841.08,1121.88 843.267,1122.05 
  845.455,1122.2 847.643,1122.35 849.83,1122.49 852.018,1122.62 854.206,1122.74 856.393,1122.86 858.581,1122.96 860.769,1123.07 862.956,1123.16 865.144,1123.25 
  867.332,1123.33 869.519,1123.41 871.707,1123.48 873.895,1123.54 876.082,1123.6 878.27,1123.66 880.458,1123.71 882.645,1123.76 884.833,1123.8 887.021,1123.84 
  889.208,1123.88 891.396,1123.91 893.584,1123.95 895.771,1123.98 897.959,1124.01 900.147,1124.03 902.334,1124.06 904.522,1124.09 906.71,1124.11 908.897,1124.13 
  911.085,1124.16 913.273,1124.18 915.46,1124.19 917.648,1124.21 919.836,1124.22 922.023,1124.24 924.211,1124.25 926.399,1124.26 928.586,1124.26 930.774,1124.27 
  932.962,1124.27 935.149,1124.28 937.337,1124.28 939.525,1124.28 941.712,1124.27 943.9,1124.27 946.088,1124.27 948.275,1124.26 950.463,1124.26 952.651,1124.25 
  954.838,1124.25 957.026,1124.24 959.214,1124.23 961.401,1124.23 963.589,1124.22 965.777,1124.22 967.964,1124.21 970.152,1124.21 972.34,1124.21 974.527,1124.21 
  976.715,1124.21 978.903,1124.21 981.09,1124.21 983.278,1124.21 985.466,1124.21 987.653,1124.21 989.841,1124.21 992.029,1124.21 994.216,1124.2 996.404,1124.2 
  998.592,1124.2 1000.78,1124.19 1002.97,1124.19 1005.15,1124.18 1007.34,1124.17 1009.53,1124.17 1011.72,1124.16 1013.91,1124.15 1016.09,1124.14 1018.28,1124.13 
  1020.47,1124.12 1022.66,1124.1 1024.84,1124.09 1027.03,1124.08 1029.22,1124.07 1031.41,1124.06 1033.59,1124.05 1035.78,1124.05 1037.97,1124.04 1040.16,1124.04 
  1042.34,1124.04 1044.53,1124.04 1046.72,1124.04 1048.91,1124.04 1051.1,1124.04 1053.28,1124.05 1055.47,1124.06 1057.66,1124.06 1059.85,1124.06 1062.03,1124.07 
  1064.22,1124.07 1066.41,1124.07 1068.6,1124.08 1070.78,1124.08 1072.97,1124.08 1075.16,1124.07 1077.35,1124.07 1079.54,1124.06 1081.72,1124.06 1083.91,1124.05 
  1086.1,1124.04 1088.29,1124.03 1090.47,1124.02 1092.66,1124.01 1094.85,1123.99 1097.04,1123.98 1099.22,1123.97 1101.41,1123.96 1103.6,1123.95 1105.79,1123.94 
  1107.97,1123.93 1110.16,1123.92 1112.35,1123.92 1114.54,1123.92 1116.73,1123.92 1118.91,1123.93 1121.1,1123.93 1123.29,1123.94 1125.48,1123.96 1127.66,1123.97 
  1129.85,1123.98 1132.04,1123.99 1134.23,1124 1136.41,1124.01 1138.6,1124.02 1140.79,1124.03 1142.98,1124.03 1145.17,1124.04 1147.35,1124.04 1149.54,1124.04 
  1151.73,1124.03 1153.92,1124.03 1156.1,1124.02 1158.29,1124.01 1160.48,1124 1162.67,1123.99 1164.85,1123.97 1167.04,1123.96 1169.23,1123.94 1171.42,1123.92 
  1173.6,1123.91 1175.79,1123.89 1177.98,1123.88 1180.17,1123.87 1182.36,1123.86 1184.54,1123.86 1186.73,1123.86 1188.92,1123.87 1191.11,1123.88 1193.29,1123.89 
  1195.48,1123.9 1197.67,1123.92 1199.86,1123.94 1202.04,1123.95 1204.23,1123.97 1206.42,1123.98 1208.61,1124 1210.8,1124.01 1212.98,1124.02 1215.17,1124.02 
  1217.36,1124.03 1219.55,1124.03 1221.73,1124.02 1223.92,1124.02 1226.11,1124.01 1228.3,1124 1230.48,1123.99 1232.67,1123.98 1234.86,1123.96 1237.05,1123.94 
  1239.23,1123.93 1241.42,1123.91 1243.61,1123.89 1245.8,1123.88 1247.99,1123.86 1250.17,1123.85 1252.36,1123.84 1254.55,1123.84 1256.74,1123.84 1258.92,1123.85 
  1261.11,1123.87 1263.3,1123.88 1265.49,1123.9 1267.67,1123.92 1269.86,1123.93 1272.05,1123.95 1274.24,1123.96 1276.43,1123.98 1278.61,1123.99 1280.8,1124 
  1282.99,1124.01 1285.18,1124.01 1287.36,1124.01 1289.55,1124.01 1291.74,1124.01 1293.93,1124 1296.11,1123.99 1298.3,1123.98 1300.49,1123.97 1302.68,1123.95 
  1304.86,1123.94 1307.05,1123.92 1309.24,1123.91 1311.43,1123.89 1313.62,1123.87 1315.8,1123.86 1317.99,1123.85 1320.18,1123.85 1322.37,1123.85 1324.55,1123.85 
  1326.74,1123.86 1328.93,1123.88 1331.12,1123.89 1333.3,1123.9 1335.49,1123.92 1337.68,1123.94 1339.87,1123.95 1342.05,1123.96 1344.24,1123.97 1346.43,1123.98 
  1348.62,1123.99 1350.81,1124 1352.99,1124 1355.18,1124 1357.37,1124 1359.56,1123.99 1361.74,1123.99 1363.93,1123.98 1366.12,1123.97 1368.31,1123.96 
  1370.49,1123.94 1372.68,1123.93 1374.87,1123.91 1377.06,1123.9 1379.25,1123.89 1381.43,1123.88 1383.62,1123.87 1385.81,1123.86 1388,1123.86 1390.18,1123.86 
  1392.37,1123.87 1394.56,1123.88 1396.75,1123.89 1398.93,1123.9 1401.12,1123.92 1403.31,1123.93 1405.5,1123.94 1407.68,1123.96 1409.87,1123.97 1412.06,1123.98 
  1414.25,1123.98 1416.44,1123.99 1418.62,1123.99 1420.81,1123.99 1423,1123.99 1425.19,1123.99 1427.37,1123.98 1429.56,1123.98 1431.75,1123.97 1433.94,1123.96 
  1436.12,1123.95 1438.31,1123.93 1440.5,1123.92 1442.69,1123.91 1444.88,1123.9 1447.06,1123.89 1449.25,1123.88 1451.44,1123.87 1453.63,1123.87 1455.81,1123.87 
  1458,1123.87 1460.19,1123.88 1462.38,1123.89 1464.56,1123.9 1466.75,1123.92 1468.94,1123.93 1471.13,1123.94 1473.31,1123.95 1475.5,1123.96 1477.69,1123.97 
  1479.88,1123.98 1482.07,1123.99 1484.25,1123.99 1486.44,1123.99 1488.63,1123.99 1490.82,1123.99 1493,1123.99 1495.19,1123.98 1497.38,1123.97 1499.57,1123.96 
  1501.75,1123.95 1503.94,1123.94 1506.13,1123.93 1508.32,1123.92 1510.51,1123.91 1512.69,1123.9 1514.88,1123.89 1517.07,1123.88 1519.26,1123.87 1521.44,1123.87 
  1523.63,1123.87 1525.82,1123.88 1528.01,1123.89 1530.19,1123.9 1532.38,1123.91 1534.57,1123.92 1536.76,1123.93 1538.94,1123.95 1541.13,1123.96 1543.32,1123.97 
  1545.51,1123.98 1547.7,1123.98 1549.88,1123.99 1552.07,1123.99 1554.26,1123.99 1556.45,1123.99 1558.63,1123.99 1560.82,1123.99 1563.01,1123.98 1565.2,1123.97 
  1567.38,1123.96 1569.57,1123.95 1571.76,1123.94 1573.95,1123.93 1576.14,1123.92 1578.32,1123.91 1580.51,1123.9 1582.7,1123.89 1584.89,1123.88 1587.07,1123.87 
  1589.26,1123.87 1591.45,1123.87 1593.64,1123.88 1595.82,1123.89 1598.01,1123.9 1600.2,1123.91 1602.39,1123.92 1604.57,1123.93 1606.76,1123.95 1608.95,1123.96 
  1611.14,1123.97 1613.33,1123.98 1615.51,1123.98 1617.7,1123.99 1619.89,1123.99 1622.08,1123.99 1624.26,1123.99 1626.45,1123.99 1628.64,1123.99 1630.83,1123.98 
  1633.01,1123.97 1635.2,1123.96 1637.39,1123.95 1639.58,1123.94 1641.76,1123.93 1643.95,1123.92 1646.14,1123.91 1648.33,1123.9 1650.52,1123.89 1652.7,1123.88 
  1654.89,1123.87 1657.08,1123.87 1659.27,1123.87 1661.45,1123.88 1663.64,1123.89 1665.83,1123.9 1668.02,1123.91 1670.2,1123.92 1672.39,1123.93 1674.58,1123.95 
  1676.77,1123.96 1678.96,1123.97 1681.14,1123.98 1683.33,1123.98 1685.52,1123.99 1687.71,1123.99 1689.89,1124 1692.08,1124 1694.27,1123.99 1696.46,1123.99 
  1698.64,1123.98 1700.83,1123.98 1703.02,1123.97 1705.21,1123.96 1707.39,1123.94 1709.58,1123.93 1711.77,1123.92 1713.96,1123.91 1716.15,1123.9 1718.33,1123.89 
  1720.52,1123.88 1722.71,1123.87 1724.9,1123.87 1727.08,1123.87 1729.27,1123.87 1731.46,1123.88 1733.65,1123.89 1735.83,1123.9 1738.02,1123.92 1740.21,1123.93 
  1742.4,1123.94 1744.59,1123.96 1746.77,1123.97 1748.96,1123.98 1751.15,1123.98 1753.34,1123.99 1755.52,1124 1757.71,1124 1759.9,1124 1762.09,1124 
  1764.27,1123.99 1766.46,1123.99 1768.65,1123.98 1770.84,1123.97 1773.02,1123.96 1775.21,1123.95 1777.4,1123.93 1779.59,1123.92 1781.78,1123.91 1783.96,1123.9 
  1786.15,1123.89 1788.34,1123.88 1790.53,1123.87 1792.71,1123.87 1794.9,1123.87 1797.09,1123.87 1799.28,1123.88 1801.46,1123.89 1803.65,1123.9 1805.84,1123.92 
  1808.03,1123.93 1810.22,1123.94 1812.4,1123.95 1814.59,1123.97 1816.78,1123.98 1818.97,1123.98 1821.15,1123.99 1823.34,1123.99 1825.53,1124 1827.72,1124 
  1829.9,1124 1832.09,1123.99 1834.28,1123.99 1836.47,1123.98 1838.65,1123.97 1840.84,1123.96 1843.03,1123.95 1845.22,1123.93 1847.41,1123.92 1849.59,1123.91 
  1851.78,1123.9 1853.97,1123.89 1856.16,1123.88 1858.34,1123.87 1860.53,1123.87 1862.72,1123.87 1864.91,1123.87 1867.09,1123.88 1869.28,1123.89 1871.47,1123.9 
  1873.66,1123.92 1875.85,1123.93 1878.03,1123.94 1880.22,1123.95 1882.41,1123.96 1884.6,1123.97 1886.78,1123.98 1888.97,1123.99 1891.16,1123.99 1893.35,1124 
  1895.53,1124 1897.72,1124 1899.91,1123.99 1902.1,1123.99 1904.28,1123.98 1906.47,1123.97 1908.66,1123.96 1910.85,1123.95 1913.04,1123.93 1915.22,1123.92 
  1917.41,1123.91 1919.6,1123.9 1921.79,1123.89 1923.97,1123.88 1926.16,1123.87 1928.35,1123.87 1930.54,1123.87 1932.72,1123.87 1934.91,1123.88 1937.1,1123.89 
  1939.29,1123.9 1941.47,1123.92 1943.66,1123.93 1945.85,1123.94 1948.04,1123.95 1950.23,1123.96 1952.41,1123.97 1954.6,1123.98 1956.79,1123.99 1958.98,1123.99 
  1961.16,1124 1963.35,1124 1965.54,1124 1967.73,1123.99 1969.91,1123.99 1972.1,1123.98 1974.29,1123.97 1976.48,1123.96 1978.67,1123.95 1980.85,1123.93 
  1983.04,1123.92 1985.23,1123.91 1987.42,1123.9 1989.6,1123.89 1991.79,1123.88 1993.98,1123.87 1996.17,1123.87 1998.35,1123.87 2000.54,1123.87 2002.73,1123.88 
  2004.92,1123.89 2007.1,1123.9 2009.29,1123.92 2011.48,1123.93 2013.67,1123.94 2015.86,1123.95 2018.04,1123.97 2020.23,1123.97 2022.42,1123.98 2024.61,1123.99 
  2026.79,1123.99 2028.98,1124 2031.17,1124 2033.36,1123.99 2035.54,1123.99 2037.73,1123.99 2039.92,1123.98 2042.11,1123.97 2044.3,1123.96 2046.48,1123.95 
  2048.67,1123.93 2050.86,1123.92 2053.05,1123.91 2055.23,1123.9 2057.42,1123.89 2059.61,1123.88 2061.8,1123.87 2063.98,1123.87 2066.17,1123.87 2068.36,1123.87 
  2070.55,1123.88 2072.73,1123.89 2074.92,1123.9 2077.11,1123.92 2079.3,1123.93 2081.49,1123.94 2083.67,1123.95 2085.86,1123.97 2088.05,1123.98 2090.24,1123.98 
  2092.42,1123.99 2094.61,1123.99 2096.8,1124 2098.99,1124 2101.17,1123.99 2103.36,1123.99 2105.55,1123.98 2107.74,1123.98 2109.93,1123.97 2112.11,1123.96 
  2114.3,1123.95 2116.49,1123.93 2118.68,1123.92 2120.86,1123.91 2123.05,1123.9 2125.24,1123.89 2127.43,1123.88 2129.61,1123.87 2131.8,1123.87 2133.99,1123.87 
  2136.18,1123.87 2138.36,1123.88 2140.55,1123.89 2142.74,1123.9 2144.93,1123.92 2147.12,1123.93 2149.3,1123.94 2151.49,1123.95 2153.68,1123.97 2155.87,1123.98 
  2158.05,1123.98 2160.24,1123.99 2162.43,1123.99 2164.62,1124 2166.8,1124 2168.99,1123.99 2171.18,1123.99 2173.37,1123.98 2175.56,1123.98 2177.74,1123.97 
  2179.93,1123.96 2182.12,1123.95 2184.31,1123.93 2186.49,1123.92 2188.68,1123.91 2190.87,1123.9 2193.06,1123.89 2195.24,1123.88 2197.43,1123.87 2199.62,1123.87 
  2201.81,1123.87 2203.99,1123.87 2206.18,1123.88 2208.37,1123.89 2210.56,1123.9 2212.75,1123.92 2214.93,1123.93 2217.12,1123.94 2219.31,1123.95 2221.5,1123.97 
  2223.68,1123.98 2225.87,1123.98 2228.06,1123.99 2230.25,1123.99 2232.43,1124 2234.62,1124 2236.81,1123.99 2239,1123.99 2241.19,1123.98 2243.37,1123.98 
  2245.56,1123.97 2247.75,1123.96 2249.94,1123.95 2252.12,1123.93 2254.31,1123.92 2256.5,1123.91 2258.69,1123.9 2260.87,1123.89 2263.06,1123.88 2265.25,1123.87 
  2267.44,1123.87 2269.62,1123.87 2271.81,1123.87 2274,1123.88 2276.19,1123.89 2278.38,1123.9 2280.56,1123.92 2282.75,1123.93 2284.94,1123.94 2287.13,1123.95 
  2289.31,1123.97 2291.5,1123.98 2293.69,1123.98 2295.88,1123.99 2298.06,1123.99 2300.25,1124 2302.44,1124 2304.63,1123.99 2306.81,1123.99 2309,1123.99 
  2311.19,1123.98 2313.38,1123.97 2315.57,1123.96 2317.75,1123.95 2319.94,1123.93 2322.13,1123.92 2324.32,1123.91 2326.5,1123.9 2328.69,1123.89 2330.88,1123.88 
  2333.07,1123.87 2335.25,1123.87 2337.44,1123.87 2339.63,1123.87 2341.82,1123.88 2344.01,1123.89 2346.19,1123.89 2348.38,1123.9 2350.57,1123.9 2352.76,1123.9 
  
  "/>
<polyline clip-path="url(#clip0502)" style="stroke:#e26f46; stroke-width:12; stroke-opacity:1; fill:none" points="
  167.279,1373.6 169.467,1373.83 171.654,1374.01 173.842,1374.17 176.03,1374.3 178.217,1374.4 180.405,1374.47 182.593,1374.52 184.78,1374.55 186.968,1374.55 
  189.156,1374.53 191.343,1374.49 193.531,1374.43 195.719,1374.35 197.906,1374.25 200.094,1374.13 202.282,1374 204.469,1373.85 206.657,1373.68 208.845,1373.5 
  211.032,1373.3 213.22,1373.09 215.408,1372.86 217.595,1372.61 219.783,1372.36 221.971,1372.08 224.158,1371.8 226.346,1371.5 228.534,1371.18 230.721,1370.85 
  232.909,1370.51 235.097,1370.15 237.284,1369.78 239.472,1369.4 241.66,1369 243.847,1368.59 246.035,1368.16 248.223,1367.72 250.41,1367.27 252.598,1366.8 
  254.786,1366.31 256.973,1365.81 259.161,1365.3 261.349,1364.77 263.536,1364.23 265.724,1363.67 267.912,1363.09 270.099,1362.5 272.287,1361.89 274.475,1361.26 
  276.662,1360.62 278.85,1359.96 281.038,1359.28 283.225,1358.58 285.413,1357.87 287.601,1357.13 289.788,1356.38 291.976,1355.61 294.164,1354.81 296.351,1354 
  298.539,1353.17 300.727,1352.31 302.914,1351.43 305.102,1350.54 307.29,1349.61 309.477,1348.67 311.665,1347.7 313.853,1346.71 316.04,1345.69 318.228,1344.65 
  320.416,1343.58 322.603,1342.49 324.791,1341.37 326.979,1340.22 329.166,1339.05 331.354,1337.84 333.542,1336.61 335.729,1335.35 337.917,1334.06 340.105,1332.74 
  342.292,1331.39 344.48,1330 346.668,1328.58 348.855,1327.13 351.043,1325.65 353.231,1324.13 355.418,1322.58 357.606,1321 359.794,1319.37 361.981,1317.71 
  364.169,1316.02 366.357,1314.28 368.544,1312.51 370.732,1310.69 372.92,1308.84 375.107,1306.95 377.295,1305.02 379.483,1303.04 381.67,1301.02 383.858,1298.96 
  386.046,1296.86 388.233,1294.71 390.421,1292.51 392.609,1290.27 394.796,1287.99 396.984,1285.66 399.172,1283.28 401.359,1280.85 403.547,1278.38 405.735,1275.86 
  407.922,1273.28 410.11,1270.66 412.298,1267.99 414.485,1265.27 416.673,1262.5 418.861,1259.67 421.048,1256.8 423.236,1253.87 425.424,1250.89 427.611,1247.85 
  429.799,1244.76 431.987,1241.62 434.174,1238.43 436.362,1235.18 438.55,1231.88 440.737,1228.52 442.925,1225.11 445.113,1221.65 447.3,1218.13 449.488,1214.56 
  451.676,1210.94 453.863,1207.26 456.051,1203.54 458.239,1199.75 460.426,1195.92 462.614,1192.04 464.802,1188.1 466.989,1184.11 469.177,1180.08 471.365,1175.99 
  473.552,1171.85 475.74,1167.67 477.927,1163.43 480.115,1159.16 482.303,1154.83 484.49,1150.46 486.678,1146.05 488.866,1141.6 491.053,1137.11 493.241,1132.58 
  495.429,1128.01 497.616,1123.41 499.804,1118.77 501.992,1114.1 504.179,1109.4 506.367,1104.67 508.555,1099.92 510.742,1095.14 512.93,1090.33 515.118,1085.51 
  517.305,1080.66 519.493,1075.8 521.681,1070.93 523.868,1066.04 526.056,1061.14 528.244,1056.23 530.431,1051.32 532.619,1046.4 534.807,1041.49 536.994,1036.58 
  539.182,1031.67 541.37,1026.77 543.557,1021.89 545.745,1017.01 547.933,1012.16 550.12,1007.32 552.308,1002.5 554.496,997.712 556.683,992.948 558.871,988.213 
  561.059,983.51 563.246,978.842 565.434,974.211 567.622,969.62 569.809,965.07 571.997,960.565 574.185,956.107 576.372,951.698 578.56,947.34 580.748,943.036 
  582.935,938.789 585.123,934.601 587.311,930.473 589.498,926.409 591.686,922.41 593.874,918.478 596.061,914.615 598.249,910.822 600.437,907.1 602.624,903.452 
  604.812,899.879 607,896.38 609.187,892.958 611.375,889.614 613.563,886.347 615.75,883.158 617.938,880.049 620.126,877.019 622.313,874.068 624.501,871.197 
  626.689,868.405 628.876,865.694 631.064,863.063 633.252,860.513 635.439,858.043 637.627,855.654 639.815,853.346 642.002,851.118 644.19,848.969 646.378,846.9 
  648.565,844.909 650.753,842.995 652.941,841.159 655.128,839.398 657.316,837.712 659.504,836.098 661.691,834.557 663.879,833.086 666.067,831.683 668.254,830.347 
  670.442,829.075 672.63,827.866 674.817,826.718 677.005,825.63 679.193,824.601 681.38,823.63 683.568,822.715 685.756,821.856 687.943,821.051 690.131,820.299 
  692.319,819.599 694.506,818.948 696.694,818.346 698.882,817.791 701.069,817.282 703.257,816.816 705.445,816.393 707.632,816.01 709.82,815.665 712.008,815.357 
  714.195,815.085 716.383,814.845 718.571,814.636 720.758,814.456 722.946,814.303 725.134,814.175 727.321,814.07 729.509,813.988 731.697,813.93 733.884,813.892 
  736.072,813.876 738.26,813.88 740.447,813.903 742.635,813.944 744.823,814.003 747.01,814.078 749.198,814.169 751.386,814.275 753.573,814.394 755.761,814.526 
  757.949,814.67 760.136,814.825 762.324,814.989 764.512,815.163 766.699,815.344 768.887,815.531 771.075,815.724 773.262,815.922 775.45,816.123 777.638,816.326 
  779.825,816.531 782.013,816.736 784.201,816.944 786.388,817.153 788.576,817.363 790.764,817.574 792.951,817.787 795.139,818 797.326,818.214 799.514,818.429 
  801.702,818.644 803.889,818.859 806.077,819.074 808.265,819.289 810.452,819.503 812.64,819.716 814.828,819.928 817.015,820.138 819.203,820.347 821.391,820.553 
  823.578,820.757 825.766,820.959 827.954,821.157 830.141,821.351 832.329,821.541 834.517,821.728 836.704,821.909 838.892,822.085 841.08,822.258 843.267,822.426 
  845.455,822.591 847.643,822.752 849.83,822.91 852.018,823.064 854.206,823.215 856.393,823.364 858.581,823.509 860.769,823.651 862.956,823.79 865.144,823.927 
  867.332,824.061 869.519,824.192 871.707,824.32 873.895,824.445 876.082,824.568 878.27,824.688 880.458,824.805 882.645,824.919 884.833,825.03 887.021,825.139 
  889.208,825.244 891.396,825.345 893.584,825.444 895.771,825.539 897.959,825.63 900.147,825.717 902.334,825.801 904.522,825.882 906.71,825.96 908.897,826.035 
  911.085,826.108 913.273,826.178 915.46,826.246 917.648,826.312 919.836,826.376 922.023,826.438 924.211,826.498 926.399,826.557 928.586,826.613 930.774,826.669 
  932.962,826.722 935.149,826.775 937.337,826.825 939.525,826.875 941.712,826.923 943.9,826.969 946.088,827.015 948.275,827.059 950.463,827.101 952.651,827.142 
  954.838,827.182 957.026,827.22 959.214,827.256 961.401,827.291 963.589,827.324 965.777,827.356 967.964,827.385 970.152,827.413 972.34,827.439 974.527,827.463 
  976.715,827.486 978.903,827.508 981.09,827.529 983.278,827.549 985.466,827.568 987.653,827.587 989.841,827.605 992.029,827.622 994.216,827.639 996.404,827.655 
  998.592,827.671 1000.78,827.687 1002.97,827.703 1005.15,827.718 1007.34,827.733 1009.53,827.747 1011.72,827.762 1013.91,827.776 1016.09,827.79 1018.28,827.804 
  1020.47,827.817 1022.66,827.83 1024.84,827.843 1027.03,827.855 1029.22,827.866 1031.41,827.877 1033.59,827.887 1035.78,827.896 1037.97,827.904 1040.16,827.911 
  1042.34,827.917 1044.53,827.922 1046.72,827.925 1048.91,827.928 1051.1,827.93 1053.28,827.932 1055.47,827.933 1057.66,827.934 1059.85,827.935 1062.03,827.936 
  1064.22,827.937 1066.41,827.939 1068.6,827.94 1070.78,827.943 1072.97,827.945 1075.16,827.948 1077.35,827.952 1079.54,827.956 1081.72,827.96 1083.91,827.965 
  1086.1,827.97 1088.29,827.976 1090.47,827.982 1092.66,827.988 1094.85,827.994 1097.04,828 1099.22,828.006 1101.41,828.012 1103.6,828.018 1105.79,828.023 
  1107.97,828.027 1110.16,828.03 1112.35,828.032 1114.54,828.033 1116.73,828.032 1118.91,828.03 1121.1,828.027 1123.29,828.022 1125.48,828.018 1127.66,828.012 
  1129.85,828.007 1132.04,828.002 1134.23,827.997 1136.41,827.993 1138.6,827.989 1140.79,827.986 1142.98,827.984 1145.17,827.983 1147.35,827.982 1149.54,827.983 
  1151.73,827.984 1153.92,827.987 1156.1,827.99 1158.29,827.994 1160.48,827.999 1162.67,828.005 1164.85,828.011 1167.04,828.017 1169.23,828.024 1171.42,828.031 
  1173.6,828.037 1175.79,828.043 1177.98,828.049 1180.17,828.053 1182.36,828.056 1184.54,828.058 1186.73,828.057 1188.92,828.055 1191.11,828.05 1193.29,828.044 
  1195.48,828.037 1197.67,828.03 1199.86,828.023 1202.04,828.015 1204.23,828.008 1206.42,828.002 1208.61,827.996 1210.8,827.991 1212.98,827.987 1215.17,827.984 
  1217.36,827.983 1219.55,827.982 1221.73,827.983 1223.92,827.985 1226.11,827.988 1228.3,827.992 1230.48,827.998 1232.67,828.004 1234.86,828.01 1237.05,828.017 
  1239.23,828.025 1241.42,828.032 1243.61,828.04 1245.8,828.046 1247.99,828.052 1250.17,828.057 1252.36,828.06 1254.55,828.061 1256.74,828.059 1258.92,828.055 
  1261.11,828.049 1263.3,828.043 1265.49,828.035 1267.67,828.028 1269.86,828.02 1272.05,828.013 1274.24,828.006 1276.43,828 1278.61,827.995 1280.8,827.991 
  1282.99,827.988 1285.18,827.986 1287.36,827.985 1289.55,827.985 1291.74,827.987 1293.93,827.989 1296.11,827.993 1298.3,827.998 1300.49,828.004 1302.68,828.01 
  1304.86,828.017 1307.05,828.024 1309.24,828.031 1311.43,828.038 1313.62,828.044 1315.8,828.049 1317.99,828.053 1320.18,828.055 1322.37,828.056 1324.55,828.053 
  1326.74,828.049 1328.93,828.043 1331.12,828.037 1333.3,828.03 1335.49,828.024 1337.68,828.017 1339.87,828.011 1342.05,828.005 1344.24,828 1346.43,827.996 
  1348.62,827.992 1350.81,827.99 1352.99,827.989 1355.18,827.988 1357.37,827.989 1359.56,827.991 1361.74,827.994 1363.93,827.998 1366.12,828.002 1368.31,828.008 
  1370.49,828.013 1372.68,828.02 1374.87,828.026 1377.06,828.032 1379.25,828.037 1381.43,828.042 1383.62,828.046 1385.81,828.049 1388,828.05 1390.18,828.049 
  1392.37,828.045 1394.56,828.041 1396.75,828.035 1398.93,828.03 1401.12,828.024 1403.31,828.018 1405.5,828.012 1407.68,828.007 1409.87,828.002 1412.06,827.998 
  1414.25,827.995 1416.44,827.993 1418.62,827.991 1420.81,827.991 1423,827.991 1425.19,827.993 1427.37,827.995 1429.56,827.998 1431.75,828.002 1433.94,828.006 
  1436.12,828.011 1438.31,828.017 1440.5,828.022 1442.69,828.028 1444.88,828.033 1447.06,828.038 1449.25,828.042 1451.44,828.044 1453.63,828.046 1455.81,828.046 
  1458,828.043 1460.19,828.04 1462.38,828.035 1464.56,828.03 1466.75,828.025 1468.94,828.019 1471.13,828.014 1473.31,828.009 1475.5,828.004 1477.69,828 
  1479.88,827.997 1482.07,827.994 1484.25,827.993 1486.44,827.992 1488.63,827.992 1490.82,827.993 1493,827.994 1495.19,827.997 1497.38,828 1499.57,828.004 
  1501.75,828.008 1503.94,828.013 1506.13,828.018 1508.32,828.023 1510.51,828.029 1512.69,828.033 1514.88,828.038 1517.07,828.041 1519.26,828.043 1521.44,828.044 
  1523.63,828.044 1525.82,828.041 1528.01,828.037 1530.19,828.033 1532.38,828.028 1534.57,828.022 1536.76,828.017 1538.94,828.012 1541.13,828.007 1543.32,828.003 
  1545.51,827.999 1547.7,827.996 1549.88,827.994 1552.07,827.992 1554.26,827.991 1556.45,827.992 1558.63,827.993 1560.82,827.994 1563.01,827.997 1565.2,828 
  1567.38,828.004 1569.57,828.009 1571.76,828.014 1573.95,828.019 1576.14,828.024 1578.32,828.029 1580.51,828.034 1582.7,828.038 1584.89,828.041 1587.07,828.043 
  1589.26,828.044 1591.45,828.043 1593.64,828.041 1595.82,828.037 1598.01,828.032 1600.2,828.027 1602.39,828.022 1604.57,828.017 1606.76,828.012 1608.95,828.007 
  1611.14,828.002 1613.33,827.998 1615.51,827.995 1617.7,827.993 1619.89,827.991 1622.08,827.991 1624.26,827.991 1626.45,827.992 1628.64,827.994 1630.83,827.996 
  1633.01,828 1635.2,828.004 1637.39,828.008 1639.58,828.013 1641.76,828.018 1643.95,828.024 1646.14,828.029 1648.33,828.034 1650.52,828.038 1652.7,828.041 
  1654.89,828.044 1657.08,828.045 1659.27,828.044 1661.45,828.042 1663.64,828.038 1665.83,828.033 1668.02,828.028 1670.2,828.023 1672.39,828.017 1674.58,828.012 
  1676.77,828.007 1678.96,828.002 1681.14,827.998 1683.33,827.995 1685.52,827.992 1687.71,827.991 1689.89,827.99 1692.08,827.99 1694.27,827.991 1696.46,827.992 
  1698.64,827.995 1700.83,827.998 1703.02,828.003 1705.21,828.007 1707.39,828.012 1709.58,828.018 1711.77,828.023 1713.96,828.028 1716.15,828.033 1718.33,828.038 
  1720.52,828.042 1722.71,828.045 1724.9,828.046 1727.08,828.046 1729.27,828.043 1731.46,828.039 1733.65,828.035 1735.83,828.029 1738.02,828.024 1740.21,828.018 
  1742.4,828.013 1744.59,828.008 1746.77,828.003 1748.96,827.999 1751.15,827.995 1753.34,827.992 1755.52,827.99 1757.71,827.989 1759.9,827.989 1762.09,827.99 
  1764.27,827.992 1766.46,827.994 1768.65,827.998 1770.84,828.002 1773.02,828.006 1775.21,828.012 1777.4,828.017 1779.59,828.023 1781.78,828.028 1783.96,828.033 
  1786.15,828.038 1788.34,828.042 1790.53,828.045 1792.71,828.046 1794.9,828.046 1797.09,828.044 1799.28,828.04 1801.46,828.036 1803.65,828.03 1805.84,828.025 
  1808.03,828.019 1810.22,828.013 1812.4,828.008 1814.59,828.003 1816.78,827.999 1818.97,827.995 1821.15,827.992 1823.34,827.99 1825.53,827.989 1827.72,827.989 
  1829.9,827.99 1832.09,827.992 1834.28,827.994 1836.47,827.997 1838.65,828.001 1840.84,828.006 1843.03,828.011 1845.22,828.017 1847.41,828.022 1849.59,828.028 
  1851.78,828.033 1853.97,828.038 1856.16,828.042 1858.34,828.045 1860.53,828.047 1862.72,828.047 1864.91,828.044 1867.09,828.041 1869.28,828.036 1871.47,828.031 
  1873.66,828.025 1875.85,828.019 1878.03,828.014 1880.22,828.008 1882.41,828.003 1884.6,827.999 1886.78,827.996 1888.97,827.993 1891.16,827.991 1893.35,827.99 
  1895.53,827.989 1897.72,827.99 1899.91,827.992 1902.1,827.994 1904.28,827.998 1906.47,828.002 1908.66,828.006 1910.85,828.011 1913.04,828.017 1915.22,828.022 
  1917.41,828.028 1919.6,828.033 1921.79,828.038 1923.97,828.042 1926.16,828.045 1928.35,828.047 1930.54,828.046 1932.72,828.044 1934.91,828.04 1937.1,828.036 
  1939.29,828.031 1941.47,828.025 1943.66,828.019 1945.85,828.014 1948.04,828.008 1950.23,828.004 1952.41,827.999 1954.6,827.996 1956.79,827.993 1958.98,827.991 
  1961.16,827.99 1963.35,827.99 1965.54,827.99 1967.73,827.992 1969.91,827.994 1972.1,827.998 1974.29,828.002 1976.48,828.006 1978.67,828.011 1980.85,828.017 
  1983.04,828.022 1985.23,828.028 1987.42,828.033 1989.6,828.038 1991.79,828.042 1993.98,828.045 1996.17,828.046 1998.35,828.046 2000.54,828.044 2002.73,828.04 
  2004.92,828.035 2007.1,828.03 2009.29,828.025 2011.48,828.019 2013.67,828.014 2015.86,828.008 2018.04,828.003 2020.23,827.999 2022.42,827.996 2024.61,827.993 
  2026.79,827.991 2028.98,827.99 2031.17,827.99 2033.36,827.99 2035.54,827.992 2037.73,827.995 2039.92,827.998 2042.11,828.002 2044.3,828.007 2046.48,828.012 
  2048.67,828.017 2050.86,828.023 2053.05,828.028 2055.23,828.033 2057.42,828.038 2059.61,828.042 2061.8,828.045 2063.98,828.046 2066.17,828.046 2068.36,828.044 
  2070.55,828.04 2072.73,828.035 2074.92,828.03 2077.11,828.024 2079.3,828.019 2081.49,828.013 2083.67,828.008 2085.86,828.003 2088.05,827.999 2090.24,827.996 
  2092.42,827.993 2094.61,827.991 2096.8,827.99 2098.99,827.99 2101.17,827.991 2103.36,827.992 2105.55,827.995 2107.74,827.998 2109.93,828.002 2112.11,828.007 
  2114.3,828.012 2116.49,828.017 2118.68,828.023 2120.86,828.028 2123.05,828.033 2125.24,828.038 2127.43,828.042 2129.61,828.045 2131.8,828.046 2133.99,828.046 
  2136.18,828.043 2138.36,828.04 2140.55,828.035 2142.74,828.03 2144.93,828.024 2147.12,828.019 2149.3,828.013 2151.49,828.008 2153.68,828.003 2155.87,827.999 
  2158.05,827.995 2160.24,827.993 2162.43,827.991 2164.62,827.99 2166.8,827.99 2168.99,827.991 2171.18,827.992 2173.37,827.995 2175.56,827.998 2177.74,828.002 
  2179.93,828.007 2182.12,828.012 2184.31,828.017 2186.49,828.023 2188.68,828.028 2190.87,828.033 2193.06,828.038 2195.24,828.042 2197.43,828.045 2199.62,828.046 
  2201.81,828.046 2203.99,828.043 2206.18,828.04 2208.37,828.035 2210.56,828.03 2212.75,828.024 2214.93,828.019 2217.12,828.013 2219.31,828.008 2221.5,828.003 
  2223.68,827.999 2225.87,827.995 2228.06,827.993 2230.25,827.991 2232.43,827.99 2234.62,827.99 2236.81,827.991 2239,827.992 2241.19,827.995 2243.37,827.998 
  2245.56,828.002 2247.75,828.007 2249.94,828.012 2252.12,828.017 2254.31,828.023 2256.5,828.028 2258.69,828.033 2260.87,828.038 2263.06,828.042 2265.25,828.045 
  2267.44,828.046 2269.62,828.046 2271.81,828.044 2274,828.04 2276.19,828.035 2278.38,828.03 2280.56,828.024 2282.75,828.019 2284.94,828.013 2287.13,828.008 
  2289.31,828.003 2291.5,827.999 2293.69,827.995 2295.88,827.993 2298.06,827.991 2300.25,827.99 2302.44,827.99 2304.63,827.99 2306.81,827.992 2309,827.995 
  2311.19,827.998 2313.38,828.002 2315.57,828.007 2317.75,828.012 2319.94,828.017 2322.13,828.023 2324.32,828.028 2326.5,828.033 2328.69,828.038 2330.88,828.042 
  2333.07,828.045 2335.25,828.046 2337.44,828.046 2339.63,828.044 2341.82,828.041 2344.01,828.038 2346.19,828.036 2348.38,828.033 2350.57,828.032 2352.76,828.03 
  
  "/>
<polyline clip-path="url(#clip0502)" style="stroke:#3da44d; stroke-width:12; stroke-opacity:1; fill:none" points="
  167.279,1386.61 169.467,1386.38 171.654,1386.15 173.842,1385.94 176.03,1385.73 178.217,1385.53 180.405,1385.34 182.593,1385.15 184.78,1384.97 186.968,1384.8 
  189.156,1384.63 191.343,1384.46 193.531,1384.29 195.719,1384.13 197.906,1383.97 200.094,1383.81 202.282,1383.66 204.469,1383.5 206.657,1383.35 208.845,1383.2 
  211.032,1383.05 213.22,1382.89 215.408,1382.74 217.595,1382.59 219.783,1382.44 221.971,1382.28 224.158,1382.13 226.346,1381.97 228.534,1381.81 230.721,1381.65 
  232.909,1381.49 235.097,1381.33 237.284,1381.16 239.472,1380.99 241.66,1380.82 243.847,1380.64 246.035,1380.46 248.223,1380.28 250.41,1380.1 252.598,1379.91 
  254.786,1379.72 256.973,1379.52 259.161,1379.32 261.349,1379.11 263.536,1378.9 265.724,1378.69 267.912,1378.47 270.099,1378.25 272.287,1378.02 274.475,1377.78 
  276.662,1377.54 278.85,1377.3 281.038,1377.05 283.225,1376.79 285.413,1376.52 287.601,1376.25 289.788,1375.98 291.976,1375.69 294.164,1375.4 296.351,1375.1 
  298.539,1374.8 300.727,1374.49 302.914,1374.17 305.102,1373.84 307.29,1373.5 309.477,1373.16 311.665,1372.8 313.853,1372.44 316.04,1372.07 318.228,1371.69 
  320.416,1371.3 322.603,1370.9 324.791,1370.49 326.979,1370.07 329.166,1369.64 331.354,1369.2 333.542,1368.75 335.729,1368.29 337.917,1367.82 340.105,1367.33 
  342.292,1366.83 344.48,1366.32 346.668,1365.8 348.855,1365.27 351.043,1364.72 353.231,1364.16 355.418,1363.59 357.606,1363 359.794,1362.4 361.981,1361.78 
  364.169,1361.15 366.357,1360.5 368.544,1359.84 370.732,1359.16 372.92,1358.47 375.107,1357.76 377.295,1357.04 379.483,1356.29 381.67,1355.53 383.858,1354.76 
  386.046,1353.96 388.233,1353.15 390.421,1352.32 392.609,1351.46 394.796,1350.59 396.984,1349.7 399.172,1348.79 401.359,1347.86 403.547,1346.91 405.735,1345.94 
  407.922,1344.94 410.11,1343.93 412.298,1342.89 414.485,1341.83 416.673,1340.75 418.861,1339.64 421.048,1338.51 423.236,1337.36 425.424,1336.18 427.611,1334.98 
  429.799,1333.75 431.987,1332.5 434.174,1331.22 436.362,1329.92 438.55,1328.59 440.737,1327.24 442.925,1325.85 445.113,1324.44 447.3,1323.01 449.488,1321.54 
  451.676,1320.05 453.863,1318.53 456.051,1316.98 458.239,1315.4 460.426,1313.79 462.614,1312.16 464.802,1310.49 466.989,1308.8 469.177,1307.07 471.365,1305.32 
  473.552,1303.53 475.74,1301.72 477.927,1299.88 480.115,1298 482.303,1296.1 484.49,1294.17 486.678,1292.2 488.866,1290.21 491.053,1288.18 493.241,1286.13 
  495.429,1284.04 497.616,1281.93 499.804,1279.78 501.992,1277.6 504.179,1275.4 506.367,1273.16 508.555,1270.9 510.742,1268.61 512.93,1266.28 515.118,1263.94 
  517.305,1261.56 519.493,1259.15 521.681,1256.72 523.868,1254.26 526.056,1251.78 528.244,1249.27 530.431,1246.73 532.619,1244.17 534.807,1241.59 536.994,1238.98 
  539.182,1236.35 541.37,1233.7 543.557,1231.03 545.745,1228.34 547.933,1225.62 550.12,1222.89 552.308,1220.14 554.496,1217.37 556.683,1214.59 558.871,1211.79 
  561.059,1208.97 563.246,1206.14 565.434,1203.3 567.622,1200.45 569.809,1197.59 571.997,1194.72 574.185,1191.84 576.372,1188.95 578.56,1186.06 580.748,1183.16 
  582.935,1180.26 585.123,1177.36 587.311,1174.45 589.498,1171.55 591.686,1168.64 593.874,1165.74 596.061,1162.84 598.249,1159.94 600.437,1157.05 602.624,1154.16 
  604.812,1151.29 607,1148.42 609.187,1145.56 611.375,1142.71 613.563,1139.87 615.75,1137.05 617.938,1134.24 620.126,1131.45 622.313,1128.67 624.501,1125.92 
  626.689,1123.18 628.876,1120.46 631.064,1117.76 633.252,1115.09 635.439,1112.43 637.627,1109.8 639.815,1107.2 642.002,1104.62 644.19,1102.06 646.378,1099.53 
  648.565,1097.03 650.753,1094.55 652.941,1092.11 655.128,1089.69 657.316,1087.3 659.504,1084.94 661.691,1082.61 663.879,1080.31 666.067,1078.05 668.254,1075.82 
  670.442,1073.62 672.63,1071.45 674.817,1069.32 677.005,1067.23 679.193,1065.17 681.38,1063.14 683.568,1061.15 685.756,1059.19 687.943,1057.27 690.131,1055.38 
  692.319,1053.53 694.506,1051.71 696.694,1049.92 698.882,1048.17 701.069,1046.45 703.257,1044.77 705.445,1043.12 707.632,1041.5 709.82,1039.92 712.008,1038.37 
  714.195,1036.85 716.383,1035.37 718.571,1033.92 720.758,1032.5 722.946,1031.12 725.134,1029.78 727.321,1028.46 729.509,1027.18 731.697,1025.93 733.884,1024.71 
  736.072,1023.52 738.26,1022.36 740.447,1021.23 742.635,1020.13 744.823,1019.06 747.01,1018.02 749.198,1017 751.386,1016.01 753.573,1015.05 755.761,1014.11 
  757.949,1013.2 760.136,1012.31 762.324,1011.45 764.512,1010.61 766.699,1009.79 768.887,1009 771.075,1008.24 773.262,1007.49 775.45,1006.77 777.638,1006.07 
  779.825,1005.4 782.013,1004.74 784.201,1004.11 786.388,1003.5 788.576,1002.91 790.764,1002.33 792.951,1001.78 795.139,1001.24 797.326,1000.72 799.514,1000.21 
  801.702,999.725 803.889,999.254 806.077,998.797 808.265,998.356 810.452,997.929 812.64,997.516 814.828,997.118 817.015,996.732 819.203,996.36 821.391,996.001 
  823.578,995.654 825.766,995.32 827.954,994.997 830.141,994.687 832.329,994.388 834.517,994.1 836.704,993.824 838.892,993.559 841.08,993.303 843.267,993.058 
  845.455,992.822 847.643,992.595 849.83,992.377 852.018,992.167 854.206,991.965 856.393,991.771 858.581,991.584 860.769,991.405 862.956,991.232 865.144,991.066 
  867.332,990.907 869.519,990.754 871.707,990.607 873.895,990.466 876.082,990.33 878.27,990.2 880.458,990.075 882.645,989.955 884.833,989.84 887.021,989.729 
  889.208,989.624 891.396,989.523 893.584,989.426 895.771,989.334 897.959,989.246 900.147,989.162 902.334,989.083 904.522,989.006 906.71,988.934 908.897,988.864 
  911.085,988.798 913.273,988.735 915.46,988.674 917.648,988.616 919.836,988.561 922.023,988.509 924.211,988.459 926.399,988.411 928.586,988.365 930.774,988.322 
  932.962,988.28 935.149,988.241 937.337,988.203 939.525,988.167 941.712,988.133 943.9,988.101 946.088,988.07 948.275,988.04 950.463,988.012 952.651,987.985 
  954.838,987.96 957.026,987.936 959.214,987.913 961.401,987.892 963.589,987.872 965.777,987.853 967.964,987.835 970.152,987.818 972.34,987.802 974.527,987.787 
  976.715,987.774 978.903,987.76 981.09,987.748 983.278,987.736 985.466,987.726 987.653,987.715 989.841,987.706 992.029,987.696 994.216,987.688 996.404,987.68 
  998.592,987.672 1000.78,987.665 1002.97,987.658 1005.15,987.652 1007.34,987.646 1009.53,987.64 1011.72,987.634 1013.91,987.629 1016.09,987.625 1018.28,987.62 
  1020.47,987.616 1022.66,987.612 1024.84,987.608 1027.03,987.605 1029.22,987.602 1031.41,987.599 1033.59,987.596 1035.78,987.594 1037.97,987.592 1040.16,987.59 
  1042.34,987.589 1044.53,987.588 1046.72,987.587 1048.91,987.587 1051.1,987.586 1053.28,987.586 1055.47,987.586 1057.66,987.586 1059.85,987.586 1062.03,987.586 
  1064.22,987.587 1066.41,987.587 1068.6,987.587 1070.78,987.587 1072.97,987.587 1075.16,987.587 1077.35,987.587 1079.54,987.587 1081.72,987.587 1083.91,987.586 
  1086.1,987.586 1088.29,987.586 1090.47,987.585 1092.66,987.585 1094.85,987.584 1097.04,987.584 1099.22,987.583 1101.41,987.583 1103.6,987.582 1105.79,987.582 
  1107.97,987.582 1110.16,987.582 1112.35,987.583 1114.54,987.583 1116.73,987.584 1118.91,987.585 1121.1,987.587 1123.29,987.588 1125.48,987.59 1127.66,987.591 
  1129.85,987.593 1132.04,987.595 1134.23,987.596 1136.41,987.598 1138.6,987.599 1140.79,987.601 1142.98,987.602 1145.17,987.602 1147.35,987.603 1149.54,987.604 
  1151.73,987.604 1153.92,987.604 1156.1,987.604 1158.29,987.603 1160.48,987.603 1162.67,987.602 1164.85,987.601 1167.04,987.6 1169.23,987.599 1171.42,987.598 
  1173.6,987.597 1175.79,987.597 1177.98,987.596 1180.17,987.595 1182.36,987.595 1184.54,987.595 1186.73,987.596 1188.92,987.596 1191.11,987.598 1193.29,987.599 
  1195.48,987.601 1197.67,987.603 1199.86,987.605 1202.04,987.606 1204.23,987.608 1206.42,987.61 1208.61,987.611 1210.8,987.613 1212.98,987.614 1215.17,987.614 
  1217.36,987.615 1219.55,987.615 1221.73,987.615 1223.92,987.615 1226.11,987.615 1228.3,987.614 1230.48,987.613 1232.67,987.612 1234.86,987.611 1237.05,987.609 
  1239.23,987.608 1241.42,987.607 1243.61,987.605 1245.8,987.604 1247.99,987.603 1250.17,987.602 1252.36,987.602 1254.55,987.602 1256.74,987.602 1258.92,987.603 
  1261.11,987.604 1263.3,987.606 1265.49,987.607 1267.67,987.609 1269.86,987.611 1272.05,987.612 1274.24,987.614 1276.43,987.615 1278.61,987.616 1280.8,987.617 
  1282.99,987.618 1285.18,987.618 1287.36,987.619 1289.55,987.619 1291.74,987.618 1293.93,987.618 1296.11,987.617 1298.3,987.616 1300.49,987.615 1302.68,987.614 
  1304.86,987.612 1307.05,987.611 1309.24,987.61 1311.43,987.608 1313.62,987.607 1315.8,987.606 1317.99,987.605 1320.18,987.605 1322.37,987.605 1324.55,987.605 
  1326.74,987.606 1328.93,987.607 1331.12,987.609 1333.3,987.61 1335.49,987.611 1337.68,987.613 1339.87,987.614 1342.05,987.615 1344.24,987.616 1346.43,987.617 
  1348.62,987.618 1350.81,987.619 1352.99,987.619 1355.18,987.619 1357.37,987.619 1359.56,987.618 1361.74,987.618 1363.93,987.617 1366.12,987.616 1368.31,987.615 
  1370.49,987.614 1372.68,987.613 1374.87,987.611 1377.06,987.61 1379.25,987.609 1381.43,987.608 1383.62,987.607 1385.81,987.606 1388,987.606 1390.18,987.607 
  1392.37,987.607 1394.56,987.608 1396.75,987.609 1398.93,987.611 1401.12,987.612 1403.31,987.613 1405.5,987.614 1407.68,987.615 1409.87,987.616 1412.06,987.617 
  1414.25,987.618 1416.44,987.618 1418.62,987.619 1420.81,987.619 1423,987.619 1425.19,987.618 1427.37,987.618 1429.56,987.617 1431.75,987.616 1433.94,987.615 
  1436.12,987.614 1438.31,987.613 1440.5,987.612 1442.69,987.611 1444.88,987.61 1447.06,987.609 1449.25,987.608 1451.44,987.608 1453.63,987.607 1455.81,987.607 
  1458,987.608 1460.19,987.609 1462.38,987.609 1464.56,987.611 1466.75,987.612 1468.94,987.613 1471.13,987.614 1473.31,987.615 1475.5,987.616 1477.69,987.617 
  1479.88,987.617 1482.07,987.618 1484.25,987.618 1486.44,987.619 1488.63,987.619 1490.82,987.618 1493,987.618 1495.19,987.617 1497.38,987.617 1499.57,987.616 
  1501.75,987.615 1503.94,987.614 1506.13,987.613 1508.32,987.612 1510.51,987.611 1512.69,987.61 1514.88,987.609 1517.07,987.608 1519.26,987.608 1521.44,987.608 
  1523.63,987.608 1525.82,987.608 1528.01,987.609 1530.19,987.61 1532.38,987.611 1534.57,987.612 1536.76,987.613 1538.94,987.614 1541.13,987.615 1543.32,987.616 
  1545.51,987.617 1547.7,987.618 1549.88,987.618 1552.07,987.618 1554.26,987.619 1556.45,987.619 1558.63,987.618 1560.82,987.618 1563.01,987.617 1565.2,987.617 
  1567.38,987.616 1569.57,987.615 1571.76,987.614 1573.95,987.613 1576.14,987.612 1578.32,987.611 1580.51,987.61 1582.7,987.609 1584.89,987.608 1587.07,987.608 
  1589.26,987.608 1591.45,987.608 1593.64,987.608 1595.82,987.609 1598.01,987.61 1600.2,987.611 1602.39,987.612 1604.57,987.613 1606.76,987.614 1608.95,987.615 
  1611.14,987.616 1613.33,987.617 1615.51,987.618 1617.7,987.618 1619.89,987.619 1622.08,987.619 1624.26,987.619 1626.45,987.619 1628.64,987.618 1630.83,987.618 
  1633.01,987.617 1635.2,987.616 1637.39,987.615 1639.58,987.614 1641.76,987.613 1643.95,987.612 1646.14,987.611 1648.33,987.61 1650.52,987.609 1652.7,987.608 
  1654.89,987.608 1657.08,987.607 1659.27,987.608 1661.45,987.608 1663.64,987.609 1665.83,987.61 1668.02,987.611 1670.2,987.612 1672.39,987.613 1674.58,987.614 
  1676.77,987.615 1678.96,987.616 1681.14,987.617 1683.33,987.618 1685.52,987.618 1687.71,987.619 1689.89,987.619 1692.08,987.619 1694.27,987.619 1696.46,987.618 
  1698.64,987.618 1700.83,987.617 1703.02,987.616 1705.21,987.615 1707.39,987.614 1709.58,987.613 1711.77,987.612 1713.96,987.611 1716.15,987.61 1718.33,987.609 
  1720.52,987.608 1722.71,987.608 1724.9,987.607 1727.08,987.607 1729.27,987.608 1731.46,987.609 1733.65,987.61 1735.83,987.611 1738.02,987.612 1740.21,987.613 
  1742.4,987.614 1744.59,987.615 1746.77,987.616 1748.96,987.617 1751.15,987.618 1753.34,987.618 1755.52,987.619 1757.71,987.619 1759.9,987.619 1762.09,987.619 
  1764.27,987.619 1766.46,987.618 1768.65,987.617 1770.84,987.616 1773.02,987.615 1775.21,987.614 1777.4,987.613 1779.59,987.612 1781.78,987.611 1783.96,987.61 
  1786.15,987.609 1788.34,987.608 1790.53,987.607 1792.71,987.607 1794.9,987.607 1797.09,987.608 1799.28,987.608 1801.46,987.609 1803.65,987.61 1805.84,987.612 
  1808.03,987.613 1810.22,987.614 1812.4,987.615 1814.59,987.616 1816.78,987.617 1818.97,987.618 1821.15,987.618 1823.34,987.619 1825.53,987.619 1827.72,987.619 
  1829.9,987.619 1832.09,987.619 1834.28,987.618 1836.47,987.617 1838.65,987.616 1840.84,987.616 1843.03,987.614 1845.22,987.613 1847.41,987.612 1849.59,987.611 
  1851.78,987.61 1853.97,987.609 1856.16,987.608 1858.34,987.607 1860.53,987.607 1862.72,987.607 1864.91,987.608 1867.09,987.608 1869.28,987.609 1871.47,987.61 
  1873.66,987.612 1875.85,987.613 1878.03,987.614 1880.22,987.615 1882.41,987.616 1884.6,987.617 1886.78,987.618 1888.97,987.618 1891.16,987.619 1893.35,987.619 
  1895.53,987.619 1897.72,987.619 1899.91,987.619 1902.1,987.618 1904.28,987.617 1906.47,987.616 1908.66,987.616 1910.85,987.614 1913.04,987.613 1915.22,987.612 
  1917.41,987.611 1919.6,987.61 1921.79,987.609 1923.97,987.608 1926.16,987.607 1928.35,987.607 1930.54,987.607 1932.72,987.608 1934.91,987.608 1937.1,987.609 
  1939.29,987.61 1941.47,987.612 1943.66,987.613 1945.85,987.614 1948.04,987.615 1950.23,987.616 1952.41,987.617 1954.6,987.618 1956.79,987.618 1958.98,987.619 
  1961.16,987.619 1963.35,987.619 1965.54,987.619 1967.73,987.618 1969.91,987.618 1972.1,987.617 1974.29,987.616 1976.48,987.615 1978.67,987.614 1980.85,987.613 
  1983.04,987.612 1985.23,987.611 1987.42,987.61 1989.6,987.609 1991.79,987.608 1993.98,987.607 1996.17,987.607 1998.35,987.607 2000.54,987.608 2002.73,987.608 
  2004.92,987.609 2007.1,987.61 2009.29,987.612 2011.48,987.613 2013.67,987.614 2015.86,987.615 2018.04,987.616 2020.23,987.617 2022.42,987.618 2024.61,987.618 
  2026.79,987.619 2028.98,987.619 2031.17,987.619 2033.36,987.619 2035.54,987.618 2037.73,987.618 2039.92,987.617 2042.11,987.616 2044.3,987.615 2046.48,987.614 
  2048.67,987.613 2050.86,987.612 2053.05,987.611 2055.23,987.61 2057.42,987.609 2059.61,987.608 2061.8,987.607 2063.98,987.607 2066.17,987.607 2068.36,987.608 
  2070.55,987.608 2072.73,987.609 2074.92,987.611 2077.11,987.612 2079.3,987.613 2081.49,987.614 2083.67,987.615 2085.86,987.616 2088.05,987.617 2090.24,987.618 
  2092.42,987.618 2094.61,987.619 2096.8,987.619 2098.99,987.619 2101.17,987.619 2103.36,987.618 2105.55,987.618 2107.74,987.617 2109.93,987.616 2112.11,987.615 
  2114.3,987.614 2116.49,987.613 2118.68,987.612 2120.86,987.611 2123.05,987.61 2125.24,987.609 2127.43,987.608 2129.61,987.607 2131.8,987.607 2133.99,987.607 
  2136.18,987.608 2138.36,987.609 2140.55,987.609 2142.74,987.611 2144.93,987.612 2147.12,987.613 2149.3,987.614 2151.49,987.615 2153.68,987.616 2155.87,987.617 
  2158.05,987.618 2160.24,987.618 2162.43,987.619 2164.62,987.619 2166.8,987.619 2168.99,987.619 2171.18,987.618 2173.37,987.618 2175.56,987.617 2177.74,987.616 
  2179.93,987.615 2182.12,987.614 2184.31,987.613 2186.49,987.612 2188.68,987.611 2190.87,987.61 2193.06,987.609 2195.24,987.608 2197.43,987.607 2199.62,987.607 
  2201.81,987.607 2203.99,987.608 2206.18,987.609 2208.37,987.61 2210.56,987.611 2212.75,987.612 2214.93,987.613 2217.12,987.614 2219.31,987.615 2221.5,987.616 
  2223.68,987.617 2225.87,987.618 2228.06,987.618 2230.25,987.619 2232.43,987.619 2234.62,987.619 2236.81,987.619 2239,987.618 2241.19,987.618 2243.37,987.617 
  2245.56,987.616 2247.75,987.615 2249.94,987.614 2252.12,987.613 2254.31,987.612 2256.5,987.611 2258.69,987.61 2260.87,987.609 2263.06,987.608 2265.25,987.607 
  2267.44,987.607 2269.62,987.607 2271.81,987.608 2274,987.609 2276.19,987.609 2278.38,987.611 2280.56,987.612 2282.75,987.613 2284.94,987.614 2287.13,987.615 
  2289.31,987.616 2291.5,987.617 2293.69,987.618 2295.88,987.618 2298.06,987.619 2300.25,987.619 2302.44,987.619 2304.63,987.619 2306.81,987.618 2309,987.618 
  2311.19,987.617 2313.38,987.616 2315.57,987.615 2317.75,987.614 2319.94,987.613 2322.13,987.612 2324.32,987.611 2326.5,987.61 2328.69,987.609 2330.88,987.608 
  2333.07,987.607 2335.25,987.607 2337.44,987.607 2339.63,987.608 2341.82,987.608 2344.01,987.609 2346.19,987.609 2348.38,987.61 2350.57,987.61 2352.76,987.611 
  
  "/>
<polyline clip-path="url(#clip0502)" style="stroke:#c271d2; stroke-width:12; stroke-opacity:1; fill:none" points="
  167.279,1386.61 169.467,1386.61 171.654,1386.6 173.842,1386.58 176.03,1386.57 178.217,1386.55 180.405,1386.53 182.593,1386.5 184.78,1386.48 186.968,1386.45 
  189.156,1386.42 191.343,1386.39 193.531,1386.36 195.719,1386.32 197.906,1386.29 200.094,1386.26 202.282,1386.23 204.469,1386.19 206.657,1386.16 208.845,1386.12 
  211.032,1386.09 213.22,1386.06 215.408,1386.02 217.595,1385.99 219.783,1385.95 221.971,1385.92 224.158,1385.88 226.346,1385.85 228.534,1385.81 230.721,1385.78 
  232.909,1385.74 235.097,1385.7 237.284,1385.67 239.472,1385.63 241.66,1385.59 243.847,1385.56 246.035,1385.52 248.223,1385.48 250.41,1385.44 252.598,1385.4 
  254.786,1385.36 256.973,1385.32 259.161,1385.28 261.349,1385.24 263.536,1385.2 265.724,1385.16 267.912,1385.11 270.099,1385.07 272.287,1385.02 274.475,1384.98 
  276.662,1384.93 278.85,1384.88 281.038,1384.83 283.225,1384.78 285.413,1384.73 287.601,1384.68 289.788,1384.62 291.976,1384.57 294.164,1384.51 296.351,1384.45 
  298.539,1384.4 300.727,1384.34 302.914,1384.27 305.102,1384.21 307.29,1384.15 309.477,1384.08 311.665,1384.01 313.853,1383.94 316.04,1383.87 318.228,1383.8 
  320.416,1383.72 322.603,1383.65 324.791,1383.57 326.979,1383.49 329.166,1383.41 331.354,1383.32 333.542,1383.24 335.729,1383.15 337.917,1383.06 340.105,1382.97 
  342.292,1382.87 344.48,1382.77 346.668,1382.67 348.855,1382.57 351.043,1382.47 353.231,1382.36 355.418,1382.25 357.606,1382.14 359.794,1382.02 361.981,1381.9 
  364.169,1381.78 366.357,1381.66 368.544,1381.53 370.732,1381.4 372.92,1381.27 375.107,1381.13 377.295,1380.99 379.483,1380.85 381.67,1380.71 383.858,1380.56 
  386.046,1380.4 388.233,1380.25 390.421,1380.09 392.609,1379.92 394.796,1379.75 396.984,1379.58 399.172,1379.41 401.359,1379.23 403.547,1379.04 405.735,1378.85 
  407.922,1378.66 410.11,1378.46 412.298,1378.26 414.485,1378.06 416.673,1377.85 418.861,1377.63 421.048,1377.41 423.236,1377.19 425.424,1376.96 427.611,1376.72 
  429.799,1376.48 431.987,1376.24 434.174,1375.99 436.362,1375.73 438.55,1375.47 440.737,1375.21 442.925,1374.93 445.113,1374.66 447.3,1374.37 449.488,1374.08 
  451.676,1373.79 453.863,1373.49 456.051,1373.18 458.239,1372.87 460.426,1372.55 462.614,1372.23 464.802,1371.9 466.989,1371.56 469.177,1371.22 471.365,1370.87 
  473.552,1370.51 475.74,1370.15 477.927,1369.78 480.115,1369.4 482.303,1369.01 484.49,1368.62 486.678,1368.23 488.866,1367.82 491.053,1367.41 493.241,1366.99 
  495.429,1366.57 497.616,1366.14 499.804,1365.7 501.992,1365.26 504.179,1364.81 506.367,1364.35 508.555,1363.88 510.742,1363.41 512.93,1362.94 515.118,1362.45 
  517.305,1361.96 519.493,1361.46 521.681,1360.96 523.868,1360.44 526.056,1359.92 528.244,1359.39 530.431,1358.86 532.619,1358.32 534.807,1357.77 536.994,1357.22 
  539.182,1356.66 541.37,1356.09 543.557,1355.52 545.745,1354.94 547.933,1354.36 550.12,1353.78 552.308,1353.18 554.496,1352.59 556.683,1351.99 558.871,1351.38 
  561.059,1350.77 563.246,1350.16 565.434,1349.54 567.622,1348.92 569.809,1348.29 571.997,1347.65 574.185,1347.01 576.372,1346.37 578.56,1345.72 580.748,1345.07 
  582.935,1344.41 585.123,1343.75 587.311,1343.09 589.498,1342.43 591.686,1341.77 593.874,1341.1 596.061,1340.44 598.249,1339.77 600.437,1339.11 602.624,1338.45 
  604.812,1337.78 607,1337.12 609.187,1336.45 611.375,1335.79 613.563,1335.13 615.75,1334.47 617.938,1333.81 620.126,1333.14 622.313,1332.48 624.501,1331.82 
  626.689,1331.16 628.876,1330.49 631.064,1329.84 633.252,1329.18 635.439,1328.52 637.627,1327.88 639.815,1327.23 642.002,1326.59 644.19,1325.95 646.378,1325.32 
  648.565,1324.7 650.753,1324.08 652.941,1323.47 655.128,1322.86 657.316,1322.26 659.504,1321.67 661.691,1321.08 663.879,1320.5 666.067,1319.92 668.254,1319.35 
  670.442,1318.78 672.63,1318.21 674.817,1317.65 677.005,1317.1 679.193,1316.55 681.38,1316.01 683.568,1315.47 685.756,1314.94 687.943,1314.42 690.131,1313.91 
  692.319,1313.41 694.506,1312.91 696.694,1312.43 698.882,1311.95 701.069,1311.48 703.257,1311.02 705.445,1310.57 707.632,1310.12 709.82,1309.69 712.008,1309.26 
  714.195,1308.84 716.383,1308.43 718.571,1308.03 720.758,1307.63 722.946,1307.24 725.134,1306.85 727.321,1306.47 729.509,1306.1 731.697,1305.73 733.884,1305.37 
  736.072,1305.02 738.26,1304.68 740.447,1304.34 742.635,1304.01 744.823,1303.7 747.01,1303.38 749.198,1303.08 751.386,1302.79 753.573,1302.5 755.761,1302.22 
  757.949,1301.95 760.136,1301.68 762.324,1301.42 764.512,1301.17 766.699,1300.93 768.887,1300.69 771.075,1300.46 773.262,1300.23 775.45,1300.01 777.638,1299.79 
  779.825,1299.58 782.013,1299.37 784.201,1299.17 786.388,1298.97 788.576,1298.78 790.764,1298.59 792.951,1298.41 795.139,1298.24 797.326,1298.07 799.514,1297.9 
  801.702,1297.74 803.889,1297.59 806.077,1297.44 808.265,1297.3 810.452,1297.16 812.64,1297.03 814.828,1296.9 817.015,1296.77 819.203,1296.65 821.391,1296.53 
  823.578,1296.42 825.766,1296.31 827.954,1296.21 830.141,1296.1 832.329,1296.01 834.517,1295.91 836.704,1295.81 838.892,1295.72 841.08,1295.63 843.267,1295.55 
  845.455,1295.46 847.643,1295.38 849.83,1295.3 852.018,1295.23 854.206,1295.15 856.393,1295.09 858.581,1295.02 860.769,1294.95 862.956,1294.89 865.144,1294.83 
  867.332,1294.78 869.519,1294.72 871.707,1294.67 873.895,1294.62 876.082,1294.57 878.27,1294.53 880.458,1294.49 882.645,1294.44 884.833,1294.4 887.021,1294.37 
  889.208,1294.33 891.396,1294.29 893.584,1294.26 895.771,1294.23 897.959,1294.19 900.147,1294.16 902.334,1294.13 904.522,1294.1 906.71,1294.07 908.897,1294.04 
  911.085,1294.01 913.273,1293.99 915.46,1293.96 917.648,1293.94 919.836,1293.91 922.023,1293.89 924.211,1293.87 926.399,1293.85 928.586,1293.83 930.774,1293.82 
  932.962,1293.8 935.149,1293.78 937.337,1293.77 939.525,1293.76 941.712,1293.75 943.9,1293.73 946.088,1293.72 948.275,1293.71 950.463,1293.7 952.651,1293.7 
  954.838,1293.69 957.026,1293.68 959.214,1293.67 961.401,1293.67 963.589,1293.66 965.777,1293.65 967.964,1293.64 970.152,1293.63 972.34,1293.63 974.527,1293.62 
  976.715,1293.61 978.903,1293.6 981.09,1293.59 983.278,1293.58 985.466,1293.57 987.653,1293.56 989.841,1293.56 992.029,1293.55 994.216,1293.54 996.404,1293.54 
  998.592,1293.53 1000.78,1293.53 1002.97,1293.53 1005.15,1293.53 1007.34,1293.52 1009.53,1293.52 1011.72,1293.52 1013.91,1293.52 1016.09,1293.52 1018.28,1293.53 
  1020.47,1293.53 1022.66,1293.53 1024.84,1293.53 1027.03,1293.53 1029.22,1293.53 1031.41,1293.54 1033.59,1293.54 1035.78,1293.54 1037.97,1293.54 1040.16,1293.54 
  1042.34,1293.53 1044.53,1293.53 1046.72,1293.53 1048.91,1293.52 1051.1,1293.51 1053.28,1293.51 1055.47,1293.5 1057.66,1293.5 1059.85,1293.49 1062.03,1293.48 
  1064.22,1293.48 1066.41,1293.47 1068.6,1293.47 1070.78,1293.47 1072.97,1293.47 1075.16,1293.47 1077.35,1293.47 1079.54,1293.47 1081.72,1293.47 1083.91,1293.48 
  1086.1,1293.48 1088.29,1293.48 1090.47,1293.49 1092.66,1293.5 1094.85,1293.5 1097.04,1293.51 1099.22,1293.52 1101.41,1293.52 1103.6,1293.53 1105.79,1293.53 
  1107.97,1293.54 1110.16,1293.54 1112.35,1293.54 1114.54,1293.54 1116.73,1293.54 1118.91,1293.53 1121.1,1293.53 1123.29,1293.52 1125.48,1293.51 1127.66,1293.5 
  1129.85,1293.49 1132.04,1293.49 1134.23,1293.48 1136.41,1293.47 1138.6,1293.46 1140.79,1293.46 1142.98,1293.45 1145.17,1293.45 1147.35,1293.45 1149.54,1293.45 
  1151.73,1293.45 1153.92,1293.46 1156.1,1293.46 1158.29,1293.47 1160.48,1293.48 1162.67,1293.48 1164.85,1293.49 1167.04,1293.5 1169.23,1293.51 1171.42,1293.52 
  1173.6,1293.53 1175.79,1293.54 1177.98,1293.55 1180.17,1293.56 1182.36,1293.56 1184.54,1293.56 1186.73,1293.56 1188.92,1293.56 1191.11,1293.55 1193.29,1293.54 
  1195.48,1293.53 1197.67,1293.52 1199.86,1293.51 1202.04,1293.5 1204.23,1293.49 1206.42,1293.48 1208.61,1293.47 1210.8,1293.46 1212.98,1293.46 1215.17,1293.45 
  1217.36,1293.45 1219.55,1293.45 1221.73,1293.45 1223.92,1293.46 1226.11,1293.46 1228.3,1293.47 1230.48,1293.47 1232.67,1293.48 1234.86,1293.49 1237.05,1293.51 
  1239.23,1293.52 1241.42,1293.53 1243.61,1293.54 1245.8,1293.55 1247.99,1293.56 1250.17,1293.57 1252.36,1293.57 1254.55,1293.57 1256.74,1293.57 1258.92,1293.56 
  1261.11,1293.56 1263.3,1293.55 1265.49,1293.53 1267.67,1293.52 1269.86,1293.51 1272.05,1293.5 1274.24,1293.49 1276.43,1293.48 1278.61,1293.47 1280.8,1293.47 
  1282.99,1293.46 1285.18,1293.46 1287.36,1293.46 1289.55,1293.46 1291.74,1293.46 1293.93,1293.47 1296.11,1293.47 1298.3,1293.48 1300.49,1293.49 1302.68,1293.5 
  1304.86,1293.51 1307.05,1293.52 1309.24,1293.53 1311.43,1293.54 1313.62,1293.55 1315.8,1293.56 1317.99,1293.56 1320.18,1293.57 1322.37,1293.57 1324.55,1293.56 
  1326.74,1293.56 1328.93,1293.55 1331.12,1293.54 1333.3,1293.53 1335.49,1293.52 1337.68,1293.51 1339.87,1293.5 1342.05,1293.49 1344.24,1293.48 1346.43,1293.48 
  1348.62,1293.47 1350.81,1293.47 1352.99,1293.47 1355.18,1293.47 1357.37,1293.47 1359.56,1293.47 1361.74,1293.48 1363.93,1293.48 1366.12,1293.49 1368.31,1293.5 
  1370.49,1293.51 1372.68,1293.51 1374.87,1293.52 1377.06,1293.53 1379.25,1293.54 1381.43,1293.55 1383.62,1293.56 1385.81,1293.56 1388,1293.56 1390.18,1293.56 
  1392.37,1293.55 1394.56,1293.55 1396.75,1293.54 1398.93,1293.53 1401.12,1293.52 1403.31,1293.51 1405.5,1293.5 1407.68,1293.5 1409.87,1293.49 1412.06,1293.48 
  1414.25,1293.48 1416.44,1293.47 1418.62,1293.47 1420.81,1293.47 1423,1293.47 1425.19,1293.47 1427.37,1293.48 1429.56,1293.48 1431.75,1293.49 1433.94,1293.49 
  1436.12,1293.5 1438.31,1293.51 1440.5,1293.52 1442.69,1293.53 1444.88,1293.54 1447.06,1293.54 1449.25,1293.55 1451.44,1293.55 1453.63,1293.55 1455.81,1293.55 
  1458,1293.55 1460.19,1293.55 1462.38,1293.54 1464.56,1293.53 1466.75,1293.52 1468.94,1293.51 1471.13,1293.51 1473.31,1293.5 1475.5,1293.49 1477.69,1293.49 
  1479.88,1293.48 1482.07,1293.48 1484.25,1293.47 1486.44,1293.47 1488.63,1293.47 1490.82,1293.47 1493,1293.48 1495.19,1293.48 1497.38,1293.49 1499.57,1293.49 
  1501.75,1293.5 1503.94,1293.51 1506.13,1293.51 1508.32,1293.52 1510.51,1293.53 1512.69,1293.54 1514.88,1293.54 1517.07,1293.55 1519.26,1293.55 1521.44,1293.55 
  1523.63,1293.55 1525.82,1293.55 1528.01,1293.54 1530.19,1293.53 1532.38,1293.53 1534.57,1293.52 1536.76,1293.51 1538.94,1293.5 1541.13,1293.5 1543.32,1293.49 
  1545.51,1293.48 1547.7,1293.48 1549.88,1293.48 1552.07,1293.47 1554.26,1293.47 1556.45,1293.47 1558.63,1293.47 1560.82,1293.48 1563.01,1293.48 1565.2,1293.49 
  1567.38,1293.49 1569.57,1293.5 1571.76,1293.51 1573.95,1293.51 1576.14,1293.52 1578.32,1293.53 1580.51,1293.54 1582.7,1293.54 1584.89,1293.55 1587.07,1293.55 
  1589.26,1293.55 1591.45,1293.55 1593.64,1293.55 1595.82,1293.54 1598.01,1293.53 1600.2,1293.53 1602.39,1293.52 1604.57,1293.51 1606.76,1293.5 1608.95,1293.5 
  1611.14,1293.49 1613.33,1293.48 1615.51,1293.48 1617.7,1293.47 1619.89,1293.47 1622.08,1293.47 1624.26,1293.47 1626.45,1293.47 1628.64,1293.48 1630.83,1293.48 
  1633.01,1293.48 1635.2,1293.49 1637.39,1293.5 1639.58,1293.51 1641.76,1293.51 1643.95,1293.52 1646.14,1293.53 1648.33,1293.54 1650.52,1293.54 1652.7,1293.55 
  1654.89,1293.55 1657.08,1293.55 1659.27,1293.55 1661.45,1293.55 1663.64,1293.54 1665.83,1293.54 1668.02,1293.53 1670.2,1293.52 1672.39,1293.51 1674.58,1293.5 
  1676.77,1293.5 1678.96,1293.49 1681.14,1293.48 1683.33,1293.48 1685.52,1293.47 1687.71,1293.47 1689.89,1293.47 1692.08,1293.47 1694.27,1293.47 1696.46,1293.47 
  1698.64,1293.48 1700.83,1293.48 1703.02,1293.49 1705.21,1293.5 1707.39,1293.5 1709.58,1293.51 1711.77,1293.52 1713.96,1293.53 1716.15,1293.54 1718.33,1293.54 
  1720.52,1293.55 1722.71,1293.55 1724.9,1293.55 1727.08,1293.55 1729.27,1293.55 1731.46,1293.55 1733.65,1293.54 1735.83,1293.53 1738.02,1293.52 1740.21,1293.51 
  1742.4,1293.5 1744.59,1293.5 1746.77,1293.49 1748.96,1293.48 1751.15,1293.48 1753.34,1293.47 1755.52,1293.47 1757.71,1293.47 1759.9,1293.47 1762.09,1293.47 
  1764.27,1293.47 1766.46,1293.48 1768.65,1293.48 1770.84,1293.49 1773.02,1293.5 1775.21,1293.5 1777.4,1293.51 1779.59,1293.52 1781.78,1293.53 1783.96,1293.54 
  1786.15,1293.54 1788.34,1293.55 1790.53,1293.55 1792.71,1293.56 1794.9,1293.56 1797.09,1293.55 1799.28,1293.55 1801.46,1293.54 1803.65,1293.53 1805.84,1293.52 
  1808.03,1293.51 1810.22,1293.51 1812.4,1293.5 1814.59,1293.49 1816.78,1293.48 1818.97,1293.48 1821.15,1293.47 1823.34,1293.47 1825.53,1293.47 1827.72,1293.47 
  1829.9,1293.47 1832.09,1293.47 1834.28,1293.48 1836.47,1293.48 1838.65,1293.49 1840.84,1293.49 1843.03,1293.5 1845.22,1293.51 1847.41,1293.52 1849.59,1293.53 
  1851.78,1293.54 1853.97,1293.54 1856.16,1293.55 1858.34,1293.55 1860.53,1293.56 1862.72,1293.56 1864.91,1293.55 1867.09,1293.55 1869.28,1293.54 1871.47,1293.53 
  1873.66,1293.52 1875.85,1293.51 1878.03,1293.51 1880.22,1293.5 1882.41,1293.49 1884.6,1293.48 1886.78,1293.48 1888.97,1293.47 1891.16,1293.47 1893.35,1293.47 
  1895.53,1293.47 1897.72,1293.47 1899.91,1293.47 1902.1,1293.48 1904.28,1293.48 1906.47,1293.49 1908.66,1293.49 1910.85,1293.5 1913.04,1293.51 1915.22,1293.52 
  1917.41,1293.53 1919.6,1293.54 1921.79,1293.54 1923.97,1293.55 1926.16,1293.55 1928.35,1293.56 1930.54,1293.56 1932.72,1293.55 1934.91,1293.55 1937.1,1293.54 
  1939.29,1293.53 1941.47,1293.52 1943.66,1293.51 1945.85,1293.51 1948.04,1293.5 1950.23,1293.49 1952.41,1293.48 1954.6,1293.48 1956.79,1293.47 1958.98,1293.47 
  1961.16,1293.47 1963.35,1293.47 1965.54,1293.47 1967.73,1293.47 1969.91,1293.48 1972.1,1293.48 1974.29,1293.49 1976.48,1293.5 1978.67,1293.5 1980.85,1293.51 
  1983.04,1293.52 1985.23,1293.53 1987.42,1293.54 1989.6,1293.54 1991.79,1293.55 1993.98,1293.55 1996.17,1293.56 1998.35,1293.56 2000.54,1293.55 2002.73,1293.55 
  2004.92,1293.54 2007.1,1293.53 2009.29,1293.52 2011.48,1293.51 2013.67,1293.51 2015.86,1293.5 2018.04,1293.49 2020.23,1293.48 2022.42,1293.48 2024.61,1293.47 
  2026.79,1293.47 2028.98,1293.47 2031.17,1293.47 2033.36,1293.47 2035.54,1293.47 2037.73,1293.48 2039.92,1293.48 2042.11,1293.49 2044.3,1293.5 2046.48,1293.5 
  2048.67,1293.51 2050.86,1293.52 2053.05,1293.53 2055.23,1293.54 2057.42,1293.54 2059.61,1293.55 2061.8,1293.55 2063.98,1293.56 2066.17,1293.56 2068.36,1293.55 
  2070.55,1293.55 2072.73,1293.54 2074.92,1293.53 2077.11,1293.52 2079.3,1293.51 2081.49,1293.51 2083.67,1293.5 2085.86,1293.49 2088.05,1293.48 2090.24,1293.48 
  2092.42,1293.47 2094.61,1293.47 2096.8,1293.47 2098.99,1293.47 2101.17,1293.47 2103.36,1293.47 2105.55,1293.48 2107.74,1293.48 2109.93,1293.49 2112.11,1293.5 
  2114.3,1293.5 2116.49,1293.51 2118.68,1293.52 2120.86,1293.53 2123.05,1293.54 2125.24,1293.54 2127.43,1293.55 2129.61,1293.55 2131.8,1293.56 2133.99,1293.55 
  2136.18,1293.55 2138.36,1293.55 2140.55,1293.54 2142.74,1293.53 2144.93,1293.52 2147.12,1293.51 2149.3,1293.51 2151.49,1293.5 2153.68,1293.49 2155.87,1293.48 
  2158.05,1293.48 2160.24,1293.47 2162.43,1293.47 2164.62,1293.47 2166.8,1293.47 2168.99,1293.47 2171.18,1293.47 2173.37,1293.48 2175.56,1293.48 2177.74,1293.49 
  2179.93,1293.5 2182.12,1293.5 2184.31,1293.51 2186.49,1293.52 2188.68,1293.53 2190.87,1293.54 2193.06,1293.54 2195.24,1293.55 2197.43,1293.55 2199.62,1293.56 
  2201.81,1293.55 2203.99,1293.55 2206.18,1293.55 2208.37,1293.54 2210.56,1293.53 2212.75,1293.52 2214.93,1293.51 2217.12,1293.51 2219.31,1293.5 2221.5,1293.49 
  2223.68,1293.48 2225.87,1293.48 2228.06,1293.47 2230.25,1293.47 2232.43,1293.47 2234.62,1293.47 2236.81,1293.47 2239,1293.47 2241.19,1293.48 2243.37,1293.48 
  2245.56,1293.49 2247.75,1293.5 2249.94,1293.5 2252.12,1293.51 2254.31,1293.52 2256.5,1293.53 2258.69,1293.54 2260.87,1293.54 2263.06,1293.55 2265.25,1293.55 
  2267.44,1293.56 2269.62,1293.55 2271.81,1293.55 2274,1293.55 2276.19,1293.54 2278.38,1293.53 2280.56,1293.52 2282.75,1293.51 2284.94,1293.51 2287.13,1293.5 
  2289.31,1293.49 2291.5,1293.48 2293.69,1293.48 2295.88,1293.47 2298.06,1293.47 2300.25,1293.47 2302.44,1293.47 2304.63,1293.47 2306.81,1293.47 2309,1293.48 
  2311.19,1293.48 2313.38,1293.49 2315.57,1293.5 2317.75,1293.5 2319.94,1293.51 2322.13,1293.52 2324.32,1293.53 2326.5,1293.54 2328.69,1293.54 2330.88,1293.55 
  2333.07,1293.55 2335.25,1293.56 2337.44,1293.56 2339.63,1293.55 2341.82,1293.55 2344.01,1293.54 2346.19,1293.54 2348.38,1293.54 2350.57,1293.53 2352.76,1293.53 
  
  "/>
<polygon clip-path="url(#clip0500)" points="
2006,433.164 2280.76,433.164 2280.76,130.764 2006,130.764 
  " fill="#ffffff" fill-rule="evenodd" fill-opacity="1"/>
<polyline clip-path="url(#clip0500)" style="stroke:#000000; stroke-width:4; stroke-opacity:1; fill:none" points="
  2006,433.164 2280.76,433.164 2280.76,130.764 2006,130.764 2006,433.164 
  "/>
<polyline clip-path="url(#clip0500)" style="stroke:#009af9; stroke-width:12; stroke-opacity:1; fill:none" points="
  2030,191.244 2174,191.244 
  "/>
<g clip-path="url(#clip0500)">
<text style="fill:#000000; fill-opacity:1; font-family:Arial,Helvetica Neue,Helvetica,sans-serif; font-size:48px; text-anchor:start;" transform="rotate(0, 2198, 208.744)" x="2198" y="208.744">S</text>
</g>
<polyline clip-path="url(#clip0500)" style="stroke:#e26f46; stroke-width:12; stroke-opacity:1; fill:none" points="
  2030,251.724 2174,251.724 
  "/>
<g clip-path="url(#clip0500)">
<text style="fill:#000000; fill-opacity:1; font-family:Arial,Helvetica Neue,Helvetica,sans-serif; font-size:48px; text-anchor:start;" transform="rotate(0, 2198, 269.224)" x="2198" y="269.224">E</text>
</g>
<polyline clip-path="url(#clip0500)" style="stroke:#3da44d; stroke-width:12; stroke-opacity:1; fill:none" points="
  2030,312.204 2174,312.204 
  "/>
<g clip-path="url(#clip0500)">
<text style="fill:#000000; fill-opacity:1; font-family:Arial,Helvetica Neue,Helvetica,sans-serif; font-size:48px; text-anchor:start;" transform="rotate(0, 2198, 329.704)" x="2198" y="329.704">I</text>
</g>
<polyline clip-path="url(#clip0500)" style="stroke:#c271d2; stroke-width:12; stroke-opacity:1; fill:none" points="
  2030,372.684 2174,372.684 
  "/>
<g clip-path="url(#clip0500)">
<text style="fill:#000000; fill-opacity:1; font-family:Arial,Helvetica Neue,Helvetica,sans-serif; font-size:48px; text-anchor:start;" transform="rotate(0, 2198, 390.184)" x="2198" y="390.184">R</text>
</g>
</svg>
