<?xml version="1.0" encoding="utf-8"?>
<svg xmlns="http://www.w3.org/2000/svg" xmlns:xlink="http://www.w3.org/1999/xlink" width="600" height="400" viewBox="0 0 2400 1600">
<defs>
  <clipPath id="clip9900">
    <rect x="0" y="0" width="2400" height="1600"/>
  </clipPath>
</defs>
<polygon clip-path="url(#clip9900)" points="
0,1600 2400,1600 2400,0 0,0 
  " fill="#ffffff" fill-rule="evenodd" fill-opacity="1"/>
<defs>
  <clipPath id="clip9901">
    <rect x="480" y="0" width="1681" height="1600"/>
  </clipPath>
</defs>
<polygon clip-path="url(#clip9900)" points="
167.279,1425.62 2352.76,1425.62 2352.76,47.2441 167.279,47.2441 
  " fill="#ffffff" fill-rule="evenodd" fill-opacity="1"/>
<defs>
  <clipPath id="clip9902">
    <rect x="167" y="47" width="2186" height="1379"/>
  </clipPath>
</defs>
<polyline clip-path="url(#clip9902)" style="stroke:#000000; stroke-width:2; stroke-opacity:0.1; fill:none" points="
  167.279,1425.62 167.279,47.2441 
  "/>
<polyline clip-path="url(#clip9902)" style="stroke:#000000; stroke-width:2; stroke-opacity:0.1; fill:none" points="
  766.04,1425.62 766.04,47.2441 
  "/>
<polyline clip-path="url(#clip9902)" style="stroke:#000000; stroke-width:2; stroke-opacity:0.1; fill:none" points="
  1364.8,1425.62 1364.8,47.2441 
  "/>
<polyline clip-path="url(#clip9902)" style="stroke:#000000; stroke-width:2; stroke-opacity:0.1; fill:none" points="
  1963.56,1425.62 1963.56,47.2441 
  "/>
<polyline clip-path="url(#clip9902)" style="stroke:#000000; stroke-width:2; stroke-opacity:0.1; fill:none" points="
  167.279,1386.61 2352.76,1386.61 
  "/>
<polyline clip-path="url(#clip9902)" style="stroke:#000000; stroke-width:2; stroke-opacity:0.1; fill:none" points="
  167.279,1064.45 2352.76,1064.45 
  "/>
<polyline clip-path="url(#clip9902)" style="stroke:#000000; stroke-width:2; stroke-opacity:0.1; fill:none" points="
  167.279,742.283 2352.76,742.283 
  "/>
<polyline clip-path="url(#clip9902)" style="stroke:#000000; stroke-width:2; stroke-opacity:0.1; fill:none" points="
  167.279,420.121 2352.76,420.121 
  "/>
<polyline clip-path="url(#clip9902)" style="stroke:#000000; stroke-width:2; stroke-opacity:0.1; fill:none" points="
  167.279,97.9587 2352.76,97.9587 
  "/>
<polyline clip-path="url(#clip9900)" style="stroke:#000000; stroke-width:4; stroke-opacity:1; fill:none" points="
  167.279,1425.62 2352.76,1425.62 
  "/>
<polyline clip-path="url(#clip9900)" style="stroke:#000000; stroke-width:4; stroke-opacity:1; fill:none" points="
  167.279,1425.62 167.279,47.2441 
  "/>
<polyline clip-path="url(#clip9900)" style="stroke:#000000; stroke-width:4; stroke-opacity:1; fill:none" points="
  167.279,1425.62 167.279,1404.94 
  "/>
<polyline clip-path="url(#clip9900)" style="stroke:#000000; stroke-width:4; stroke-opacity:1; fill:none" points="
  766.04,1425.62 766.04,1404.94 
  "/>
<polyline clip-path="url(#clip9900)" style="stroke:#000000; stroke-width:4; stroke-opacity:1; fill:none" points="
  1364.8,1425.62 1364.8,1404.94 
  "/>
<polyline clip-path="url(#clip9900)" style="stroke:#000000; stroke-width:4; stroke-opacity:1; fill:none" points="
  1963.56,1425.62 1963.56,1404.94 
  "/>
<polyline clip-path="url(#clip9900)" style="stroke:#000000; stroke-width:4; stroke-opacity:1; fill:none" points="
  167.279,1386.61 200.061,1386.61 
  "/>
<polyline clip-path="url(#clip9900)" style="stroke:#000000; stroke-width:4; stroke-opacity:1; fill:none" points="
  167.279,1064.45 200.061,1064.45 
  "/>
<polyline clip-path="url(#clip9900)" style="stroke:#000000; stroke-width:4; stroke-opacity:1; fill:none" points="
  167.279,742.283 200.061,742.283 
  "/>
<polyline clip-path="url(#clip9900)" style="stroke:#000000; stroke-width:4; stroke-opacity:1; fill:none" points="
  167.279,420.121 200.061,420.121 
  "/>
<polyline clip-path="url(#clip9900)" style="stroke:#000000; stroke-width:4; stroke-opacity:1; fill:none" points="
  167.279,97.9587 200.061,97.9587 
  "/>
<g clip-path="url(#clip9900)">
<text style="fill:#000000; fill-opacity:1; font-family:Arial,Helvetica Neue,Helvetica,sans-serif; font-size:48px; text-anchor:middle;" transform="rotate(0, 167.279, 1479.62)" x="167.279" y="1479.62">0</text>
</g>
<g clip-path="url(#clip9900)">
<text style="fill:#000000; fill-opacity:1; font-family:Arial,Helvetica Neue,Helvetica,sans-serif; font-size:48px; text-anchor:middle;" transform="rotate(0, 766.04, 1479.62)" x="766.04" y="1479.62">100</text>
</g>
<g clip-path="url(#clip9900)">
<text style="fill:#000000; fill-opacity:1; font-family:Arial,Helvetica Neue,Helvetica,sans-serif; font-size:48px; text-anchor:middle;" transform="rotate(0, 1364.8, 1479.62)" x="1364.8" y="1479.62">200</text>
</g>
<g clip-path="url(#clip9900)">
<text style="fill:#000000; fill-opacity:1; font-family:Arial,Helvetica Neue,Helvetica,sans-serif; font-size:48px; text-anchor:middle;" transform="rotate(0, 1963.56, 1479.62)" x="1963.56" y="1479.62">300</text>
</g>
<g clip-path="url(#clip9900)">
<text style="fill:#000000; fill-opacity:1; font-family:Arial,Helvetica Neue,Helvetica,sans-serif; font-size:48px; text-anchor:end;" transform="rotate(0, 143.279, 1404.11)" x="143.279" y="1404.11">0</text>
</g>
<g clip-path="url(#clip9900)">
<text style="fill:#000000; fill-opacity:1; font-family:Arial,Helvetica Neue,Helvetica,sans-serif; font-size:48px; text-anchor:end;" transform="rotate(0, 143.279, 1081.95)" x="143.279" y="1081.95">25</text>
</g>
<g clip-path="url(#clip9900)">
<text style="fill:#000000; fill-opacity:1; font-family:Arial,Helvetica Neue,Helvetica,sans-serif; font-size:48px; text-anchor:end;" transform="rotate(0, 143.279, 759.783)" x="143.279" y="759.783">50</text>
</g>
<g clip-path="url(#clip9900)">
<text style="fill:#000000; fill-opacity:1; font-family:Arial,Helvetica Neue,Helvetica,sans-serif; font-size:48px; text-anchor:end;" transform="rotate(0, 143.279, 437.621)" x="143.279" y="437.621">75</text>
</g>
<g clip-path="url(#clip9900)">
<text style="fill:#000000; fill-opacity:1; font-family:Arial,Helvetica Neue,Helvetica,sans-serif; font-size:48px; text-anchor:end;" transform="rotate(0, 143.279, 115.459)" x="143.279" y="115.459">100</text>
</g>
<g clip-path="url(#clip9900)">
<text style="fill:#000000; fill-opacity:1; font-family:Arial,Helvetica Neue,Helvetica,sans-serif; font-size:66px; text-anchor:middle;" transform="rotate(0, 1260.02, 1559.48)" x="1260.02" y="1559.48">t</text>
</g>
<polyline clip-path="url(#clip9902)" style="stroke:#009af9; stroke-width:12; stroke-opacity:1; fill:none" points="
  167.279,97.9587 169.467,99.6807 171.654,101.597 173.842,103.728 176.03,106.098 178.217,108.731 180.405,111.656 182.593,114.904 184.78,118.508 186.968,122.503 
  189.156,126.931 191.343,131.833 193.531,137.255 195.719,143.247 197.906,149.862 200.094,157.154 202.282,165.184 204.469,174.012 206.657,183.702 208.845,194.321 
  211.032,205.935 213.22,218.61 215.408,232.411 217.595,247.399 219.783,263.635 221.971,281.173 224.158,300.055 226.346,320.314 228.534,341.971 230.721,365.035 
  232.909,389.497 235.097,415.329 237.284,442.479 239.472,470.879 241.66,500.437 243.847,531.042 246.035,562.562 248.223,594.852 250.41,627.747 252.598,661.051 
  254.786,694.575 256.973,728.131 259.161,761.539 261.349,794.62 263.536,827.199 265.724,859.107 267.912,890.182 270.099,920.299 272.287,949.354 274.475,977.261 
  276.662,1003.95 278.85,1029.38 281.038,1053.5 283.225,1076.31 285.413,1097.8 287.601,1118 289.788,1136.94 291.976,1154.64 294.164,1171.17 296.351,1186.57 
  298.539,1200.89 300.727,1214.19 302.914,1226.51 305.102,1237.93 307.29,1248.49 309.477,1258.25 311.665,1267.27 313.853,1275.61 316.04,1283.32 318.228,1290.43 
  320.416,1297 322.603,1303.06 324.791,1308.66 326.979,1313.83 329.166,1318.6 331.354,1323.01 333.542,1327.09 335.729,1330.86 337.917,1334.35 340.105,1337.58 
  342.292,1340.57 344.48,1343.34 346.668,1345.91 348.855,1348.29 351.043,1350.5 353.231,1352.56 355.418,1354.47 357.606,1356.25 359.794,1357.9 361.981,1359.44 
  364.169,1360.88 366.357,1362.21 368.544,1363.46 370.732,1364.63 372.92,1365.72 375.107,1366.74 377.295,1367.7 379.483,1368.59 381.67,1369.43 383.858,1370.22 
  386.046,1370.96 388.233,1371.65 390.421,1372.31 392.609,1372.92 394.796,1373.5 396.984,1374.04 399.172,1374.56 401.359,1375.04 403.547,1375.5 405.735,1375.93 
  407.922,1376.34 410.11,1376.72 412.298,1377.09 414.485,1377.43 416.673,1377.76 418.861,1378.07 421.048,1378.37 423.236,1378.65 425.424,1378.91 427.611,1379.16 
  429.799,1379.4 431.987,1379.63 434.174,1379.85 436.362,1380.05 438.55,1380.25 440.737,1380.44 442.925,1380.62 445.113,1380.79 447.3,1380.95 449.488,1381.11 
  451.676,1381.25 453.863,1381.4 456.051,1381.53 458.239,1381.66 460.426,1381.79 462.614,1381.91 464.802,1382.02 466.989,1382.13 469.177,1382.24 471.365,1382.34 
  473.552,1382.43 475.74,1382.53 477.927,1382.62 480.115,1382.7 482.303,1382.79 484.49,1382.86 486.678,1382.94 488.866,1383.01 491.053,1383.09 493.241,1383.15 
  495.429,1383.22 497.616,1383.28 499.804,1383.34 501.992,1383.4 504.179,1383.46 506.367,1383.51 508.555,1383.57 510.742,1383.62 512.93,1383.67 515.118,1383.71 
  517.305,1383.76 519.493,1383.81 521.681,1383.85 523.868,1383.89 526.056,1383.93 528.244,1383.97 530.431,1384.01 532.619,1384.04 534.807,1384.08 536.994,1384.11 
  539.182,1384.15 541.37,1384.18 543.557,1384.21 545.745,1384.24 547.933,1384.27 550.12,1384.3 552.308,1384.32 554.496,1384.35 556.683,1384.38 558.871,1384.4 
  561.059,1384.43 563.246,1384.45 565.434,1384.47 567.622,1384.5 569.809,1384.52 571.997,1384.54 574.185,1384.56 576.372,1384.58 578.56,1384.6 580.748,1384.62 
  582.935,1384.64 585.123,1384.66 587.311,1384.67 589.498,1384.69 591.686,1384.71 593.874,1384.72 596.061,1384.74 598.249,1384.75 600.437,1384.77 602.624,1384.78 
  604.812,1384.8 607,1384.81 609.187,1384.82 611.375,1384.84 613.563,1384.85 615.75,1384.86 617.938,1384.88 620.126,1384.89 622.313,1384.9 624.501,1384.91 
  626.689,1384.92 628.876,1384.93 631.064,1384.94 633.252,1384.95 635.439,1384.96 637.627,1384.97 639.815,1384.98 642.002,1384.99 644.19,1385 646.378,1385.01 
  648.565,1385.02 650.753,1385.03 652.941,1385.03 655.128,1385.04 657.316,1385.05 659.504,1385.06 661.691,1385.07 663.879,1385.07 666.067,1385.08 668.254,1385.09 
  670.442,1385.09 672.63,1385.1 674.817,1385.11 677.005,1385.11 679.193,1385.12 681.38,1385.13 683.568,1385.13 685.756,1385.14 687.943,1385.14 690.131,1385.15 
  692.319,1385.15 694.506,1385.16 696.694,1385.17 698.882,1385.17 701.069,1385.18 703.257,1385.18 705.445,1385.19 707.632,1385.19 709.82,1385.19 712.008,1385.2 
  714.195,1385.2 716.383,1385.21 718.571,1385.21 720.758,1385.22 722.946,1385.22 725.134,1385.22 727.321,1385.23 729.509,1385.23 731.697,1385.24 733.884,1385.24 
  736.072,1385.24 738.26,1385.25 740.447,1385.25 742.635,1385.25 744.823,1385.26 747.01,1385.26 749.198,1385.26 751.386,1385.27 753.573,1385.27 755.761,1385.27 
  757.949,1385.28 760.136,1385.28 762.324,1385.28 764.512,1385.28 766.699,1385.29 768.887,1385.29 771.075,1385.29 773.262,1385.29 775.45,1385.3 777.638,1385.3 
  779.825,1385.3 782.013,1385.3 784.201,1385.31 786.388,1385.31 788.576,1385.31 790.764,1385.31 792.951,1385.31 795.139,1385.32 797.326,1385.32 799.514,1385.32 
  801.702,1385.32 803.889,1385.32 806.077,1385.33 808.265,1385.33 810.452,1385.33 812.64,1385.33 814.828,1385.33 817.015,1385.34 819.203,1385.34 821.391,1385.34 
  823.578,1385.34 825.766,1385.34 827.954,1385.34 830.141,1385.35 832.329,1385.35 834.517,1385.35 836.704,1385.35 838.892,1385.35 841.08,1385.35 843.267,1385.35 
  845.455,1385.36 847.643,1385.36 849.83,1385.36 852.018,1385.36 854.206,1385.36 856.393,1385.36 858.581,1385.36 860.769,1385.36 862.956,1385.36 865.144,1385.37 
  867.332,1385.37 869.519,1385.37 871.707,1385.37 873.895,1385.37 876.082,1385.37 878.27,1385.37 880.458,1385.37 882.645,1385.37 884.833,1385.38 887.021,1385.38 
  889.208,1385.38 891.396,1385.38 893.584,1385.38 895.771,1385.38 897.959,1385.38 900.147,1385.38 902.334,1385.38 904.522,1385.38 906.71,1385.38 908.897,1385.38 
  911.085,1385.39 913.273,1385.39 915.46,1385.39 917.648,1385.39 919.836,1385.39 922.023,1385.39 924.211,1385.39 926.399,1385.39 928.586,1385.39 930.774,1385.39 
  932.962,1385.39 935.149,1385.39 937.337,1385.39 939.525,1385.39 941.712,1385.39 943.9,1385.39 946.088,1385.4 948.275,1385.4 950.463,1385.4 952.651,1385.4 
  954.838,1385.4 957.026,1385.4 959.214,1385.4 961.401,1385.4 963.589,1385.4 965.777,1385.4 967.964,1385.4 970.152,1385.4 972.34,1385.4 974.527,1385.4 
  976.715,1385.4 978.903,1385.4 981.09,1385.4 983.278,1385.4 985.466,1385.4 987.653,1385.4 989.841,1385.4 992.029,1385.41 994.216,1385.41 996.404,1385.41 
  998.592,1385.41 1000.78,1385.41 1002.97,1385.41 1005.15,1385.41 1007.34,1385.41 1009.53,1385.41 1011.72,1385.41 1013.91,1385.41 1016.09,1385.41 1018.28,1385.41 
  1020.47,1385.41 1022.66,1385.41 1024.84,1385.41 1027.03,1385.41 1029.22,1385.41 1031.41,1385.41 1033.59,1385.41 1035.78,1385.41 1037.97,1385.41 1040.16,1385.41 
  1042.34,1385.41 1044.53,1385.41 1046.72,1385.41 1048.91,1385.41 1051.1,1385.41 1053.28,1385.41 1055.47,1385.41 1057.66,1385.41 1059.85,1385.41 1062.03,1385.41 
  1064.22,1385.41 1066.41,1385.41 1068.6,1385.41 1070.78,1385.41 1072.97,1385.42 1075.16,1385.42 1077.35,1385.42 1079.54,1385.42 1081.72,1385.42 1083.91,1385.42 
  1086.1,1385.42 1088.29,1385.42 1090.47,1385.42 1092.66,1385.42 1094.85,1385.42 1097.04,1385.42 1099.22,1385.42 1101.41,1385.42 1103.6,1385.42 1105.79,1385.42 
  1107.97,1385.42 1110.16,1385.42 1112.35,1385.42 1114.54,1385.42 1116.73,1385.42 1118.91,1385.42 1121.1,1385.42 1123.29,1385.42 1125.48,1385.42 1127.66,1385.42 
  1129.85,1385.42 1132.04,1385.42 1134.23,1385.42 1136.41,1385.42 1138.6,1385.42 1140.79,1385.42 1142.98,1385.42 1145.17,1385.42 1147.35,1385.42 1149.54,1385.42 
  1151.73,1385.42 1153.92,1385.42 1156.1,1385.42 1158.29,1385.42 1160.48,1385.42 1162.67,1385.42 1164.85,1385.42 1167.04,1385.42 1169.23,1385.42 1171.42,1385.42 
  1173.6,1385.42 1175.79,1385.42 1177.98,1385.42 1180.17,1385.42 1182.36,1385.42 1184.54,1385.42 1186.73,1385.42 1188.92,1385.42 1191.11,1385.42 1193.29,1385.42 
  1195.48,1385.42 1197.67,1385.42 1199.86,1385.42 1202.04,1385.42 1204.23,1385.42 1206.42,1385.42 1208.61,1385.42 1210.8,1385.42 1212.98,1385.42 1215.17,1385.42 
  1217.36,1385.42 1219.55,1385.42 1221.73,1385.42 1223.92,1385.42 1226.11,1385.42 1228.3,1385.42 1230.48,1385.42 1232.67,1385.42 1234.86,1385.42 1237.05,1385.42 
  1239.23,1385.42 1241.42,1385.42 1243.61,1385.42 1245.8,1385.42 1247.99,1385.42 1250.17,1385.42 1252.36,1385.42 1254.55,1385.42 1256.74,1385.42 1258.92,1385.42 
  1261.11,1385.42 1263.3,1385.42 1265.49,1385.42 1267.67,1385.42 1269.86,1385.42 1272.05,1385.42 1274.24,1385.42 1276.43,1385.42 1278.61,1385.42 1280.8,1385.42 
  1282.99,1385.42 1285.18,1385.42 1287.36,1385.42 1289.55,1385.42 1291.74,1385.42 1293.93,1385.42 1296.11,1385.42 1298.3,1385.42 1300.49,1385.42 1302.68,1385.42 
  1304.86,1385.42 1307.05,1385.42 1309.24,1385.42 1311.43,1385.42 1313.62,1385.42 1315.8,1385.42 1317.99,1385.42 1320.18,1385.42 1322.37,1385.42 1324.55,1385.42 
  1326.74,1385.42 1328.93,1385.42 1331.12,1385.42 1333.3,1385.42 1335.49,1385.42 1337.68,1385.42 1339.87,1385.42 1342.05,1385.42 1344.24,1385.42 1346.43,1385.42 
  1348.62,1385.42 1350.81,1385.42 1352.99,1385.42 1355.18,1385.42 1357.37,1385.42 1359.56,1385.42 1361.74,1385.42 1363.93,1385.42 1366.12,1385.42 1368.31,1385.42 
  1370.49,1385.42 1372.68,1385.42 1374.87,1385.42 1377.06,1385.42 1379.25,1385.42 1381.43,1385.42 1383.62,1385.42 1385.81,1385.42 1388,1385.42 1390.18,1385.42 
  1392.37,1385.42 1394.56,1385.42 1396.75,1385.42 1398.93,1385.42 1401.12,1385.42 1403.31,1385.42 1405.5,1385.42 1407.68,1385.42 1409.87,1385.42 1412.06,1385.42 
  1414.25,1385.42 1416.44,1385.42 1418.62,1385.42 1420.81,1385.42 1423,1385.43 1425.19,1385.43 1427.37,1385.43 1429.56,1385.43 1431.75,1385.43 1433.94,1385.43 
  1436.12,1385.43 1438.31,1385.43 1440.5,1385.43 1442.69,1385.43 1444.88,1385.43 1447.06,1385.43 1449.25,1385.43 1451.44,1385.43 1453.63,1385.43 1455.81,1385.43 
  1458,1385.43 1460.19,1385.43 1462.38,1385.43 1464.56,1385.43 1466.75,1385.43 1468.94,1385.43 1471.13,1385.43 1473.31,1385.43 1475.5,1385.43 1477.69,1385.43 
  1479.88,1385.43 1482.07,1385.43 1484.25,1385.43 1486.44,1385.43 1488.63,1385.43 1490.82,1385.43 1493,1385.43 1495.19,1385.43 1497.38,1385.43 1499.57,1385.43 
  1501.75,1385.43 1503.94,1385.43 1506.13,1385.43 1508.32,1385.43 1510.51,1385.43 1512.69,1385.43 1514.88,1385.43 1517.07,1385.43 1519.26,1385.43 1521.44,1385.43 
  1523.63,1385.43 1525.82,1385.43 1528.01,1385.43 1530.19,1385.43 1532.38,1385.43 1534.57,1385.43 1536.76,1385.43 1538.94,1385.43 1541.13,1385.43 1543.32,1385.43 
  1545.51,1385.43 1547.7,1385.43 1549.88,1385.43 1552.07,1385.43 1554.26,1385.43 1556.45,1385.43 1558.63,1385.43 1560.82,1385.43 1563.01,1385.43 1565.2,1385.43 
  1567.38,1385.43 1569.57,1385.43 1571.76,1385.43 1573.95,1385.43 1576.14,1385.43 1578.32,1385.43 1580.51,1385.43 1582.7,1385.43 1584.89,1385.43 1587.07,1385.43 
  1589.26,1385.43 1591.45,1385.43 1593.64,1385.43 1595.82,1385.43 1598.01,1385.43 1600.2,1385.43 1602.39,1385.43 1604.57,1385.43 1606.76,1385.43 1608.95,1385.43 
  1611.14,1385.43 1613.33,1385.43 1615.51,1385.43 1617.7,1385.43 1619.89,1385.43 1622.08,1385.43 1624.26,1385.43 1626.45,1385.43 1628.64,1385.43 1630.83,1385.43 
  1633.01,1385.43 1635.2,1385.43 1637.39,1385.43 1639.58,1385.43 1641.76,1385.43 1643.95,1385.43 1646.14,1385.43 1648.33,1385.43 1650.52,1385.43 1652.7,1385.43 
  1654.89,1385.43 1657.08,1385.43 1659.27,1385.43 1661.45,1385.43 1663.64,1385.43 1665.83,1385.43 1668.02,1385.43 1670.2,1385.43 1672.39,1385.43 1674.58,1385.43 
  1676.77,1385.43 1678.96,1385.43 1681.14,1385.43 1683.33,1385.43 1685.52,1385.43 1687.71,1385.43 1689.89,1385.43 1692.08,1385.43 1694.27,1385.43 1696.46,1385.43 
  1698.64,1385.43 1700.83,1385.43 1703.02,1385.43 1705.21,1385.43 1707.39,1385.43 1709.58,1385.43 1711.77,1385.43 1713.96,1385.43 1716.15,1385.43 1718.33,1385.43 
  1720.52,1385.43 1722.71,1385.43 1724.9,1385.43 1727.08,1385.43 1729.27,1385.43 1731.46,1385.43 1733.65,1385.43 1735.83,1385.43 1738.02,1385.43 1740.21,1385.43 
  1742.4,1385.43 1744.59,1385.43 1746.77,1385.43 1748.96,1385.43 1751.15,1385.43 1753.34,1385.43 1755.52,1385.43 1757.71,1385.43 1759.9,1385.43 1762.09,1385.43 
  1764.27,1385.43 1766.46,1385.43 1768.65,1385.43 1770.84,1385.43 1773.02,1385.43 1775.21,1385.43 1777.4,1385.43 1779.59,1385.43 1781.78,1385.43 1783.96,1385.43 
  1786.15,1385.43 1788.34,1385.43 1790.53,1385.43 1792.71,1385.43 1794.9,1385.43 1797.09,1385.43 1799.28,1385.43 1801.46,1385.43 1803.65,1385.43 1805.84,1385.43 
  1808.03,1385.43 1810.22,1385.43 1812.4,1385.43 1814.59,1385.43 1816.78,1385.43 1818.97,1385.43 1821.15,1385.43 1823.34,1385.43 1825.53,1385.43 1827.72,1385.43 
  1829.9,1385.43 1832.09,1385.43 1834.28,1385.43 1836.47,1385.43 1838.65,1385.43 1840.84,1385.43 1843.03,1385.43 1845.22,1385.43 1847.41,1385.43 1849.59,1385.43 
  1851.78,1385.43 1853.97,1385.43 1856.16,1385.43 1858.34,1385.43 1860.53,1385.43 1862.72,1385.43 1864.91,1385.43 1867.09,1385.43 1869.28,1385.43 1871.47,1385.43 
  1873.66,1385.43 1875.85,1385.43 1878.03,1385.43 1880.22,1385.43 1882.41,1385.43 1884.6,1385.43 1886.78,1385.43 1888.97,1385.43 1891.16,1385.43 1893.35,1385.43 
  1895.53,1385.43 1897.72,1385.43 1899.91,1385.43 1902.1,1385.43 1904.28,1385.43 1906.47,1385.43 1908.66,1385.43 1910.85,1385.43 1913.04,1385.43 1915.22,1385.43 
  1917.41,1385.43 1919.6,1385.43 1921.79,1385.43 1923.97,1385.43 1926.16,1385.43 1928.35,1385.43 1930.54,1385.43 1932.72,1385.43 1934.91,1385.43 1937.1,1385.43 
  1939.29,1385.43 1941.47,1385.43 1943.66,1385.43 1945.85,1385.43 1948.04,1385.43 1950.23,1385.43 1952.41,1385.43 1954.6,1385.43 1956.79,1385.43 1958.98,1385.43 
  1961.16,1385.43 1963.35,1385.43 1965.54,1385.43 1967.73,1385.43 1969.91,1385.43 1972.1,1385.43 1974.29,1385.43 1976.48,1385.43 1978.67,1385.43 1980.85,1385.43 
  1983.04,1385.43 1985.23,1385.43 1987.42,1385.43 1989.6,1385.43 1991.79,1385.43 1993.98,1385.43 1996.17,1385.43 1998.35,1385.43 2000.54,1385.43 2002.73,1385.43 
  2004.92,1385.43 2007.1,1385.43 2009.29,1385.43 2011.48,1385.43 2013.67,1385.43 2015.86,1385.43 2018.04,1385.43 2020.23,1385.43 2022.42,1385.43 2024.61,1385.43 
  2026.79,1385.43 2028.98,1385.43 2031.17,1385.43 2033.36,1385.43 2035.54,1385.43 2037.73,1385.43 2039.92,1385.43 2042.11,1385.43 2044.3,1385.43 2046.48,1385.43 
  2048.67,1385.43 2050.86,1385.43 2053.05,1385.43 2055.23,1385.43 2057.42,1385.43 2059.61,1385.43 2061.8,1385.43 2063.98,1385.43 2066.17,1385.43 2068.36,1385.43 
  2070.55,1385.43 2072.73,1385.43 2074.92,1385.43 2077.11,1385.43 2079.3,1385.43 2081.49,1385.43 2083.67,1385.43 2085.86,1385.43 2088.05,1385.43 2090.24,1385.43 
  2092.42,1385.43 2094.61,1385.43 2096.8,1385.43 2098.99,1385.43 2101.17,1385.43 2103.36,1385.43 2105.55,1385.43 2107.74,1385.43 2109.93,1385.43 2112.11,1385.43 
  2114.3,1385.43 2116.49,1385.43 2118.68,1385.43 2120.86,1385.43 2123.05,1385.43 2125.24,1385.43 2127.43,1385.43 2129.61,1385.43 2131.8,1385.43 2133.99,1385.43 
  2136.18,1385.43 2138.36,1385.43 2140.55,1385.43 2142.74,1385.43 2144.93,1385.43 2147.12,1385.43 2149.3,1385.43 2151.49,1385.43 2153.68,1385.43 2155.87,1385.43 
  2158.05,1385.43 2160.24,1385.43 2162.43,1385.43 2164.62,1385.43 2166.8,1385.43 2168.99,1385.43 2171.18,1385.43 2173.37,1385.43 2175.56,1385.43 2177.74,1385.43 
  2179.93,1385.43 2182.12,1385.43 2184.31,1385.43 2186.49,1385.43 2188.68,1385.43 2190.87,1385.43 2193.06,1385.43 2195.24,1385.43 2197.43,1385.43 2199.62,1385.43 
  2201.81,1385.43 2203.99,1385.43 2206.18,1385.43 2208.37,1385.43 2210.56,1385.43 2212.75,1385.43 2214.93,1385.43 2217.12,1385.43 2219.31,1385.43 2221.5,1385.43 
  2223.68,1385.43 2225.87,1385.43 2228.06,1385.43 2230.25,1385.43 2232.43,1385.43 2234.62,1385.43 2236.81,1385.43 2239,1385.43 2241.19,1385.43 2243.37,1385.43 
  2245.56,1385.43 2247.75,1385.43 2249.94,1385.43 2252.12,1385.43 2254.31,1385.43 2256.5,1385.43 2258.69,1385.43 2260.87,1385.43 2263.06,1385.43 2265.25,1385.43 
  2267.44,1385.43 2269.62,1385.43 2271.81,1385.43 2274,1385.43 2276.19,1385.43 2278.38,1385.43 2280.56,1385.43 2282.75,1385.43 2284.94,1385.43 2287.13,1385.43 
  2289.31,1385.43 2291.5,1385.43 2293.69,1385.43 2295.88,1385.43 2298.06,1385.43 2300.25,1385.43 2302.44,1385.43 2304.63,1385.43 2306.81,1385.43 2309,1385.43 
  2311.19,1385.43 2313.38,1385.43 2315.57,1385.43 2317.75,1385.43 2319.94,1385.43 2322.13,1385.43 2324.32,1385.43 2326.5,1385.43 2328.69,1385.43 2330.88,1385.43 
  2333.07,1385.43 2335.25,1385.43 2337.44,1385.43 2339.63,1385.43 2341.82,1385.43 2344.01,1385.43 2346.19,1385.43 2348.38,1385.43 2350.57,1385.43 2352.76,1385.43 
  
  "/>
<polyline clip-path="url(#clip9902)" style="stroke:#e26f46; stroke-width:12; stroke-opacity:1; fill:none" points="
  167.279,1373.72 169.467,1372.25 171.654,1370.61 173.842,1368.79 176.03,1366.76 178.217,1364.51 180.405,1362.01 182.593,1359.24 184.78,1356.16 186.968,1352.75 
  189.156,1348.98 191.343,1344.8 193.531,1340.18 195.719,1335.09 197.906,1329.46 200.094,1323.27 202.282,1316.46 204.469,1308.98 206.657,1300.78 208.845,1291.81 
  211.032,1282.02 213.22,1271.35 215.408,1259.76 217.595,1247.2 219.783,1233.63 221.971,1219.02 224.158,1203.34 226.346,1186.58 228.534,1168.74 230.721,1149.83 
  232.909,1129.87 235.097,1108.92 237.284,1087.04 239.472,1064.32 241.66,1040.86 243.847,1016.79 246.035,992.254 248.223,967.394 250.41,942.388 252.598,917.428 
  254.786,892.702 256.973,868.391 259.161,844.667 261.349,821.697 263.536,799.64 265.724,778.648 267.912,758.862 270.099,740.386 272.287,723.296 274.475,707.651 
  276.662,693.495 278.85,680.849 281.038,669.722 283.225,660.1 285.413,651.955 287.601,645.239 289.788,639.897 291.976,635.868 294.164,633.081 296.351,631.463 
  298.539,630.942 300.727,631.447 302.914,632.903 305.102,635.239 307.29,638.381 309.477,642.257 311.665,646.793 313.853,651.921 316.04,657.587 318.228,663.734 
  320.416,670.312 322.603,677.271 324.791,684.565 326.979,692.154 329.166,699.996 331.354,708.056 333.542,716.3 335.729,724.698 337.917,733.222 340.105,741.849 
  342.292,750.557 344.48,759.326 346.668,768.137 348.855,776.973 351.043,785.818 353.231,794.658 355.418,803.481 357.606,812.277 359.794,821.035 361.981,829.747 
  364.169,838.404 366.357,847.001 368.544,855.53 370.732,863.988 372.92,872.367 375.107,880.665 377.295,888.878 379.483,897.001 381.67,905.033 383.858,912.97 
  386.046,920.811 388.233,928.555 390.421,936.2 392.609,943.745 394.796,951.189 396.984,958.532 399.172,965.773 401.359,972.911 403.547,979.948 405.735,986.882 
  407.922,993.715 410.11,1000.44 412.298,1007.07 414.485,1013.6 416.673,1020.03 418.861,1026.36 421.048,1032.59 423.236,1038.72 425.424,1044.75 427.611,1050.69 
  429.799,1056.54 431.987,1062.28 434.174,1067.94 436.362,1073.51 438.55,1078.98 440.737,1084.36 442.925,1089.66 445.113,1094.86 447.3,1099.98 449.488,1105.02 
  451.676,1109.97 453.863,1114.83 456.051,1119.62 458.239,1124.32 460.426,1128.95 462.614,1133.49 464.802,1137.96 466.989,1142.35 469.177,1146.67 471.365,1150.91 
  473.552,1155.08 475.74,1159.18 477.927,1163.21 480.115,1167.17 482.303,1171.06 484.49,1174.88 486.678,1178.64 488.866,1182.33 491.053,1185.96 493.241,1189.53 
  495.429,1193.03 497.616,1196.47 499.804,1199.85 501.992,1203.17 504.179,1206.44 506.367,1209.65 508.555,1212.8 510.742,1215.89 512.93,1218.93 515.118,1221.92 
  517.305,1224.86 519.493,1227.74 521.681,1230.58 523.868,1233.36 526.056,1236.09 528.244,1238.78 530.431,1241.42 532.619,1244.01 534.807,1246.56 536.994,1249.06 
  539.182,1251.52 541.37,1253.93 543.557,1256.3 545.745,1258.63 547.933,1260.92 550.12,1263.16 552.308,1265.37 554.496,1267.54 556.683,1269.67 558.871,1271.76 
  561.059,1273.81 563.246,1275.83 565.434,1277.82 567.622,1279.76 569.809,1281.67 571.997,1283.55 574.185,1285.4 576.372,1287.21 578.56,1288.99 580.748,1290.74 
  582.935,1292.46 585.123,1294.14 587.311,1295.8 589.498,1297.43 591.686,1299.02 593.874,1300.59 596.061,1302.14 598.249,1303.65 600.437,1305.14 602.624,1306.6 
  604.812,1308.03 607,1309.44 609.187,1310.82 611.375,1312.18 613.563,1313.52 615.75,1314.83 617.938,1316.11 620.126,1317.38 622.313,1318.62 624.501,1319.84 
  626.689,1321.04 628.876,1322.21 631.064,1323.37 633.252,1324.5 635.439,1325.62 637.627,1326.71 639.815,1327.79 642.002,1328.84 644.19,1329.88 646.378,1330.9 
  648.565,1331.9 650.753,1332.88 652.941,1333.85 655.128,1334.79 657.316,1335.72 659.504,1336.64 661.691,1337.53 663.879,1338.42 666.067,1339.28 668.254,1340.13 
  670.442,1340.96 672.63,1341.78 674.817,1342.59 677.005,1343.38 679.193,1344.16 681.38,1344.92 683.568,1345.67 685.756,1346.4 687.943,1347.12 690.131,1347.83 
  692.319,1348.53 694.506,1349.21 696.694,1349.88 698.882,1350.54 701.069,1351.19 703.257,1351.83 705.445,1352.45 707.632,1353.07 709.82,1353.67 712.008,1354.26 
  714.195,1354.84 716.383,1355.41 718.571,1355.97 720.758,1356.53 722.946,1357.07 725.134,1357.6 727.321,1358.12 729.509,1358.63 731.697,1359.13 733.884,1359.63 
  736.072,1360.11 738.26,1360.59 740.447,1361.06 742.635,1361.51 744.823,1361.97 747.01,1362.41 749.198,1362.84 751.386,1363.27 753.573,1363.69 755.761,1364.1 
  757.949,1364.51 760.136,1364.9 762.324,1365.29 764.512,1365.68 766.699,1366.05 768.887,1366.42 771.075,1366.78 773.262,1367.14 775.45,1367.49 777.638,1367.83 
  779.825,1368.17 782.013,1368.5 784.201,1368.83 786.388,1369.15 788.576,1369.46 790.764,1369.77 792.951,1370.07 795.139,1370.37 797.326,1370.66 799.514,1370.95 
  801.702,1371.23 803.889,1371.51 806.077,1371.78 808.265,1372.05 810.452,1372.31 812.64,1372.56 814.828,1372.82 817.015,1373.07 819.203,1373.31 821.391,1373.55 
  823.578,1373.78 825.766,1374.01 827.954,1374.24 830.141,1374.46 832.329,1374.68 834.517,1374.89 836.704,1375.1 838.892,1375.31 841.08,1375.51 843.267,1375.71 
  845.455,1375.91 847.643,1376.1 849.83,1376.29 852.018,1376.48 854.206,1376.66 856.393,1376.84 858.581,1377.01 860.769,1377.19 862.956,1377.36 865.144,1377.52 
  867.332,1377.69 869.519,1377.85 871.707,1378 873.895,1378.16 876.082,1378.31 878.27,1378.46 880.458,1378.61 882.645,1378.75 884.833,1378.89 887.021,1379.03 
  889.208,1379.17 891.396,1379.3 893.584,1379.43 895.771,1379.56 897.959,1379.69 900.147,1379.81 902.334,1379.93 904.522,1380.05 906.71,1380.17 908.897,1380.29 
  911.085,1380.4 913.273,1380.51 915.46,1380.62 917.648,1380.73 919.836,1380.84 922.023,1380.94 924.211,1381.04 926.399,1381.14 928.586,1381.24 930.774,1381.34 
  932.962,1381.43 935.149,1381.52 937.337,1381.62 939.525,1381.71 941.712,1381.79 943.9,1381.88 946.088,1381.96 948.275,1382.05 950.463,1382.13 952.651,1382.21 
  954.838,1382.29 957.026,1382.37 959.214,1382.44 961.401,1382.52 963.589,1382.59 965.777,1382.66 967.964,1382.74 970.152,1382.81 972.34,1382.87 974.527,1382.94 
  976.715,1383.01 978.903,1383.07 981.09,1383.14 983.278,1383.2 985.466,1383.26 987.653,1383.32 989.841,1383.38 992.029,1383.44 994.216,1383.49 996.404,1383.55 
  998.592,1383.6 1000.78,1383.66 1002.97,1383.71 1005.15,1383.76 1007.34,1383.82 1009.53,1383.87 1011.72,1383.91 1013.91,1383.96 1016.09,1384.01 1018.28,1384.06 
  1020.47,1384.1 1022.66,1384.15 1024.84,1384.19 1027.03,1384.24 1029.22,1384.28 1031.41,1384.32 1033.59,1384.36 1035.78,1384.4 1037.97,1384.44 1040.16,1384.48 
  1042.34,1384.52 1044.53,1384.56 1046.72,1384.59 1048.91,1384.63 1051.1,1384.67 1053.28,1384.7 1055.47,1384.73 1057.66,1384.77 1059.85,1384.8 1062.03,1384.83 
  1064.22,1384.87 1066.41,1384.9 1068.6,1384.93 1070.78,1384.96 1072.97,1384.99 1075.16,1385.02 1077.35,1385.05 1079.54,1385.07 1081.72,1385.1 1083.91,1385.13 
  1086.1,1385.15 1088.29,1385.18 1090.47,1385.21 1092.66,1385.23 1094.85,1385.26 1097.04,1385.28 1099.22,1385.3 1101.41,1385.33 1103.6,1385.35 1105.79,1385.37 
  1107.97,1385.4 1110.16,1385.42 1112.35,1385.44 1114.54,1385.46 1116.73,1385.48 1118.91,1385.5 1121.1,1385.52 1123.29,1385.54 1125.48,1385.56 1127.66,1385.58 
  1129.85,1385.6 1132.04,1385.62 1134.23,1385.63 1136.41,1385.65 1138.6,1385.67 1140.79,1385.68 1142.98,1385.7 1145.17,1385.72 1147.35,1385.73 1149.54,1385.75 
  1151.73,1385.76 1153.92,1385.78 1156.1,1385.8 1158.29,1385.81 1160.48,1385.82 1162.67,1385.84 1164.85,1385.85 1167.04,1385.87 1169.23,1385.88 1171.42,1385.89 
  1173.6,1385.9 1175.79,1385.92 1177.98,1385.93 1180.17,1385.94 1182.36,1385.95 1184.54,1385.97 1186.73,1385.98 1188.92,1385.99 1191.11,1386 1193.29,1386.01 
  1195.48,1386.02 1197.67,1386.03 1199.86,1386.04 1202.04,1386.05 1204.23,1386.06 1206.42,1386.07 1208.61,1386.08 1210.8,1386.09 1212.98,1386.1 1215.17,1386.11 
  1217.36,1386.12 1219.55,1386.13 1221.73,1386.14 1223.92,1386.14 1226.11,1386.15 1228.3,1386.16 1230.48,1386.17 1232.67,1386.18 1234.86,1386.18 1237.05,1386.19 
  1239.23,1386.2 1241.42,1386.21 1243.61,1386.21 1245.8,1386.22 1247.99,1386.23 1250.17,1386.24 1252.36,1386.24 1254.55,1386.25 1256.74,1386.26 1258.92,1386.26 
  1261.11,1386.27 1263.3,1386.27 1265.49,1386.28 1267.67,1386.29 1269.86,1386.29 1272.05,1386.3 1274.24,1386.3 1276.43,1386.31 1278.61,1386.31 1280.8,1386.32 
  1282.99,1386.32 1285.18,1386.33 1287.36,1386.33 1289.55,1386.34 1291.74,1386.34 1293.93,1386.35 1296.11,1386.35 1298.3,1386.36 1300.49,1386.36 1302.68,1386.37 
  1304.86,1386.37 1307.05,1386.38 1309.24,1386.38 1311.43,1386.38 1313.62,1386.39 1315.8,1386.39 1317.99,1386.4 1320.18,1386.4 1322.37,1386.4 1324.55,1386.41 
  1326.74,1386.41 1328.93,1386.41 1331.12,1386.42 1333.3,1386.42 1335.49,1386.42 1337.68,1386.43 1339.87,1386.43 1342.05,1386.43 1344.24,1386.44 1346.43,1386.44 
  1348.62,1386.44 1350.81,1386.45 1352.99,1386.45 1355.18,1386.45 1357.37,1386.45 1359.56,1386.46 1361.74,1386.46 1363.93,1386.46 1366.12,1386.47 1368.31,1386.47 
  1370.49,1386.47 1372.68,1386.47 1374.87,1386.48 1377.06,1386.48 1379.25,1386.48 1381.43,1386.48 1383.62,1386.48 1385.81,1386.49 1388,1386.49 1390.18,1386.49 
  1392.37,1386.49 1394.56,1386.5 1396.75,1386.5 1398.93,1386.5 1401.12,1386.5 1403.31,1386.5 1405.5,1386.51 1407.68,1386.51 1409.87,1386.51 1412.06,1386.51 
  1414.25,1386.51 1416.44,1386.51 1418.62,1386.52 1420.81,1386.52 1423,1386.52 1425.19,1386.52 1427.37,1386.52 1429.56,1386.52 1431.75,1386.53 1433.94,1386.53 
  1436.12,1386.53 1438.31,1386.53 1440.5,1386.53 1442.69,1386.53 1444.88,1386.53 1447.06,1386.54 1449.25,1386.54 1451.44,1386.54 1453.63,1386.54 1455.81,1386.54 
  1458,1386.54 1460.19,1386.54 1462.38,1386.54 1464.56,1386.55 1466.75,1386.55 1468.94,1386.55 1471.13,1386.55 1473.31,1386.55 1475.5,1386.55 1477.69,1386.55 
  1479.88,1386.55 1482.07,1386.55 1484.25,1386.55 1486.44,1386.56 1488.63,1386.56 1490.82,1386.56 1493,1386.56 1495.19,1386.56 1497.38,1386.56 1499.57,1386.56 
  1501.75,1386.56 1503.94,1386.56 1506.13,1386.56 1508.32,1386.56 1510.51,1386.57 1512.69,1386.57 1514.88,1386.57 1517.07,1386.57 1519.26,1386.57 1521.44,1386.57 
  1523.63,1386.57 1525.82,1386.57 1528.01,1386.57 1530.19,1386.57 1532.38,1386.57 1534.57,1386.57 1536.76,1386.57 1538.94,1386.57 1541.13,1386.57 1543.32,1386.58 
  1545.51,1386.58 1547.7,1386.58 1549.88,1386.58 1552.07,1386.58 1554.26,1386.58 1556.45,1386.58 1558.63,1386.58 1560.82,1386.58 1563.01,1386.58 1565.2,1386.58 
  1567.38,1386.58 1569.57,1386.58 1571.76,1386.58 1573.95,1386.58 1576.14,1386.58 1578.32,1386.58 1580.51,1386.58 1582.7,1386.58 1584.89,1386.58 1587.07,1386.59 
  1589.26,1386.59 1591.45,1386.59 1593.64,1386.59 1595.82,1386.59 1598.01,1386.59 1600.2,1386.59 1602.39,1386.59 1604.57,1386.59 1606.76,1386.59 1608.95,1386.59 
  1611.14,1386.59 1613.33,1386.59 1615.51,1386.59 1617.7,1386.59 1619.89,1386.59 1622.08,1386.59 1624.26,1386.59 1626.45,1386.59 1628.64,1386.59 1630.83,1386.59 
  1633.01,1386.59 1635.2,1386.59 1637.39,1386.59 1639.58,1386.59 1641.76,1386.59 1643.95,1386.59 1646.14,1386.59 1648.33,1386.59 1650.52,1386.59 1652.7,1386.59 
  1654.89,1386.6 1657.08,1386.6 1659.27,1386.6 1661.45,1386.6 1663.64,1386.6 1665.83,1386.6 1668.02,1386.6 1670.2,1386.6 1672.39,1386.6 1674.58,1386.6 
  1676.77,1386.6 1678.96,1386.6 1681.14,1386.6 1683.33,1386.6 1685.52,1386.6 1687.71,1386.6 1689.89,1386.6 1692.08,1386.6 1694.27,1386.6 1696.46,1386.6 
  1698.64,1386.6 1700.83,1386.6 1703.02,1386.6 1705.21,1386.6 1707.39,1386.6 1709.58,1386.6 1711.77,1386.6 1713.96,1386.6 1716.15,1386.6 1718.33,1386.6 
  1720.52,1386.6 1722.71,1386.6 1724.9,1386.6 1727.08,1386.6 1729.27,1386.6 1731.46,1386.6 1733.65,1386.6 1735.83,1386.6 1738.02,1386.6 1740.21,1386.6 
  1742.4,1386.6 1744.59,1386.6 1746.77,1386.6 1748.96,1386.6 1751.15,1386.6 1753.34,1386.6 1755.52,1386.6 1757.71,1386.6 1759.9,1386.6 1762.09,1386.6 
  1764.27,1386.6 1766.46,1386.6 1768.65,1386.6 1770.84,1386.6 1773.02,1386.6 1775.21,1386.6 1777.4,1386.6 1779.59,1386.6 1781.78,1386.6 1783.96,1386.6 
  1786.15,1386.6 1788.34,1386.6 1790.53,1386.6 1792.71,1386.6 1794.9,1386.6 1797.09,1386.6 1799.28,1386.6 1801.46,1386.6 1803.65,1386.6 1805.84,1386.6 
  1808.03,1386.6 1810.22,1386.6 1812.4,1386.6 1814.59,1386.6 1816.78,1386.6 1818.97,1386.6 1821.15,1386.6 1823.34,1386.6 1825.53,1386.6 1827.72,1386.6 
  1829.9,1386.6 1832.09,1386.61 1834.28,1386.61 1836.47,1386.61 1838.65,1386.61 1840.84,1386.61 1843.03,1386.61 1845.22,1386.61 1847.41,1386.61 1849.59,1386.61 
  1851.78,1386.61 1853.97,1386.61 1856.16,1386.61 1858.34,1386.61 1860.53,1386.61 1862.72,1386.61 1864.91,1386.61 1867.09,1386.61 1869.28,1386.61 1871.47,1386.61 
  1873.66,1386.61 1875.85,1386.61 1878.03,1386.61 1880.22,1386.61 1882.41,1386.61 1884.6,1386.61 1886.78,1386.61 1888.97,1386.61 1891.16,1386.61 1893.35,1386.61 
  1895.53,1386.61 1897.72,1386.61 1899.91,1386.61 1902.1,1386.61 1904.28,1386.61 1906.47,1386.61 1908.66,1386.61 1910.85,1386.61 1913.04,1386.61 1915.22,1386.61 
  1917.41,1386.61 1919.6,1386.61 1921.79,1386.61 1923.97,1386.61 1926.16,1386.61 1928.35,1386.61 1930.54,1386.61 1932.72,1386.61 1934.91,1386.61 1937.1,1386.61 
  1939.29,1386.61 1941.47,1386.61 1943.66,1386.61 1945.85,1386.61 1948.04,1386.61 1950.23,1386.61 1952.41,1386.61 1954.6,1386.61 1956.79,1386.61 1958.98,1386.61 
  1961.16,1386.61 1963.35,1386.61 1965.54,1386.61 1967.73,1386.61 1969.91,1386.61 1972.1,1386.61 1974.29,1386.61 1976.48,1386.61 1978.67,1386.61 1980.85,1386.61 
  1983.04,1386.61 1985.23,1386.61 1987.42,1386.61 1989.6,1386.61 1991.79,1386.61 1993.98,1386.61 1996.17,1386.61 1998.35,1386.61 2000.54,1386.61 2002.73,1386.61 
  2004.92,1386.61 2007.1,1386.61 2009.29,1386.61 2011.48,1386.61 2013.67,1386.61 2015.86,1386.61 2018.04,1386.61 2020.23,1386.61 2022.42,1386.61 2024.61,1386.61 
  2026.79,1386.61 2028.98,1386.61 2031.17,1386.61 2033.36,1386.61 2035.54,1386.61 2037.73,1386.61 2039.92,1386.61 2042.11,1386.61 2044.3,1386.61 2046.48,1386.61 
  2048.67,1386.61 2050.86,1386.61 2053.05,1386.61 2055.23,1386.61 2057.42,1386.61 2059.61,1386.61 2061.8,1386.61 2063.98,1386.61 2066.17,1386.61 2068.36,1386.61 
  2070.55,1386.61 2072.73,1386.61 2074.92,1386.61 2077.11,1386.61 2079.3,1386.61 2081.49,1386.61 2083.67,1386.61 2085.86,1386.61 2088.05,1386.61 2090.24,1386.61 
  2092.42,1386.61 2094.61,1386.61 2096.8,1386.61 2098.99,1386.61 2101.17,1386.61 2103.36,1386.61 2105.55,1386.61 2107.74,1386.61 2109.93,1386.61 2112.11,1386.61 
  2114.3,1386.61 2116.49,1386.61 2118.68,1386.61 2120.86,1386.61 2123.05,1386.61 2125.24,1386.61 2127.43,1386.61 2129.61,1386.61 2131.8,1386.61 2133.99,1386.61 
  2136.18,1386.61 2138.36,1386.61 2140.55,1386.61 2142.74,1386.61 2144.93,1386.61 2147.12,1386.61 2149.3,1386.61 2151.49,1386.61 2153.68,1386.61 2155.87,1386.61 
  2158.05,1386.61 2160.24,1386.61 2162.43,1386.61 2164.62,1386.61 2166.8,1386.61 2168.99,1386.61 2171.18,1386.61 2173.37,1386.61 2175.56,1386.61 2177.74,1386.61 
  2179.93,1386.61 2182.12,1386.61 2184.31,1386.61 2186.49,1386.61 2188.68,1386.61 2190.87,1386.61 2193.06,1386.61 2195.24,1386.61 2197.43,1386.61 2199.62,1386.61 
  2201.81,1386.61 2203.99,1386.61 2206.18,1386.61 2208.37,1386.61 2210.56,1386.61 2212.75,1386.61 2214.93,1386.61 2217.12,1386.61 2219.31,1386.61 2221.5,1386.61 
  2223.68,1386.61 2225.87,1386.61 2228.06,1386.61 2230.25,1386.61 2232.43,1386.61 2234.62,1386.61 2236.81,1386.61 2239,1386.61 2241.19,1386.61 2243.37,1386.61 
  2245.56,1386.61 2247.75,1386.61 2249.94,1386.61 2252.12,1386.61 2254.31,1386.61 2256.5,1386.61 2258.69,1386.61 2260.87,1386.61 2263.06,1386.61 2265.25,1386.61 
  2267.44,1386.61 2269.62,1386.61 2271.81,1386.61 2274,1386.61 2276.19,1386.61 2278.38,1386.61 2280.56,1386.61 2282.75,1386.61 2284.94,1386.61 2287.13,1386.61 
  2289.31,1386.61 2291.5,1386.61 2293.69,1386.61 2295.88,1386.61 2298.06,1386.61 2300.25,1386.61 2302.44,1386.61 2304.63,1386.61 2306.81,1386.61 2309,1386.61 
  2311.19,1386.61 2313.38,1386.61 2315.57,1386.61 2317.75,1386.61 2319.94,1386.61 2322.13,1386.61 2324.32,1386.61 2326.5,1386.61 2328.69,1386.61 2330.88,1386.61 
  2333.07,1386.61 2335.25,1386.61 2337.44,1386.61 2339.63,1386.61 2341.82,1386.61 2344.01,1386.61 2346.19,1386.61 2348.38,1386.61 2350.57,1386.61 2352.76,1386.61 
  
  "/>
<polyline clip-path="url(#clip9902)" style="stroke:#3da44d; stroke-width:12; stroke-opacity:1; fill:none" points="
  167.279,1386.61 169.467,1386.36 171.654,1386.08 173.842,1385.77 176.03,1385.43 178.217,1385.05 180.405,1384.62 182.593,1384.15 184.78,1383.62 186.968,1383.03 
  189.156,1382.38 191.343,1381.66 193.531,1380.85 195.719,1379.96 197.906,1378.96 200.094,1377.86 202.282,1376.65 204.469,1375.3 206.657,1373.81 208.845,1372.16 
  211.032,1370.34 213.22,1368.33 215.408,1366.12 217.595,1363.69 219.783,1361.02 221.971,1358.09 224.158,1354.89 226.346,1351.39 228.534,1347.58 230.721,1343.43 
  232.909,1338.92 235.097,1334.04 237.284,1328.77 239.472,1323.09 241.66,1316.99 243.847,1310.45 246.035,1303.47 248.223,1296.04 250.41,1288.15 252.598,1279.81 
  254.786,1271.01 256.973,1261.77 259.161,1252.08 261.349,1241.97 263.536,1231.45 265.724,1220.53 267.912,1209.24 270.099,1197.6 272.287,1185.64 274.475,1173.38 
  276.662,1160.84 278.85,1148.06 281.038,1135.07 283.225,1121.88 285.413,1108.53 287.601,1095.05 289.788,1081.45 291.976,1067.78 294.164,1054.04 296.351,1040.26 
  298.539,1026.46 300.727,1012.66 302.914,998.871 305.102,985.12 307.29,971.419 309.477,957.782 311.665,944.224 313.853,930.755 316.04,917.386 318.228,904.125 
  320.416,890.98 322.603,877.957 324.791,865.065 326.979,852.307 329.166,839.691 331.354,827.22 333.542,814.899 335.729,802.73 337.917,790.716 340.105,778.859 
  342.292,767.16 344.48,755.621 346.668,744.242 348.855,733.024 351.043,721.967 353.231,711.072 355.418,700.339 357.606,689.766 359.794,679.354 361.981,669.102 
  364.169,659.009 366.357,649.073 368.544,639.293 370.732,629.669 372.92,620.198 375.107,610.879 377.295,601.712 379.483,592.693 381.67,583.822 383.858,575.097 
  386.046,566.516 388.233,558.078 390.421,549.78 392.609,541.621 394.796,533.599 396.984,525.712 399.172,517.958 401.359,510.336 403.547,502.842 405.735,495.477 
  407.922,488.237 410.11,481.121 412.298,474.127 414.485,467.254 416.673,460.498 418.861,453.859 421.048,447.335 423.236,440.924 425.424,434.624 427.611,428.433 
  429.799,422.35 431.987,416.373 434.174,410.5 436.362,404.729 438.55,399.06 440.737,393.489 442.925,388.016 445.113,382.639 447.3,377.356 449.488,372.166 
  451.676,367.067 453.863,362.058 456.051,357.137 458.239,352.303 460.426,347.554 462.614,342.888 464.802,338.305 466.989,333.803 469.177,329.381 471.365,325.036 
  473.552,320.769 475.74,316.577 477.927,312.459 480.115,308.414 482.303,304.441 484.49,300.538 486.678,296.705 488.866,292.94 491.053,289.241 493.241,285.608 
  495.429,282.04 497.616,278.535 499.804,275.093 501.992,271.712 504.179,268.391 506.367,265.129 508.555,261.925 510.742,258.778 512.93,255.687 515.118,252.651 
  517.305,249.669 519.493,246.741 521.681,243.864 523.868,241.039 526.056,238.264 528.244,235.539 530.431,232.863 532.619,230.234 534.807,227.653 536.994,225.117 
  539.182,222.627 541.37,220.181 543.557,217.779 545.745,215.42 547.933,213.103 550.12,210.828 552.308,208.593 554.496,206.398 556.683,204.242 558.871,202.125 
  561.059,200.046 563.246,198.004 565.434,195.999 567.622,194.029 569.809,192.095 571.997,190.195 574.185,188.329 576.372,186.496 578.56,184.697 580.748,182.929 
  582.935,181.194 585.123,179.489 587.311,177.815 589.498,176.171 591.686,174.556 593.874,172.971 596.061,171.414 598.249,169.884 600.437,168.383 602.624,166.908 
  604.812,165.459 607,164.037 609.187,162.64 611.375,161.268 613.563,159.921 615.75,158.598 617.938,157.298 620.126,156.022 622.313,154.769 624.501,153.538 
  626.689,152.329 628.876,151.142 631.064,149.976 633.252,148.831 635.439,147.706 637.627,146.602 639.815,145.517 642.002,144.452 644.19,143.406 646.378,142.379 
  648.565,141.371 650.753,140.38 652.941,139.407 655.128,138.452 657.316,137.514 659.504,136.593 661.691,135.688 663.879,134.8 666.067,133.927 668.254,133.071 
  670.442,132.23 672.63,131.403 674.817,130.592 677.005,129.795 679.193,129.013 681.38,128.245 683.568,127.49 685.756,126.749 687.943,126.021 690.131,125.307 
  692.319,124.605 694.506,123.915 696.694,123.238 698.882,122.574 701.069,121.921 703.257,121.279 705.445,120.65 707.632,120.031 709.82,119.424 712.008,118.827 
  714.195,118.242 716.383,117.666 718.571,117.102 720.758,116.547 722.946,116.002 725.134,115.467 727.321,114.942 729.509,114.426 731.697,113.92 733.884,113.422 
  736.072,112.934 738.26,112.454 740.447,111.983 742.635,111.521 744.823,111.066 747.01,110.62 749.198,110.182 751.386,109.752 753.573,109.33 755.761,108.915 
  757.949,108.508 760.136,108.108 762.324,107.715 764.512,107.329 766.699,106.95 768.887,106.578 771.075,106.213 773.262,105.854 775.45,105.502 777.638,105.155 
  779.825,104.815 782.013,104.482 784.201,104.154 786.388,103.832 788.576,103.516 790.764,103.205 792.951,102.9 795.139,102.601 797.326,102.307 799.514,102.018 
  801.702,101.734 803.889,101.456 806.077,101.182 808.265,100.914 810.452,100.65 812.64,100.391 814.828,100.137 817.015,99.8874 819.203,99.6422 821.391,99.4015 
  823.578,99.1651 825.766,98.933 827.954,98.7051 830.141,98.4812 832.329,98.2614 834.517,98.0456 836.704,97.8337 838.892,97.6255 841.08,97.4211 843.267,97.2204 
  845.455,97.0233 847.643,96.8297 849.83,96.6396 852.018,96.4529 854.206,96.2695 856.393,96.0894 858.581,95.9126 860.769,95.7389 862.956,95.5683 865.144,95.4007 
  867.332,95.2362 869.519,95.0746 871.707,94.9159 873.895,94.76 876.082,94.607 878.27,94.4567 880.458,94.3091 882.645,94.1641 884.833,94.0218 887.021,93.882 
  889.208,93.7448 891.396,93.6101 893.584,93.4777 895.771,93.3478 897.959,93.2202 900.147,93.0949 902.334,92.9719 904.522,92.8511 906.71,92.7325 908.897,92.616 
  911.085,92.5016 913.273,92.3893 915.46,92.279 917.648,92.1707 919.836,92.0643 922.023,91.9599 924.211,91.8574 926.399,91.7566 928.586,91.6578 930.774,91.5606 
  932.962,91.4652 935.149,91.3716 937.337,91.2796 939.525,91.1892 941.712,91.1005 943.9,91.0134 946.088,90.9278 948.275,90.8437 950.463,90.7612 952.651,90.6801 
  954.838,90.6005 957.026,90.5223 959.214,90.4455 961.401,90.37 963.589,90.296 965.777,90.2232 967.964,90.1518 970.152,90.0817 972.34,90.0128 974.527,89.9451 
  976.715,89.8787 978.903,89.8135 981.09,89.7495 983.278,89.6866 985.466,89.6249 987.653,89.5642 989.841,89.5047 992.029,89.4462 994.216,89.3888 996.404,89.3325 
  998.592,89.2771 1000.78,89.2228 1002.97,89.1694 1005.15,89.117 1007.34,89.0656 1009.53,89.0151 1011.72,88.9654 1013.91,88.9167 1016.09,88.8689 1018.28,88.8219 
  1020.47,88.7757 1022.66,88.7304 1024.84,88.6859 1027.03,88.6422 1029.22,88.5993 1031.41,88.5572 1033.59,88.5158 1035.78,88.4751 1037.97,88.4352 1040.16,88.3959 
  1042.34,88.3574 1044.53,88.3196 1046.72,88.2824 1048.91,88.2459 1051.1,88.2101 1053.28,88.1749 1055.47,88.1403 1057.66,88.1064 1059.85,88.073 1062.03,88.0403 
  1064.22,88.0082 1066.41,87.9766 1068.6,87.9456 1070.78,87.9152 1072.97,87.8853 1075.16,87.856 1077.35,87.8271 1079.54,87.7989 1081.72,87.7711 1083.91,87.7438 
  1086.1,87.717 1088.29,87.6907 1090.47,87.6649 1092.66,87.6395 1094.85,87.6146 1097.04,87.5902 1099.22,87.5662 1101.41,87.5426 1103.6,87.5195 1105.79,87.4967 
  1107.97,87.4744 1110.16,87.4525 1112.35,87.431 1114.54,87.4098 1116.73,87.3891 1118.91,87.3687 1121.1,87.3487 1123.29,87.329 1125.48,87.3097 1127.66,87.2907 
  1129.85,87.2721 1132.04,87.2538 1134.23,87.2358 1136.41,87.2182 1138.6,87.2008 1140.79,87.1838 1142.98,87.1671 1145.17,87.1506 1147.35,87.1345 1149.54,87.1187 
  1151.73,87.1031 1153.92,87.0878 1156.1,87.0728 1158.29,87.0581 1160.48,87.0436 1162.67,87.0294 1164.85,87.0155 1167.04,87.0018 1169.23,86.9884 1171.42,86.9752 
  1173.6,86.9622 1175.79,86.9495 1177.98,86.937 1180.17,86.9247 1182.36,86.9126 1184.54,86.9008 1186.73,86.8892 1188.92,86.8778 1191.11,86.8666 1193.29,86.8556 
  1195.48,86.8448 1197.67,86.8342 1199.86,86.8238 1202.04,86.8135 1204.23,86.8035 1206.42,86.7936 1208.61,86.784 1210.8,86.7744 1212.98,86.7651 1215.17,86.7559 
  1217.36,86.7469 1219.55,86.7381 1221.73,86.7294 1223.92,86.7208 1226.11,86.7125 1228.3,86.7042 1230.48,86.6961 1232.67,86.6882 1234.86,86.6804 1237.05,86.6727 
  1239.23,86.6652 1241.42,86.6578 1243.61,86.6506 1245.8,86.6434 1247.99,86.6364 1250.17,86.6296 1252.36,86.6228 1254.55,86.6162 1256.74,86.6097 1258.92,86.6033 
  1261.11,86.597 1263.3,86.5908 1265.49,86.5848 1267.67,86.5789 1269.86,86.573 1272.05,86.5673 1274.24,86.5617 1276.43,86.5561 1278.61,86.5507 1280.8,86.5454 
  1282.99,86.5402 1285.18,86.535 1287.36,86.53 1289.55,86.525 1291.74,86.5202 1293.93,86.5154 1296.11,86.5107 1298.3,86.5061 1300.49,86.5016 1302.68,86.4972 
  1304.86,86.4928 1307.05,86.4885 1309.24,86.4843 1311.43,86.4802 1313.62,86.4762 1315.8,86.4722 1317.99,86.4683 1320.18,86.4644 1322.37,86.4607 1324.55,86.457 
  1326.74,86.4533 1328.93,86.4497 1331.12,86.4462 1333.3,86.4428 1335.49,86.4394 1337.68,86.4361 1339.87,86.4328 1342.05,86.4296 1344.24,86.4264 1346.43,86.4234 
  1348.62,86.4203 1350.81,86.4173 1352.99,86.4144 1355.18,86.4115 1357.37,86.4087 1359.56,86.4059 1361.74,86.4032 1363.93,86.4005 1366.12,86.3979 1368.31,86.3953 
  1370.49,86.3928 1372.68,86.3903 1374.87,86.3879 1377.06,86.3855 1379.25,86.3831 1381.43,86.3808 1383.62,86.3785 1385.81,86.3763 1388,86.3741 1390.18,86.372 
  1392.37,86.3699 1394.56,86.3678 1396.75,86.3658 1398.93,86.3638 1401.12,86.3618 1403.31,86.3599 1405.5,86.358 1407.68,86.3561 1409.87,86.3543 1412.06,86.3525 
  1414.25,86.3508 1416.44,86.349 1418.62,86.3473 1420.81,86.3457 1423,86.344 1425.19,86.3424 1427.37,86.3409 1429.56,86.3393 1431.75,86.3378 1433.94,86.3363 
  1436.12,86.3348 1438.31,86.3334 1440.5,86.332 1442.69,86.3306 1444.88,86.3292 1447.06,86.3279 1449.25,86.3265 1451.44,86.3252 1453.63,86.324 1455.81,86.3227 
  1458,86.3215 1460.19,86.3203 1462.38,86.3191 1464.56,86.318 1466.75,86.3168 1468.94,86.3157 1471.13,86.3146 1473.31,86.3135 1475.5,86.3125 1477.69,86.3114 
  1479.88,86.3104 1482.07,86.3094 1484.25,86.3084 1486.44,86.3074 1488.63,86.3065 1490.82,86.3056 1493,86.3047 1495.19,86.3038 1497.38,86.3029 1499.57,86.302 
  1501.75,86.3012 1503.94,86.3003 1506.13,86.2995 1508.32,86.2987 1510.51,86.2979 1512.69,86.2971 1514.88,86.2964 1517.07,86.2956 1519.26,86.2949 1521.44,86.2942 
  1523.63,86.2934 1525.82,86.2927 1528.01,86.2921 1530.19,86.2914 1532.38,86.2907 1534.57,86.2901 1536.76,86.2894 1538.94,86.2888 1541.13,86.2882 1543.32,86.2876 
  1545.51,86.287 1547.7,86.2864 1549.88,86.2858 1552.07,86.2853 1554.26,86.2847 1556.45,86.2842 1558.63,86.2837 1560.82,86.2831 1563.01,86.2826 1565.2,86.2821 
  1567.38,86.2816 1569.57,86.2811 1571.76,86.2807 1573.95,86.2802 1576.14,86.2797 1578.32,86.2793 1580.51,86.2788 1582.7,86.2784 1584.89,86.278 1587.07,86.2776 
  1589.26,86.2772 1591.45,86.2767 1593.64,86.2763 1595.82,86.276 1598.01,86.2756 1600.2,86.2752 1602.39,86.2748 1604.57,86.2745 1606.76,86.2741 1608.95,86.2738 
  1611.14,86.2734 1613.33,86.2731 1615.51,86.2728 1617.7,86.2724 1619.89,86.2721 1622.08,86.2718 1624.26,86.2715 1626.45,86.2712 1628.64,86.2709 1630.83,86.2706 
  1633.01,86.2703 1635.2,86.27 1637.39,86.2698 1639.58,86.2695 1641.76,86.2692 1643.95,86.2689 1646.14,86.2687 1648.33,86.2684 1650.52,86.2682 1652.7,86.2679 
  1654.89,86.2677 1657.08,86.2675 1659.27,86.2672 1661.45,86.267 1663.64,86.2668 1665.83,86.2666 1668.02,86.2664 1670.2,86.2661 1672.39,86.2659 1674.58,86.2657 
  1676.77,86.2655 1678.96,86.2653 1681.14,86.2652 1683.33,86.265 1685.52,86.2648 1687.71,86.2646 1689.89,86.2644 1692.08,86.2642 1694.27,86.2641 1696.46,86.2639 
  1698.64,86.2637 1700.83,86.2636 1703.02,86.2634 1705.21,86.2633 1707.39,86.2631 1709.58,86.2629 1711.77,86.2628 1713.96,86.2627 1716.15,86.2625 1718.33,86.2624 
  1720.52,86.2622 1722.71,86.2621 1724.9,86.262 1727.08,86.2618 1729.27,86.2617 1731.46,86.2616 1733.65,86.2614 1735.83,86.2613 1738.02,86.2612 1740.21,86.2611 
  1742.4,86.261 1744.59,86.2609 1746.77,86.2607 1748.96,86.2606 1751.15,86.2605 1753.34,86.2604 1755.52,86.2603 1757.71,86.2602 1759.9,86.2601 1762.09,86.26 
  1764.27,86.2599 1766.46,86.2598 1768.65,86.2597 1770.84,86.2596 1773.02,86.2596 1775.21,86.2595 1777.4,86.2594 1779.59,86.2593 1781.78,86.2592 1783.96,86.2591 
  1786.15,86.259 1788.34,86.259 1790.53,86.2589 1792.71,86.2588 1794.9,86.2587 1797.09,86.2587 1799.28,86.2586 1801.46,86.2585 1803.65,86.2585 1805.84,86.2584 
  1808.03,86.2583 1810.22,86.2583 1812.4,86.2582 1814.59,86.2581 1816.78,86.2581 1818.97,86.258 1821.15,86.2579 1823.34,86.2579 1825.53,86.2578 1827.72,86.2578 
  1829.9,86.2577 1832.09,86.2577 1834.28,86.2576 1836.47,86.2575 1838.65,86.2575 1840.84,86.2574 1843.03,86.2574 1845.22,86.2573 1847.41,86.2573 1849.59,86.2573 
  1851.78,86.2572 1853.97,86.2572 1856.16,86.2571 1858.34,86.2571 1860.53,86.257 1862.72,86.257 1864.91,86.2569 1867.09,86.2569 1869.28,86.2569 1871.47,86.2568 
  1873.66,86.2568 1875.85,86.2567 1878.03,86.2567 1880.22,86.2567 1882.41,86.2566 1884.6,86.2566 1886.78,86.2566 1888.97,86.2565 1891.16,86.2565 1893.35,86.2565 
  1895.53,86.2564 1897.72,86.2564 1899.91,86.2564 1902.1,86.2563 1904.28,86.2563 1906.47,86.2563 1908.66,86.2562 1910.85,86.2562 1913.04,86.2562 1915.22,86.2562 
  1917.41,86.2561 1919.6,86.2561 1921.79,86.2561 1923.97,86.2561 1926.16,86.256 1928.35,86.256 1930.54,86.256 1932.72,86.256 1934.91,86.2559 1937.1,86.2559 
  1939.29,86.2559 1941.47,86.2559 1943.66,86.2558 1945.85,86.2558 1948.04,86.2558 1950.23,86.2558 1952.41,86.2558 1954.6,86.2557 1956.79,86.2557 1958.98,86.2557 
  1961.16,86.2557 1963.35,86.2557 1965.54,86.2556 1967.73,86.2556 1969.91,86.2556 1972.1,86.2556 1974.29,86.2556 1976.48,86.2556 1978.67,86.2555 1980.85,86.2555 
  1983.04,86.2555 1985.23,86.2555 1987.42,86.2555 1989.6,86.2555 1991.79,86.2555 1993.98,86.2554 1996.17,86.2554 1998.35,86.2554 2000.54,86.2554 2002.73,86.2554 
  2004.92,86.2554 2007.1,86.2554 2009.29,86.2553 2011.48,86.2553 2013.67,86.2553 2015.86,86.2553 2018.04,86.2553 2020.23,86.2553 2022.42,86.2553 2024.61,86.2553 
  2026.79,86.2553 2028.98,86.2552 2031.17,86.2552 2033.36,86.2552 2035.54,86.2552 2037.73,86.2552 2039.92,86.2552 2042.11,86.2552 2044.3,86.2552 2046.48,86.2552 
  2048.67,86.2552 2050.86,86.2551 2053.05,86.2551 2055.23,86.2551 2057.42,86.2551 2059.61,86.2551 2061.8,86.2551 2063.98,86.2551 2066.17,86.2551 2068.36,86.2551 
  2070.55,86.2551 2072.73,86.2551 2074.92,86.2551 2077.11,86.255 2079.3,86.255 2081.49,86.255 2083.67,86.255 2085.86,86.255 2088.05,86.255 2090.24,86.255 
  2092.42,86.255 2094.61,86.255 2096.8,86.255 2098.99,86.255 2101.17,86.255 2103.36,86.255 2105.55,86.255 2107.74,86.255 2109.93,86.255 2112.11,86.2549 
  2114.3,86.2549 2116.49,86.2549 2118.68,86.2549 2120.86,86.2549 2123.05,86.2549 2125.24,86.2549 2127.43,86.2549 2129.61,86.2549 2131.8,86.2549 2133.99,86.2549 
  2136.18,86.2549 2138.36,86.2549 2140.55,86.2549 2142.74,86.2549 2144.93,86.2549 2147.12,86.2549 2149.3,86.2549 2151.49,86.2549 2153.68,86.2549 2155.87,86.2549 
  2158.05,86.2549 2160.24,86.2549 2162.43,86.2548 2164.62,86.2548 2166.8,86.2548 2168.99,86.2548 2171.18,86.2548 2173.37,86.2548 2175.56,86.2548 2177.74,86.2548 
  2179.93,86.2548 2182.12,86.2548 2184.31,86.2548 2186.49,86.2548 2188.68,86.2548 2190.87,86.2548 2193.06,86.2548 2195.24,86.2548 2197.43,86.2548 2199.62,86.2548 
  2201.81,86.2548 2203.99,86.2548 2206.18,86.2548 2208.37,86.2548 2210.56,86.2548 2212.75,86.2548 2214.93,86.2548 2217.12,86.2548 2219.31,86.2548 2221.5,86.2548 
  2223.68,86.2548 2225.87,86.2548 2228.06,86.2548 2230.25,86.2548 2232.43,86.2548 2234.62,86.2548 2236.81,86.2548 2239,86.2548 2241.19,86.2548 2243.37,86.2548 
  2245.56,86.2548 2247.75,86.2547 2249.94,86.2547 2252.12,86.2547 2254.31,86.2547 2256.5,86.2547 2258.69,86.2547 2260.87,86.2547 2263.06,86.2547 2265.25,86.2547 
  2267.44,86.2547 2269.62,86.2547 2271.81,86.2547 2274,86.2547 2276.19,86.2547 2278.38,86.2547 2280.56,86.2547 2282.75,86.2547 2284.94,86.2547 2287.13,86.2547 
  2289.31,86.2547 2291.5,86.2547 2293.69,86.2547 2295.88,86.2547 2298.06,86.2547 2300.25,86.2547 2302.44,86.2547 2304.63,86.2547 2306.81,86.2547 2309,86.2547 
  2311.19,86.2547 2313.38,86.2547 2315.57,86.2547 2317.75,86.2547 2319.94,86.2547 2322.13,86.2547 2324.32,86.2547 2326.5,86.2547 2328.69,86.2547 2330.88,86.2547 
  2333.07,86.2547 2335.25,86.2547 2337.44,86.2547 2339.63,86.2547 2341.82,86.2547 2344.01,86.2547 2346.19,86.2547 2348.38,86.2547 2350.57,86.2547 2352.76,86.2547 
  
  "/>
<polygon clip-path="url(#clip9900)" points="
2006,372.684 2280.76,372.684 2280.76,130.764 2006,130.764 
  " fill="#ffffff" fill-rule="evenodd" fill-opacity="1"/>
<polyline clip-path="url(#clip9900)" style="stroke:#000000; stroke-width:4; stroke-opacity:1; fill:none" points="
  2006,372.684 2280.76,372.684 2280.76,130.764 2006,130.764 2006,372.684 
  "/>
<polyline clip-path="url(#clip9900)" style="stroke:#009af9; stroke-width:12; stroke-opacity:1; fill:none" points="
  2030,191.244 2174,191.244 
  "/>
<g clip-path="url(#clip9900)">
<text style="fill:#000000; fill-opacity:1; font-family:Arial,Helvetica Neue,Helvetica,sans-serif; font-size:48px; text-anchor:start;" transform="rotate(0, 2198, 208.744)" x="2198" y="208.744">S</text>
</g>
<polyline clip-path="url(#clip9900)" style="stroke:#e26f46; stroke-width:12; stroke-opacity:1; fill:none" points="
  2030,251.724 2174,251.724 
  "/>
<g clip-path="url(#clip9900)">
<text style="fill:#000000; fill-opacity:1; font-family:Arial,Helvetica Neue,Helvetica,sans-serif; font-size:48px; text-anchor:start;" transform="rotate(0, 2198, 269.224)" x="2198" y="269.224">I</text>
</g>
<polyline clip-path="url(#clip9900)" style="stroke:#3da44d; stroke-width:12; stroke-opacity:1; fill:none" points="
  2030,312.204 2174,312.204 
  "/>
<g clip-path="url(#clip9900)">
<text style="fill:#000000; fill-opacity:1; font-family:Arial,Helvetica Neue,Helvetica,sans-serif; font-size:48px; text-anchor:start;" transform="rotate(0, 2198, 329.704)" x="2198" y="329.704">R</text>
</g>
</svg>
